<?xml version="1.0" encoding="utf-8"?>
<!-- Generator: Adobe Illustrator 20.0.0, SVG Export Plug-In . SVG Version: 6.00 Build 0)  -->
<svg version="1.1" id="Layer_1" xmlns="http://www.w3.org/2000/svg" xmlns:xlink="http://www.w3.org/1999/xlink" x="0px" y="0px"
	 viewBox="0 0 5800 3400" enable-background="new 0 0 5800 3400" xml:space="preserve">
<path d="M99.478,3187.807c-25.885-2.678-52.07-4.543-77.361-10.187c-19.279-4.302-25.035-18.858-16.825-37.368
	c7.933-17.885,17.656-35.094,27.864-51.823c14.889-24.4,37.782-26.49,64.098-23.668c34.893,3.741,70.324,7.022,105.202,4.988
	c30.997-1.808,38.848-12.37,42.141-43.431c3.41-32.158,4.235-64.582,6.901-96.831c1.213-14.665-4.713-24.948-15.624-33.706
	c-15.228-12.223-18.524-20.528-6.653-34.98c23.781-28.949,29.544-61.628,28.868-97.464c-0.507-26.917,2.075-53.879,2.531-80.833
	c0.368-21.749-3.87-24.664-25.316-25.717c-25.638-1.258-46.751,6.074-58.855,29.619c-9.359,18.205-11.784,38.117-6.844,58.412
	c2.804,11.518,6.834,22.837,8.524,34.505c2.839,19.599,0.036,37.015-19.544,48.713c-17.308,10.341-32.444,24.455-50.089,34.054
	c-16.898,9.193-33.706,4.138-40.745-12.922c-8.358-20.258-15.607-41.938-17.877-63.574
	c-9.394-89.532,47.977-147.389,120.141-176.228c57.428-22.949,117.201-31.27,178.445-31.096c26.401,0.075,52.973,0.439,79.14,3.483
	c20.405,2.374,26.314,21.299,12.218,36.349c-13.694,14.621-18.655,30.83-18.524,50.766c0.258,39.22-1.947,78.45-2.679,117.685
	c-0.399,21.371,6.729,28.555,27.972,28.104c25.434-0.539,50.883-1.43,76.264-3.105c20.859-1.376,26.363-6.661,28.719-26.856
	c4.377-37.519,6.999-75.274,12.406-112.633c6.992-48.313,28.216-89.073,71.007-115.533c36.961-22.854,73.832-46.066,112.2-66.366
	c33.161-17.545,69.751-13.648,104.731-5.565c22.927,5.297,28.514,23.748,17.188,44.946c-4.39,8.216-8.987,16.342-13.908,24.249
	c-12.534,20.137-28.009,25.453-50.868,17.99c-7.871-2.57-15.773-5.104-23.788-7.159c-14.372-3.686-24.784-0.886-39.133,8.06
	c-20.431,12.739-19.78,28.171-21.218,46.117c-2.585,32.247-6.154,64.424-8.227,96.7c-2.946,45.856-5.94,91.751-7.012,137.674
	c-1.121,48.015-0.324,96.086,0.323,144.124c0.249,18.496,0.541,37.339,4.164,55.351c4.195,20.856,46.839,32.937,62.384,18.401
	c3.926-3.671,6.083-11.033,6.157-16.736c0.516-40.14-0.501-80.309,0.521-120.43c0.812-31.865,10.076-61.974,23.443-90.925
	c15.273-33.08,41.424-55.753,72.656-71.491c45.224-22.789,90.581-46.605,138.325-62.763c54.693-18.51,126.388-15.899,174.19,36.488
	c21.871,23.969,22.132,22.624,51.839,11.456c51.86-19.496,103.882-38.64,156.361-56.377c25.562-8.64,44.6,1.868,48.139,28.012
	c3.198,23.625,1.266,48.151-0.292,72.158c-1.74,26.804-6.038,53.432-8.414,80.208c-1.945,21.913-4.109,43.969-3.51,65.889
	c0.424,15.515,3.442,31.573,8.676,46.18c6.029,16.826,22.461,22.274,38.818,14.934c11.15-5.003,22.298-10.617,32.157-17.744
	c15.075-10.897,12.072-29.302,14.708-44.669c3.065-17.871,2.404-36.361,3.724-54.556c3.052-42.063,5.709-84.169,9.776-126.136
	c1.915-19.765,13.915-34.703,32.885-39.979c30.365-8.445,61.306-15.062,92.289-20.949c16.469-3.129,26.93,3.65,28.769,20.279
	c2.211,19.978,1.012,40.461-0.084,60.651c-2.581,47.534-6.95,94.992-8.555,142.55c-0.621,18.41,2.972,37.295,6.998,55.442
	c4.503,20.292,19.502,26.222,39.662,18.578c24.06-9.123,46.583-22.245,74.339-20.321c14.778,1.025,20.946,8.48,27.344,19.033
	c12.012,19.813,22.537,40.986,37.288,58.566c19.694,23.47,60.539,17.261,72.052-2.752c10.43-18.132,9.612-36.58-9.458-44.994
	c-26.214-11.567-53.784-20.629-81.488-28.116c-44.056-11.905-73.151-39.827-86.156-81.907
	c-10.274-33.241-3.513-67.176,14.624-96.887c35.105-57.508,84.38-99.458,149.201-118.713
	c43.422-12.899,88.303-12.751,126.773,17.025c31.635,24.485,35.691,45.76,17.701,81.19c-6.346,12.498-14.93,23.871-22.631,35.666
	c-11.256,17.24-35.495,19.886-49.858,2.644c-16.399-19.687-32.336-41.493-59.667-47.67c-9.45-2.136-19.85-3.854-29.102-2.066
	c-10.229,1.977-21.053,6.517-23.029,19.771c-1.999,13.405,2.687,24.576,14.21,30.642c13.566,7.141,27.952,13.477,42.713,17.445
	c34.419,9.253,69.388,17.063,99.145,37.779c12.201,8.494,22.12,20.218,33.42,30.08c3.746,3.27,8.565,5.311,12.893,7.913
	c1.995-4.313,4.497-8.467,5.906-12.963c10.638-33.949,19.857-68.399,31.873-101.846c13.56-37.746,46.758-57.025,80.275-71.904
	c46.355-20.577,94.038-39.154,142.715-53.151c30.885-8.881,64.587-9.192,93.75,12.326c17.492,12.907,27.29,30.372,29.751,50.929
	c8.463,70.682-24.493,113.1-82.911,145.614c-37.228,20.72-73.846,42.618-109.94,65.259c-15.258,9.572-15.403,17.047-5.224,32.38
	c12.247,18.448,30.759,26.794,51.57,31.487c41.95,9.459,79.563-6.338,117.51-19.998c18.013-6.484,35.469-14.797,53.846-19.849
	c7.274-2,21.193,0.146,23.545,4.76c3.961,7.767,3.51,19.87,0.415,28.543c-2.917,8.177-10.438,16.162-18.001,20.997
	c-52.395,33.497-105.32,66.166-158.096,99.067c-43.064,26.847-89.019,24.514-135.913,13.58
	c-56.913-13.27-88.928-51.461-105.927-104.957c-1.404-4.417-3.013-8.95-5.515-12.784c-2.344-3.594-6.373-9.14-8.992-8.792
	c-4.006,0.531-9.021,4.64-10.861,8.53c-14.475,30.615-38.223,52.224-65.424,71.24c-34.039,23.797-69.086,45.329-109.715,55.881
	c-61.015,15.848-116.076,5.336-163.066-38.381c-20.628-19.191-20.484-19.593-45.474-6.47
	c-24.837,13.043-49.361,26.683-74.239,39.645c-43.62,22.727-73.899,3.297-87.494-42.409c-0.435-1.462,0.094-3.191-0.233-4.708
	c-6.139-28.563-16.812-33.265-42.117-18.081c-34.742,20.846-69.104,42.333-104.071,62.789
	c-11.029,6.452-23.083,11.882-35.356,15.333c-28.379,7.979-52.954-10.181-65.044-43.709
	c-14.012-38.857-13.983-78.784-12.359-118.986c1.92-47.522,4.925-95.003,6.463-142.535c0.83-25.638-18.764-37.606-42.452-28.037
	c-9.765,3.945-11.566,10.599-11.149,19.835c2.188,48.54-2.97,96.438-15.97,143.161c-10.557,37.945-29.431,72.174-61.815,95.338
	c-22.98,16.438-49.224,28.539-74.686,41.22c-27.419,13.656-55.043,27.254-83.613,38.169
	c-52.571,20.084-105.143,22.869-154.471-9.865c-21.786-14.457-44.341-8.778-66.525-4.713
	c-50.408,9.236-100.349,21.167-150.911,29.326c-17.838,2.878-37.498,0.262-55.277-4.113c-14.478-3.563-21.273-17.635-21.321-32.948
	c-0.194-61.969-0.171-123.938,0.009-185.906c0.031-10.666,1.111-21.336,1.884-31.992c1.457-20.085-3.283-29.487-22.022-30.193
	c-32.271-1.217-64.674,1.232-97.027,1.888c-12.848,0.26-16.553,8.892-18.587,19.176c-3.824,19.338-7.145,38.78-11.202,58.068
	c-9.976,47.421-38.636,80.547-77.906,107.721c-40.611,28.102-77.93,60.935-118.207,89.562
	C179.903,3183.529,121.436,3190.079,99.478,3187.807z M1071.985,2925.241c-0.879-0.181-1.758-0.363-2.637-0.544
	c-1.337-16.135-0.385-32.892-4.557-48.258c-6.013-22.146-12.56-45.291-24.604-64.402c-20.894-33.157-66.195-31.479-86.984,1.899
	c-8.026,12.885-14.057,28.14-16.667,43.073c-10.283,58.836-8.778,116.914,15.211,173.103c9.138,21.404,36.019,41.22,58.433,40.255
	c21.613-0.93,40.222-17.702,45.465-44.479C1062.174,2992.551,1066.633,2958.809,1071.985,2925.241z M2249.808,2852.271
	c2.375,8.206,3.377,22.465,7.407,23.379c8.884,2.016,19.502-2.019,29.006-4.917c5.804-1.77,11.108-5.652,16.2-9.209
	c22.924-16.013,38.604-36.155,37.923-65.97c-0.435-19.052-7.618-31.744-21.622-36.007c-13.58-4.135-36.627,5.065-44.815,17.782
	C2259.324,2799.975,2252.289,2824.836,2249.808,2852.271z M5295.025,2693.491c-3.229,56.285-7.861,112.544-8.893,168.869
	c-0.342,18.636-1.101,40.487,14.906,55.484c4.496,4.212,13.514,7.469,18.865,5.861c5.944-1.787,13.59-9.145,14.395-14.927
	c4.363-31.328,6-63.029,10.146-94.395c7.504-56.782,33.137-101.961,83.761-132.406c44.619-26.833,89.094-53.343,137.971-72.117
	c24.183-9.289,48.682-8.456,73.247-7.439c25.246,1.045,50.458,4.082,75.547,7.312c16.886,2.174,33.643,5.722,50.265,9.5
	c32.445,7.373,43.611,25.941,21.864,55.184c-18.793,25.271-20.957,52.862-22.529,80.761c-3.68,65.282-4.518,130.719-7.059,196.072
	c-1.5,38.583-3.436,77.171-6.3,115.674c-3.374,45.353-22.067,84.406-54.392,115.989c-48.393,47.283-97.464,93.898-147.107,139.867
	c-25.847,23.934-59.35,31.88-92.896,30.867c-50.201-1.516-100.394-6.574-150.325-12.398c-25.29-2.949-35.656-20.198-24.238-42.598
	c14.298-28.05,32.027-54.91,51.812-79.428c15.859-19.653,40.653-13.781,63.008-11.878c51.09,4.348,101.92,15.257,153.524,7.946
	c15.764-2.233,26.849-12.802,30.045-28.159c5.369-25.794,10.373-51.866,12.557-78.07c2.752-33.022,2.845-66.287,3.457-99.458
	c0.397-21.515-6.947-25.849-25.395-14.179c-27.63,17.478-53.538,37.873-81.975,53.824c-28.015,15.715-56.543,35.798-91.892,17.129
	c-20.497-10.825-32.19-29.183-42.734-48.232c-6.845-12.364-14.4-12.823-25.513-6.965c-36.682,19.338-73.502,38.416-110.358,57.42
	c-28.249,14.566-54.773-2.165-67.737-22.245c-19.064-29.527-28.296-61.594-27.427-96.26c1.427-56.962,4.31-113.886,5.993-170.843
	c0.716-24.218-5.909-28.677-29.542-21.412c-8.397,2.581-16.737,5.644-24.654,9.425c-18.133,8.66-27.254,23.167-27.774,43.534
	c-0.487,19.096-1.838,38.176-3.089,57.245c-3.073,46.841-6.363,93.667-9.456,140.506c-1.754,26.571-16.227,42.884-47.223,52.121
	c-22.842,6.807-45.797,13.237-68.74,19.7c-23.508,6.623-38.648-3.265-38.372-27.806c0.493-43.593,2.801-87.171,4.73-130.739
	c1.077-24.322,3.563-48.592,4.248-72.918c0.763-27.073,0.616-54.192,0.067-81.275c-0.359-17.718-6.421-22.882-24.292-22.845
	c-5.959,0.012-12.019,0.068-17.855,1.101c-9.985,1.767-14.933,7.75-14.646,18.434c0.438,16.291,0.55,32.617,0.032,48.903
	c-1.773,55.786-13.883,108.628-45.4,155.798c-14.922,22.333-35.316,38.983-58.87,50.442c-48.074,23.389-96.154,47.288-145.999,66.36
	c-43.572,16.672-90.257,17.933-130.56-9.276c-31.743-21.431-61.678-12.257-93.229-5.582
	c-48.798,10.323-97.558,20.866-146.523,30.333c-10.563,2.042-22.306,1.634-32.852-0.655c-22.377-4.856-37.055-33.472-34.313-59.129
	c1.923-17.992,0.187-36.352,0.627-54.534c0.39-16.1,2.045-32.177,2.228-48.274c0.387-34.179-0.102-68.368,0.373-102.544
	c0.158-11.331-6.519-17.605-15.441-17.802c-33.312-0.738-66.698-0.583-99.958,1.145c-5.988,0.311-14.772,8.675-16.635,14.983
	c-5.821,19.714-10.242,40.058-12.85,60.459c-6.004,46.953-35.32,77.696-70.216,104.862c-31.81,24.765-64.821,48.079-95.615,74.034
	c-29.649,24.991-62.72,38.002-101.123,37.445c-26.944-0.391-53.909-1.252-80.79-3.022c-9.614-0.633-19.361-3.648-28.431-7.165
	c-16.021-6.211-23.376-20.612-15.949-36.62c9.078-19.565,20.904-37.977,32.712-56.125c15.916-24.461,39.005-23.46,64.972-19.421
	c33.389,5.194,67.415,7.33,101.239,8.315c20.638,0.601,37.836-14.38,40.159-36.082c4.197-39.197,5.648-78.726,6.892-118.159
	c0.194-6.159-5.495-13.932-10.624-18.568c-16.957-15.329-20.504-28.947-4.948-45.52c26.044-27.747,22.864-62.112,25.306-95.196
	c1.622-21.971,0.342-44.151,0.492-66.237c0.198-29.301-9.7-37.951-38.382-32.875c-35.879,6.349-51.637,36.47-47.299,71.168
	c2.366,18.922,6.787,37.578,9.573,56.459c2.155,14.608-4.283,27.41-14.886,35.856c-18.296,14.574-37.468,28.527-57.879,39.844
	c-24.684,13.686-40.41-0.905-48.574-25.127c-21.488-63.749-18.844-136.762,44.144-187.375
	c39.892-32.054,84.786-51.951,134.21-59.802c45.256-7.189,91.299-10.087,137.119-12.73c17.933-1.034,36.344,2.987,54.275,6.178
	c13.95,2.483,21.448,23.053,10.495,31.762c-24.744,19.673-21.982,46.831-23.79,72.814c-1.966,28.252-2.643,56.605-3.351,84.927
	c-0.218,8.742-0.642,18.364,2.653,26.024c2.562,5.957,10.747,13.446,16.437,13.45c30.772,0.02,61.561-1.808,92.311-3.576
	c13.401-0.771,18.276-10.883,19.687-22.338c4.573-37.113,7.316-74.497,13.18-111.393c6.889-43.347,21.521-83.821,60.204-109.733
	c37.533-25.143,75.181-50.343,114.393-72.683c36.784-20.957,77.64-17.398,117.306-9.309c19.092,3.894,24.913,19.443,16.306,37.735
	c-5.909,12.559-13.209,24.738-21.587,35.8c-14.342,18.937-24.496,20.593-47.965,13.841c-15.377-4.424-31.287-8.341-47.157-9.343
	c-17.409-1.1-28.767,9.746-30.699,26.558c-3.619,31.484-7.523,62.992-9.443,94.604c-3.915,64.471-6.954,129.001-9.648,193.537
	c-1.721,41.228-2.85,82.508-2.861,123.765c-0.004,15.905,2.558,32.108,6.207,47.646c5.088,21.668,47.785,34.495,63.028,18.584
	c5.082-5.304,6.697-16.666,5.61-24.678c-5.266-38.828-4.211-77.487,0.84-116.094c4.807-36.729,11.353-73.548,34.548-103.653
	c13.066-16.959,28.446-33.699,46.25-45.149c52.084-33.496,106.886-63.013,167.463-77.708c48.372-11.734,96.941-8.603,139.441,20.984
	c14.661,10.207,24.911,26.563,38.327,38.854c4.133,3.787,13.414,6.48,18.059,4.453c31.381-13.698,61.622-30.086,93.274-43.061
	c28.146-11.538,57.209-21.47,86.668-28.969c23.413-5.96,41.051,11.628,44.607,39.999c0.13,1.037-0.021,2.105,0.053,3.153
	c2.668,37.354,6.673,38.323,39.469,21.058c43.072-22.675,87.174-43.555,131.726-63.182c18.949-8.348,40.676-9.848,56.832,7.345
	c7.14,7.599,12.369,18.7,14.352,29.004c2.439,12.673,0.582,26.173,0.582,39.315
	C5294.23,2693.448,5294.628,2693.47,5295.025,2693.491z M4532.388,2840.389c0.955,0.336,1.909,0.672,2.863,1.007
	c1.469,13.962,3.397,27.894,4.312,41.893c1.827,27.955,10.287,53.742,24.685,77.557c16.672,27.576,49.565,38.19,71.032,21.135
	c9.443-7.502,17.305-19.718,20.947-31.341c19.166-61.181,21.426-123.389,2.959-185.031c-4.703-15.695-13.748-33.412-26.326-42.763
	c-30.15-22.413-66.541-15.087-79.619,22.657C4542.712,2775.892,4539.08,2808.671,4532.388,2840.389z M5607.458,2773.22
	c-0.317-0.024-0.634-0.049-0.951-0.073c0-9.902-1.168-19.977,0.272-29.665c2.2-14.789-4.344-23.111-17.411-26.701
	c-13.846-3.805-27.964-8.102-42.144-8.872c-22.63-1.23-31.343,8.136-35.77,30.238c-9.673,48.285-12.733,96.665-6.372,145.672
	c2.598,20.019,16.383,39.718,31.333,41.347c22.627,2.466,60.675-21.971,63.556-44.742
	C5604.461,2844.941,5605.156,2808.979,5607.458,2773.22z M3138.585,2834.109c0.383,46.155-6.601,91.18-23.8,134.032
	c-15.985,39.825-41.998,72.194-81.042,91.34c-46.507,22.806-93.026,46.108-141.264,64.727
	c-60.938,23.521-133.313,12.091-175.725-47.512c-22.893-32.173-30.653-68.163-31.461-105.033
	c-0.848-38.667,1.956-78.156,9.428-116.05c7.283-36.939,19.5-74.509,52.346-98.42c24.701-17.983,50.598-34.797,77.61-48.998
	c26.021-13.68,53.723-24.552,81.464-34.487c43.6-15.614,88.259-20.645,133.74-7.234c23.582,6.953,42.48,21.194,57.924,39.323
	c17.338,20.353,18.858,21.75,43.678,14.329c14.28-4.27,28.505-9.703,43.145-11.596c36.975-4.781,27.628-10.714,32.332-40.555
	c5.197-32.968,7.877-66.725,27.614-94.552c12.246-17.266,27.428-33.764,44.583-45.99c55.714-39.71,112.429-78.695,177.165-102.382
	c33.817-12.373,70.151-12.208,105.539-3.916c17.073,4.001,24.372,21.95,16.008,40.254c-7.077,15.488-15.995,30.297-25.48,44.482
	c-11.606,17.357-29.14,18.213-48.294,15.922c-26.873-3.214-53.94-5.465-80.981-6.349c-14.282-0.467-36.638,22.762-38.623,38.985
	c-3.862,31.557-6.794,63.235-9.624,94.907c-0.905,10.136,0.15,20.434-0.44,30.614c-0.941,16.245,8.664,20.575,22.396,21.686
	c20.066,1.624,40.207,3.029,60.084,6.05c16.923,2.572,23.136,16.862,16.766,32.736c-8.728,21.748-26.622,31.1-47.556,36.142
	c-9.055,2.18-18.559,2.72-27.903,3.432c-23.817,1.814-31.53,8.613-32.805,32.081c-2.505,46.096-3.021,92.336-6.755,138.322
	c-5.846,72.01-5.855,144.88-25.357,215.176c-7.864,28.346-22.624,54.004-44.178,74.373
	c-37.886,35.801-77.474,69.818-114.964,106.017c-21.466,20.727-42.613,42.437-72.064,49.052c-25.472,5.721-52.309,5.608-78.59,7.365
	c-10.82,0.723-21.798,0.033-32.645-0.792c-19.101-1.453-31.991-19.115-23.854-36.3c9.899-20.907,22.554-40.724,35.849-59.732
	c8.639-12.352,23.338-14.374,37.972-13.854c29.294,1.04,58.628,3.177,87.884,2.435c26.056-0.661,48.492-27.278,50.331-56.749
	c4.376-70.161,8.36-140.347,12.757-210.507c1.562-24.926,4.726-49.776,5.598-74.716c1.069-30.562,0.519-61.181,0.632-91.775
	c0.064-17.202,1.035-34.473-0.182-51.587c-1.365-19.188-9.396-25.282-27.844-24.081c-7.24,0.471-14.506,1.845-21.698,1.501
	c-15.304-0.732-20.793,6.588-19.823,21.075C3139.071,2816.198,3138.585,2825.169,3138.585,2834.109z M2980.918,2890.625
	c-4.57-30.833-7.16-58.677-13.191-85.754c-4.952-22.233-17.197-43.338-38.532-52.064c-32.831-13.429-59.495-2.262-72.359,32.553
	c-7.383,19.982-8.371,42.371-11.852,63.74c-8.549,52.487-1.43,102.675,24.433,149.365c10.682,19.283,27.557,31.642,50.733,30.562
	c25.906-1.207,39.393-19.1,44.426-41.439C2971.942,2954.885,2975.894,2921.416,2980.918,2890.625z M3892.126,995.128
	c-1.308-24.668-0.044-49.5-4.374-73.92c-3.916-22.088-1.742-45.838-8.812-67.26c-7.95-24.086-9.01-50.194-14.698-75.134
	c-5.952-26.098-14.554-51.766-22.768-77.224c-31.616-98.006-77.902-188.72-137.328-272.718
	c-60.352-85.308-133.38-156.936-215.782-220.796c-40.156-31.122-83.372-56.352-127.85-80.676
	c-23.842-13.04-48.03-24.134-73.204-34.33c-22.854-9.258-44.77-20.89-68.368-28.216c-98.352-30.534-199.68-48.396-302.684-52.09
	c-26.926-0.966-53.946-0.476-80.738,2.514c-24.396,2.724-51.232,2.656-74.682,10.148c-22.508,7.19-47.906,7.9-71.216,13.37
	c-24.854,5.832-49.984,11.206-74.472,18.44c-195.836,57.854-365.602,180.134-492.594,338.558
	c-64.892,80.954-115.488,174.202-151.728,271.244c-18.298,48.998-31.18,98.606-42.258,149.688
	c-5.534,25.51-7.218,51.174-11.208,76.882c-4,25.766-7.49,49.656-8.056,75.88c-0.6,27.81-1.938,55.722-1.232,83.54
	c0.618,24.314,4.016,48.518,5.002,72.852c0.462,11.41,1.826,22.414,5.652,33.232c3.826,10.82,4.226,21.91,6.026,33.336
	c4.018,25.508,10.402,50.35,16.446,75.428c12.114,50.276,30.922,97.776,48.304,146.36c8.328,23.28,22.91,45.916,34.422,67.938
	c11.928,22.818,24.588,45.302,38.114,67.214c53.804,87.17,126.396,168,204.688,233.906c39.672,33.396,82.826,64.442,127.89,90.148
	c42.576,24.286,86.548,48.318,132.71,64.99c22.976,8.298,44.998,18.906,68.328,26.26c24.624,7.76,49.644,14.226,74.738,20.266
	c25.096,6.042,50.328,11.764,75.914,15.328c13.354,1.86,26.662,2.632,40.092,3.576c10.976,0.77,20.726,5.326,31.782,6.012
	c100.542,6.254,200.716,1.094,298.51-22.48c48.97-11.806,99.652-24.27,146.622-42.632c22.81-8.916,45.344-21.512,67.782-31.684
	c22.974-10.414,44.734-23.172,66.604-35.696c86.536-49.55,168.438-115.018,233.49-190.758
	c65.46-76.214,122.68-158.244,165.31-249.586c21.736-46.574,36.46-94.644,54.166-142.682c17.46-47.366,26.354-101.26,32.804-151.188
	C3889.771,1094.396,3892.126,1044.25,3892.126,995.128C3890.65,967.258,3892.126,1005.63,3892.126,995.128z M2409.912,386.938
	c124.884-108.246,295.354-162.376,457.766-174.578c41.92-3.15,81.98,3.292,123.544,7.196c42.056,3.952,82.078,11.492,122.996,21.59
	c76.286,18.826,149.314,54.196,214.746,97.124c16.318,10.706,32.578,21.582,48.574,32.766c13.906,9.722,20.334,20.884,19.02,38.02
	c-2.824,36.79-17.258,74.438-34.564,106.668c-33.234,61.894-85.144,109.99-144,147.26
	c-137.796,87.258-312.856,108.888-470.752,71.998c-82.698-19.322-165.326-57.356-228.466-114.872
	c-30.96-28.204-58.662-60.788-77.856-98.194c-10.222-19.922-16.97-41.11-23.534-62.446
	C2409.874,435.062,2404.322,412.536,2409.912,386.938C2443.956,357.43,2409.912,386.938,2409.912,386.938z M3091.436,1161.444
	c-1.12,19.402-30.522,14.896-43.61,15.182c-24.286,0.532-48.572,1.068-72.856,1.6c-46.548,1.018-93.096,2.02-139.646,2.936
	c-21.67,0.428-43.354,0.628-65.018,1.268c-9.13,0.27-18.242,0.816-27.292-0.838c-8.962-1.638-7.802-0.952-10.542-8.586
	c-2.018-5.618-1.314-14.07-1.802-20.068c-3.738-45.932-2.168-92.72-2.736-138.792c-0.554-44.826-2.36-89.624-3.002-134.432
	c-0.118-8.178-1.93-19.24,4.956-25.228c4.954-4.308,14.216-3.696,20.398-3.98c24.5-1.122,49.11-1.086,73.632-1.614
	c47.036-1.012,94.072-2.014,141.108-3.01c22.018-0.466,44.034-0.93,66.052-1.394c16.764-0.354,48.91-9.288,55.028,11.558
	c3.062,10.43,0.93,23.788,1.018,34.506c0.1,12.206,0.202,24.414,0.324,36.62c0.262,26.316,0.608,52.63,1.156,78.94
	C3089.678,1057.568,3094.398,1110.042,3091.436,1161.444C3090.966,1169.58,3092.036,1151.02,3091.436,1161.444z M2339.23,1518.598
	c-16.596,2.824-33.976,11.99-50.152,2.932c-15.062-8.434-25.816-27.782-35.504-41.648c-23.196-33.192-45.66-68.048-63.956-104.2
	c-35.728-70.594-62.992-150.504-72.924-229.128c-5.326-42.158-13.296-84.342-12.706-126.992
	c0.576-41.728,4.482-85.052,10.104-126.402c11.07-81.418,38.034-164.89,75.646-237.844c17.992-34.898,38.18-69.466,60.6-101.722
	c10.436-15.014,19.076-24.294,37.71-23.158c20.128,1.228,40.52,3.452,60.102,8.37c75.162,18.876,140.628,70.092,186.188,131.342
	c96.638,129.918,128.562,304.34,104.704,462.492c-13.586,90.052-45.002,176.81-99.012,250.962
	C2491.72,1449.922,2421.57,1504.592,2339.23,1518.598C2331.496,1519.914,2388.45,1510.226,2339.23,1518.598z M3412.418,1624.558
	c-61.052,52.384-130.136,96.604-204.84,126.732c-38.52,15.534-76.94,27.31-116.696,39.188
	c-37.232,11.124-77.13,13.456-115.648,17.582c-42.94,4.6-83.628,6.656-126.712,2.258c-38.444-3.924-76.948-5.96-114.774-14.39
	c-79.352-17.684-157.968-47.86-228.144-88.898c-17.756-10.384-35.128-21.41-52.222-32.848c-3.166-2.12-6.322-4.254-9.472-6.402
	c-6.812-4.644-8.18-4.456-9.902-12.236c-2.286-10.336-0.896-23.216-0.258-33.622c2.336-38.138,15.562-74.774,33.28-108.346
	c35.238-66.766,93.348-118.606,158.702-155.192c70.702-39.58,151.082-65.236,231.678-73.416c42.828-4.348,86.16-4.672,129.162-3.494
	c18.656,0.512,37.398,1.768,55.63,5.968c8.914,2.054,17.49,5.688,26.512,7.22c10.712,1.82,21.414,1.886,32.064,4.468
	c42.194,10.228,83.334,28.688,122.098,47.898c34.76,17.226,66.576,39.946,94.804,66.512c29.94,28.178,56.616,59.16,74.032,96.608
	c9.062,19.484,17.298,39.394,23.296,60.052C3419.944,1587.188,3428.15,1611.062,3412.418,1624.558
	C3385.938,1647.28,3418.782,1619.1,3412.418,1624.558z M3695.156,1021.204c2.66,41.876-4.658,85.358-11.232,126.63
	c-6.282,39.446-16.862,78.066-29.482,115.922c-24.798,74.392-61.166,142.016-103.468,207.798
	c-8.78,13.654-16.784,24.35-34.152,23.27c-19.742-1.228-39.786-5.418-58.424-12.01c-32.578-11.526-63.466-28.828-90.956-49.692
	c-58.952-44.742-100.576-107.228-131.104-173.904c-33.99-74.236-51.578-154.12-53.308-235.558
	c-1.764-83.076,4.792-163.334,32.584-242.198c24.358-69.12,59.832-135.934,112.8-187.424c25.674-24.956,54.892-46.202,86.818-62.454
	c16.326-8.31,32.95-14.922,50.882-18.824c15.92-3.464,38.794-12.272,52.706-1.16c15.746,12.578,26.406,33.234,37.5,49.658
	c12.562,18.596,24.954,37.322,36.374,56.646c22,37.23,39.346,76.992,54.094,117.596c32.012,88.134,42.724,177.04,50.684,269.86
	C3692.876,1005.65,3694.9,1017.166,3695.156,1021.204C3697.444,1057.214,3694.826,1015.992,3695.156,1021.204z M2365.018,1091.658
	c-5.188,18.224-1.562,36.25-3.32,54.742c-1.85,19.468-7.088,42.902-17.58,59.606c-8.132,12.946-20.284,28.538-37.076,19.624
	c-16.048-8.52-29.594-30.056-41.832-43.3c9.458-4.026,12.276-5.026,22.216-2.632c6.496,1.564,14.134,4.73,20.568,0.956
	c12.774-7.49,15.082-33.962,15.38-46.948c0.172-7.53,1.678-15.252-8.112-13.376c-5.96,1.142-13.74,9.572-18.672,13.194
	c-15.868,11.656-31.4,24.346-49.006,33.316c-13.9,7.082-28.754,12.048-43.694,16.408c-5.624,1.642-14.15,6.036-20.218,4.638
	c-12.584-2.898-6.498-9.858-0.08-14.022c30.112-19.536,60.794-36.982,88.9-59.658c13.234-10.678,28.604-22.492,38.53-36.46
	c2.82-3.968,7.094-11.002,3.74-15.904c-4.424-6.464-13.738,0.308-18.572,4.208c-26.676,21.522-56.256,39.14-89.092,50.058
	c-6.184,2.056-16.432,4.522-23.072,2.144c-8.68-3.106-5.498-6.886,0.106-11.542c6.226-5.174,16.386-8.686,23.412-12.878
	c8.39-5.004,16.598-10.306,24.664-15.816c13.584-9.278,27.73-18.81,40.086-29.692c6.876-6.056,28.428-31.576,5.524-29.122
	c-14.102,1.51-28.292,14.018-40.77,19.868c-7.53,3.53-15.58,5.696-23.702,7.344c-4.512,0.916-22.546,6.234-26.68,2.968
	c-10.844-8.57,20.958-21.124,25.162-23.606c16.214-9.57,31.268-21.034,46.358-32.256c4.54-3.376,12.546-8.05,13.1-14.632
	c0.758-9.008-12.654-6.828-19.95-7.83c-7.646-1.05-23.374-8.096-15.772-17.594c3.962-4.952,19.852-5.348,26.214-6.648
	c9.716-1.988,19.434-3.966,29.156-5.914c20.04-4.014,40.69-9.602,61.08-11.14c9.48-0.714,35.506-2.974,35.964,12.392
	c0.428,14.398-31.17,16.292-41.03,18.724c-10.002,2.468-15.872,2.282-21.806,11.016c-4.622,6.802-9.242,13.606-13.864,20.408
	c-1.014,1.492-2.028,2.984-3.042,4.478c-4.424,3.34-4.044,6.17,1.142,8.49c1.368,2.4,6.248,6.016,7.992,7.686
	c5.842,5.596,15.032,17.744,23.756,18.006c12.368,0.37,31.074-22.326,39.376-30.504c10.364-10.206,19.458-30.784,36.31-30.436
	c12.144,0.252,32.618,17.556,28.474,30.712c-4.818,15.296-29.942,18.916-42.664,23.344c-9.384,3.266-17.744,8.512-25.97,13.982
	c-4.496,2.99-16.664,8.09-17.474,13.506c-1.368,9.13,40.356,29.394,47.936,34.044c17.63,10.814,35.072,20.618,55.064,26.346
	c18.264,5.234,38.19,5.318,56.042,11.538c5.124,1.784,19.952,7.438,15.44,15.99c-2.82,5.346-19.318,9.23-24.606,11.578
	c-15.94,7.076-33.054,12.506-50.52,7.808c-17.754-4.774-32.992-19.54-46.91-30.9
	C2396.286,1115.454,2381.05,1103.272,2365.018,1091.658C2360.67,1106.928,2374.308,1098.386,2365.018,1091.658z M2301.676,879.622
	c-9.102-16.866-18.204-33.73-27.306-50.596c15.786-8.546,34.626-3.154,49.288,5.486c13.862,8.166,13.932,19.802,21.542,31.994
	c3.3,5.286,2.92,4.664,10.386,4.904c3.912,0.126,7.618-0.066,11.518-0.462c10.24-1.038,20.48-2.83,30.66-4.342
	c16.754-2.488,37.51-9.896,54.346-6.47c13.702,2.788,28.55,14.902,36.942,25.78c12.104,15.688,8.356,25.292-9.658,31.094
	c-16.904,5.446-38.688,14.65-56.678,14.262c-8.602-0.184-10.096-2.92-7.648-11.264c2.692-9.176,9.25-18.746,13.468-27.3
	c-22.31-6.026-47.132-0.66-69.958,2.244c-23.336,2.97-46.486,6.96-69.612,11.24c-20.872,3.864-46.654,4.704-66.396,12.308
	c-7.29,2.808-7.666,4.43-11.924,11.344c-2.918,4.74-5.87,9.458-8.934,14.108c-5.258,7.98-11.116,20.88-21.642,22.746
	c-21.582,3.826-23.74-19.238-17.82-33.608c4.62-11.216,10.81-22.064,16.264-32.906c3.762-7.48,7.854-22.344,14.57-26.966
	c7.392-5.088,12.294,1.714,17.21,6.792c7.874,8.132,12.296,8.144,23.464,8.024C2256.638,887.79,2279.396,884.776,2301.676,879.622
	C2291.09,860.008,2270.894,886.744,2301.676,879.622z M2932.442,326.648c-0.696,6.792-4.424,21.83-0.324,25.152
	c5.086,4.12,20.272-1.198,25.642-2.292c17.796-3.628,34.024-9.4,51.366-0.75c13.348,6.658,16.744,14.764,12.946,28.898
	c-2.348,8.738-4.88,13.008,6.464,14.01c7.984,0.704,15.176-2.696,23.584-1.038c9.01,1.776,32.726,10.664,30.552,22.586
	c-2.8,15.356-38.842,9.418-49.354,9.31c-6.534-0.068-18.718-1.158-24.202,3.464c-5.108,4.302-9.592,19.34-9.484,25.758
	c0.262,15.534,12.362,32.458,22.83,42.704c40.802,39.936-56.33,30.384-45.448,50.786c1.86,3.488,15.612,6.712,18.446,7.828
	c8.608,3.392,17.322,6.536,25.836,10.164c14.53,6.192,27.606,14.378,35.718,28.406c7.604,13.152,6.53,31.366-12.68,28.272
	c-18.964-3.054-36.646-18.752-51.352-29.776c-11.928-8.942-29.816-28.912-45.89-30.154c-9.108-0.704-10.128,4.802-10.054,13.68
	c0.088,10.584,1.026,20.796-0.082,31.444c-1.676,16.116-2.552,40.112-18.556,49.156c-19.88,11.234-35.6-15.232-47.006-27.854
	c-5.566-6.158-15.532-15.282-5.866-20.918c6.902-4.024,16.338,0.804,23.624-0.514c19.378-3.502,11.436-37.02,8.68-50.462
	c-25.186,13.71-44.568,37.436-66.682,55.54c-10.824,8.86-22.272,12.73-35.1,5.252c-7.422-4.326-22.664-16.062-15.662-25.252
	c6.422-8.43,28.268-12.622,37.946-16.634c9.642-3.996,22.436-7.408,30.204-14.714c6.254-5.882,6.268-8.186,0.664-14.17
	c-4.926-5.26-9.896-10.458-14.938-15.604c-8.638-8.816-15.454-17.548-17.74-30.046c4.24-0.916,11.9-1.208,15.644-3.376
	c1.744-0.376,3.486-0.752,5.23-1.128c-0.568-3.756-1.134-7.514-1.702-11.27c0.5-7.078-0.868-7.292,6.294-10.798
	c3.716-1.82,7.754-2.454,11.774-3.172c9.058-1.614,58.584-4.144,45.17-24.434c-8.432-12.754-43.38,1.666-55.186,2.656
	c-5.328,0.446-10.678,0.58-16.022,0.4c-1.83-0.1-3.66-0.198-5.49-0.298c-4.986-2.31-7.36-0.752-7.124,4.674
	c-5.82,8.658-7.968,25.162-10.584,35.298c-10.732,41.57-26.058,77.384-52.204,111.864c-7.476,9.86-26.542,33.07-41.434,29.718
	c-15.332-3.452,16.086-36.518,20.448-43.538c23.186-37.33,40.404-80.392,49.58-123.314c4.438-20.752,6.424-41.694,8.342-62.796
	c1.71-18.794,8.976-41.652-4.464-57.864c-4.596-5.544-14.802-8.332-11.256-16.794c3.146-7.506,17.57-7.216,23.834-8.148
	c25.23-3.76,50.922-6.218,75.926-11.288c4.382-0.888,11.466-1.562,15.362-3.752c5.966-3.352,6.312-1.616,4.72-9.41
	c-1.538-7.526-6.114-13.624-9.722-20.216c-11.298-20.64,4.066-24.97,22.61-17.396c9.552,3.902,20.882,9.69,26.262,18.722
	c2.538,4.262,2.806,9.794,5.248,13.91c-0.178,4.776,2.122,7.062,6.896,6.86c3.43,0.832,6.906,1.212,10.434,1.144
	c11.848-0.424,21.84-7.82,33.742-9.094c10.272-1.1,22.978-2.524,32.592,1.864c6.44,2.938,19.142,10.632,15.92,19.296
	c-3.216,8.652-25.238,8.002-32.79,8.91C2980.848,318.956,2955.052,318.868,2932.442,326.648
	C2931.626,334.616,2936.292,325.324,2932.442,326.648z M2828.54,372.482c15.818-1.538,32.22-1.992,47.654-6.066
	c7.846-2.07,14.174-3.062,16.27-10.614c1.548-5.582-0.38-16.21-4.206-20.772c-8.65-10.314-32.628-1.566-44.158,0.868
	c-9.68,2.044-13.796,4.142-16.354,14.514C2825.966,357.626,2827.186,365.314,2828.54,372.482
	C2839.776,371.39,2826.252,360.372,2828.54,372.482z M2933.946,542.218c15.1-3.116,22.704-13.406,32.76-24.988
	c4.924-5.67,10.028-11.502,13.408-18.272c1.178-2.362,3.438-6.278,3.44-8.96c0.002-6.484,0.234-5.84-7.392-7.172
	c-11.538-2.016-35.71-1.958-41.544,10.286C2928.84,505.236,2933.742,529.048,2933.946,542.218
	C2939.23,541.128,2933.704,526.562,2933.946,542.218z M2828.42,385.842c-6.452,7.694-16.332,26.926-2.69,33.002
	c6.212,2.768,16.872-0.84,22.996-1.882c9.938-1.692,19.898-3.452,29.77-5.498c6.1-1.264,14.13-2.152,17.078-8.696
	c3.416-7.582-2.05-12.076-8.932-13.552c-8.024-1.722-18.19,1.036-26.382,1.166C2849.458,390.552,2838.6,389.762,2828.42,385.842
	C2825.986,388.744,2845.742,392.512,2828.42,385.842z M2899.056,542.466c0.068-10.284,1.078-20.566,0.666-30.85
	c-0.162-4.03,0.178-9.524-1.442-13.352c-3.002-7.092-3.492-5.33-11.462-5.068c-10.532,0.346-18.018,1.702-27.168,6.912
	c6.416,9.088,12.676,16.378,15.696,27.264c0.566,2.038,1.59,12.662,3.114,13.978C2881.098,543.624,2895.446,542.27,2899.056,542.466
	C2899.174,524.832,2891.19,542.038,2899.056,542.466z M2975.228,399.476c1.72-9.016,6.326-19.408-4.206-23.066
	c-5.642-1.958-33.37,2.406-37.976,6.55c-7.216,6.488-3.474,18.648,5.12,21.094C2948.148,406.896,2965.07,400.908,2975.228,399.476
	C2976.314,393.778,2964.012,401.056,2975.228,399.476z M2966.768,429.368c-14.296-3.658-39.164-0.176-34.514,19.34
	c3.302,13.86,11.48,7.764,22.708,4.918c7.962-2.02,6.204-1.846,8.984-8.496C2965.832,440.614,2965.904,434.184,2966.768,429.368
	C2953.586,425.996,2965.27,437.724,2966.768,429.368z M3001.736,1441.134c17.106,2.922,22.516-1.976,27.722-17.904
	c5.746-17.578,15.6-20.448,28.018-5.03c12.536,15.562-4.192,28.904-13.376,41.378c-3.786,5.144-11.788,15.82-8.264,20.208
	c4.34,5.404,17.454,8.21,23.506,12.104c12.266,7.89,19.23,21.374,13.898,35.876c-7.654,20.822-21.616,1.676-34.766-0.854
	c-17.644-3.394-31.652,8.584-46.612,15.384c-16.202,7.364-23.644-4.466-34.682-15.186c-3.962,4.242-10.06,14.372-16.336,14.844
	c-4.9,0.368-8.166-3.81-12.346-5.344c-2.996-1.1-12.178-3.564-13.244,1.932c-0.546,2.824,9.538,13.366,10.952,17.234
	c3.12,8.528,1.008,13.304,11.29,14.392c8.506,0.9,18.136-1.148,26.602-2.022c18.67-1.926,37.5-3.636,55.958-7.096
	c17.018-3.19,34.258-8.634,51.572-4.28c7.934,1.996,35.51,11.938,32.134,24.262c-3.592,13.112-30.178,12.69-39.718,12.782
	c-19.878,0.19-39.756,0.376-59.632,0.702c-18.956,0.312-38.322-0.418-57.2,1.442c-7.138,0.704-16.588,0.972-20.536,6.852
	c-4.812,7.17-2.562,19.324-2.328,27.514c0.542,18.868,0.656,37.742,1.292,56.612c0.556,16.462,2.438,36.842-9.922,50.32
	c-9.762,10.646-20.032,0.568-24.736-9.534c-8.248-17.714-1.114-37.772,0.726-56.204c1.762-17.65,1.296-35.418,0.278-53.096
	c-0.538-9.336-0.442-12.67-9.136-15.078c-9.382-2.598-23.164,0.698-32.56,2.422c-5.386,0.988-26.686,3.572-26.79,7.402
	c-0.156,5.812,6.566,6.526,10.278,9.048c15.262,10.364,9.94,25.244,0.796,37.956c-10.668,14.836-26.728,26.532-42.256,35.818
	c-15.864,9.486-32.53,20.624-51.246,15.894c4.906-12.076,14.658-18.966,23.966-28.07c10.556-10.328,20.798-21.006,30.124-32.47
	c4.376-5.38,19.922-23.516,11.96-31.832c-6.992-7.3-29.064,2.45-36.93,3.38c-11.786,1.392-22.434-2.126-32.198-8.608
	c-9.546-6.336-18.702-15.134-3.682-20.952c13.498-5.23,30.86-4.186,45.152-5.404c15.64-1.332,31.284-2.606,46.932-3.818
	c14.984-1.162,29.52-2.678,43.98-7.02c6.744-2.026,14.464-2.646,16.498-9.744c1.378-4.812-0.84-10.136-3.602-13.944
	c-3.088-4.258-8.556-8.414-13.868-9.1c-8.126-1.048-10.456,4.934-17.11,7.272c-11.308,3.976-20.282-7.172-33.078-3.602
	c-17.392,4.852-46.386,33.712-60.81,11.03c-8.51-13.384-1.18-19.026,7.648-28.034c8.796-8.974,13.212-21.416,20.038-31.78
	c-7.97-0.834-14.628,0.564-22.452,0.484c-6.974-0.07-4.306,2.752-9.668-3.234c-2.37-2.646-4.58-6.836-5.936-10.046
	c-6.87-16.26,11.566-27.516,19.906-39.994c9.518-14.242,16.242-30.138,21.258-46.466c3.848-12.526,7.108-31.032,24.612-23.966
	c17.016,6.868,19.53,21.56,10.72,35.15c-5.456,8.414-11.356,16.562-17.112,24.77c-3.562,5.08-14.056,15.358-14.678,21.608
	c-0.658,6.622,3.816,8.534,10.098,7.198c8.546-1.818,12.98-8.706,15.644-16.068c2.46-6.798,2.618-14.5,11.426-15.254
	c7.082-0.608,12.658,6.016,19.782,5.936c0.638-7.512-0.492-22.872,4.614-27.08c8.2-6.758,16.018-3.018,22.238-13.604
	c9.708-16.524,7.226-32.22,11.17-49.754c1.282-5.702,0.358-5.874,7.804-6.444c4.18-0.32,7.092-0.504,10.93,1.258
	c4.986,2.29,14.786,9.91,16.422,15.426c3.152,10.632-13.294,31.762-18.026,40.85c12.994,2.212,26.29-0.26,38.686,4.828
	c6.94,2.848,12.93,5.778,14.928,12.552c2.044,6.93,0.894,16.382,1.286,23.586c16.344-9.242,23.824-24.798,30.05-42.166
	c3.15-8.788,6.016-17.75,8.722-26.686c2.53-8.356,1.926-19.4,12.914-19.944c20.512-1.018,24.564,24.168,17.89,38.126
	C3020.928,1407.814,3006.43,1422.1,3001.736,1441.134C3016.514,1443.66,3002.562,1437.778,3001.736,1441.134z M2888.962,1459.336
	c9.846-0.66,31.878-3.71,33.87-12.976c0.99-4.6-3.17-17.58-5.994-19.188c-3.096-1.762-12.086-0.798-15.592-0.408
	C2882.71,1428.826,2885.648,1444.842,2888.962,1459.336C2893.898,1459.004,2882.154,1429.57,2888.962,1459.336z M2990.224,1479.398
	c-4.432-4.378-9.712-0.946-14.872-0.936c-3.74,0.006-11.744-4.178-15.036-2.788c-9.078,3.828-4.694,28.452-0.822,36.936
	C2975.116,1506.97,2985.004,1494.85,2990.224,1479.398C2985.102,1474.34,2985.012,1494.828,2990.224,1479.398z M2889.812,1509.958
	c8.184-1.722,23.286-1.876,30.082-7.612c6.112-5.158,6.466-17.06-0.704-21.274c-5.35-3.146-21.342-1.796-26.582,1.35
	C2882.792,1488.316,2888.3,1501,2889.812,1509.958C2899.906,1507.834,2888.612,1502.85,2889.812,1509.958z M2853.378,1464.374
	c-9.078,11.296-18.158,22.594-27.236,33.89c9.502,5.22,19.004,10.442,28.508,15.662
	C2860.126,1497.462,2857.492,1480.814,2853.378,1464.374C2842.662,1477.706,2858.188,1483.596,2853.378,1464.374z
	 M2813.516,1528.416c1.718-3.498,4.952-9.724-2.632-9.544C2801.936,1519.086,2811.714,1527.238,2813.516,1528.416
	C2814.774,1525.856,2810.648,1526.54,2813.516,1528.416z M3024.74,1498.408C3017.198,1495.028,3017.498,1501.752,3024.74,1498.408
	C3023.266,1497.748,3023.266,1499.09,3024.74,1498.408z M2961.394,1619.204c11.202-7.15,21.926-3.134,33.258,1.106
	c14.01,5.242,28.912,10.856,41.75,18.62c18.096,10.944,39.07,35.996,30.22,58.482c-10.388,26.39-42.384-9.392-52.18-19.268
	C2995.976,1659.524,2976.564,1640.55,2961.394,1619.204C2972.77,1611.942,2965.478,1624.952,2961.394,1619.204z M3386.926,941.638
	c4.138-8.524,10.578-10.334,19.208-9.482c12.31,1.214,22.956,3.594,35.476,1.762c7.45-1.09,15.294-2.658,18.924-10.032
	c3.946-8.014,1.564-24.174-4.142-30.516c-8.016-8.91-19.044-3.574-29.194-2.896c-10.41,0.696-20.44-1.866-29.078-7.796
	c-2.198-1.51-9.876-6.466-10.262-9.21c-0.772-5.482,2.71-4.798,6.962-6.504c11.516-4.62,24.156-4.744,36.28-6.556
	c25.044-3.746,49.596-10.034,74.382-15.112c25.054-5.134,50.642-7.578,75.096-15.334c13.4-4.25,42.568,1.392,46.84,18.602
	c1.784,7.186-0.258,7.224-7.058,9.22c-4.64,1.36-9.186,2.254-13.96,3.026c-12.726,2.056-25.534,3.536-38.316,5.18
	c-10.13,1.302-17.65,2.926-22.52,12.656c-4.098,8.186-7.282,24.166-2.762,32.56c3.246,6.03,4.618,4.856,11.31,3.122
	c5.378-1.394,10.406-3.698,15.748-5.146c10.434-2.83,20.778-1.768,30.656,2.554c8.178,3.578,18.888,9.492,23.33,17.596
	c5.442,9.926-0.044,23.568-1.144,34.124c-2.906,27.872-1.042,55.438,0.726,83.294c1.678,26.418,2.236,52.996,2.48,79.464
	c0.112,12.196-9.558,51.564-29.494,42.002c-8.822-4.23-9.48-15.76-14.9-22.508c-5.59-6.96-13.788-7.596-22.096-7.146
	c-25.774,1.402-51.556,5.258-77.326,7.16c-13.31,0.982-26.786,1.224-40.046,2.71c-5.432,0.608-10.922,1.476-15.72,4.288
	c-4.126,2.418-6.804,7.052-11.55,8.154c-11.088,2.576-19.242-12.238-22.024-20.872c-3.388-10.518-1.858-24.448-0.02-35.18
	c4.762-27.818,7.032-53.736,4.976-82.078C3395.754,995.834,3400.938,966.15,3386.926,941.638
	C3392.044,931.096,3398.576,962.018,3386.926,941.638z M3490.132,951.482c-4.488,24.08-8.706,47.898-23.994,67.874
	c-12.25,16.006-35.648,23.408-38.7,45.026c-1.736,12.306-1.386,26.962-0.52,39.352c0.166,2.386,0.706,13.826,2.368,15.506
	c2.826,2.858,16.236,0.54,19.696,0.182c30.408-3.146,60.61-7.538,91.094-10.25c11.958-1.064,32.04,0.928,42.64-5.224
	c4.47,0.202,6.214-1.982,5.23-6.554c0.464-3.558,0.836-7.124,1.112-10.702c0.552-7.102,0.748-14.236,0.556-21.356
	c-0.25-9.256,0.812-26.038-6.968-30.694c-10.726-6.42-28.474-4.064-40.496-7.55c-18.596-5.392-28.788-17.438-31.142-36.51
	c-1.208-9.8,2.864-27.02-1.984-35.68C3504.934,947.586,3497.52,949.962,3490.132,951.482
	C3488.424,960.65,3506.172,948.182,3490.132,951.482z M3541.364,945.402c-1.178,12.252-8.1,34.68-0.424,45.652
	c6.188,8.844,26.776,9.94,36.002,6.594c14.04-5.096,7.368-24.448,5.484-35.738c-1.626-9.744-2.182-17.624-12.586-19.976
	C3560.004,939.712,3550.424,940.824,3541.364,945.402C3540.296,956.506,3553.888,939.074,3541.364,945.402z M3432.464,964.396
	c-2.292,16.408-5.066,31.838,1.742,47.4c8.588-8.636,18.172-18.704,19.44-31.434c0.402-4.03,0.388-10.912-1.646-14.526
	c-2.874-5.108-1.354-3.124-7.69-3.212C3440.612,962.574,3436.046,963.86,3432.464,964.396
	C3428.366,993.732,3439.396,963.36,3432.464,964.396z M3504.156,873.004c-5.748,7.422-27.036,48.988-7.214,51.858
	C3516.398,927.68,3506.304,881.686,3504.156,873.004C3492.266,888.352,3508.682,891.304,3504.156,873.004z M3369.506,971.06
	c12.632,13.988,4.328,29.532-0.936,44.898c-6.726,19.64-13.698,39.194-20.556,58.788c-6.636,18.96-12.734,37.906-18.17,57.242
	c-4.016,14.282-15.588,29.64-29.45,13.73c-7.628-8.756-11.486-26.476-10.692-37.678c1.256-17.714,15.864-27.132,25.968-40.076
	C3338.694,1038.466,3349.014,1002.006,3369.506,971.06C3379.598,982.236,3364.102,979.222,3369.506,971.06z M3371.252,890.762
	c-17.57,8.146-29.254-2.17-40.384-15.262c-5.662-6.66-33.318-34.778-17.24-42.446c10.706-5.106,41.578,9.91,50.228,16.518
	C3377.358,859.886,3378.126,876.084,3371.252,890.762C3359.412,896.252,3379.442,873.274,3371.252,890.762z M3342.698,961.118
	c-0.62,18.722-18.254,20.84-31.222,12.078c-7.948-5.37-13.988-12.792-19.874-20.248c-4.166-5.276-14.182-14.57-15.066-21.434
	c-2.416-18.77,30.47-6.588,38.464-3.728C3331.244,933.596,3343.984,942.394,3342.698,961.118
	C3342.206,975.982,3343.39,951.034,3342.698,961.118z M3474.23,1091.478c-8.146,0-25.88,2.854-30.592-6.692
	c-5.65-11.446,12.584-15.166,19.644-17.198c13.082-3.764,26.824-5.538,40.252-7.68c12.61-2.01,26.618-5.652,39.416-5.476
	c6.66,0.092,21.622,1.418,23.652,9.67c2.42,9.83-11.878,12.992-18.294,15.082C3524.364,1086.982,3499.468,1091.596,3474.23,1091.478
	C3468.13,1091.478,3501.482,1091.606,3474.23,1091.478z"/>
</svg>
