<svg xmlns="http://www.w3.org/2000/svg" viewBox="0 0 1000 1000"><path d="M996.063 491.406c-.654-12.334-.022-24.75-2.187-36.96-1.958-11.044-.871-22.919-4.406-33.63-3.975-12.043-4.505-25.097-7.349-37.567-2.976-13.049-7.277-25.883-11.384-38.612-15.808-49.003-38.951-94.36-68.664-136.359-30.176-42.654-66.69-78.468-107.891-110.398-20.078-15.561-41.686-28.176-63.925-40.338-11.921-6.52-24.015-12.067-36.602-17.165-11.427-4.629-22.385-10.445-34.184-14.108C610.295 11.002 559.631 2.071 508.129.224c-13.463-.483-26.973-.238-40.369 1.257-12.198 1.362-25.616 1.328-37.341 5.074-11.254 3.595-23.953 3.95-35.608 6.685-12.427 2.916-24.992 5.603-37.236 9.22-97.918 28.927-182.801 90.067-246.297 169.279-32.446 40.477-57.744 87.101-75.864 135.622-9.149 24.499-15.59 49.303-21.129 74.844-2.767 12.755-3.609 25.587-5.604 38.441-2 12.883-3.745 24.828-4.028 37.94-.3 13.905-.969 27.861-.616 41.77.309 12.157 2.008 24.259 2.501 36.426.231 5.705.913 11.207 2.826 16.616 1.913 5.41 2.113 10.955 3.013 16.668 2.009 12.754 5.201 25.175 8.223 37.714 6.057 25.138 15.461 48.888 24.152 73.18 4.164 11.64 11.455 22.958 17.211 33.969 5.964 11.409 12.294 22.651 19.057 33.607 26.902 43.585 63.198 84 102.344 116.953 19.836 16.698 41.413 32.221 63.945 45.074 21.288 12.143 43.274 24.159 66.355 32.495 11.488 4.149 22.499 9.453 34.164 13.13 12.312 3.88 24.822 7.113 37.369 10.133 12.548 3.021 25.164 5.882 37.957 7.664 6.677.93 13.331 1.316 20.046 1.788 5.488.385 10.363 2.663 15.891 3.006 50.271 3.127 100.358.547 149.255-11.24 24.485-5.903 49.826-12.135 73.311-21.316 11.405-4.458 22.672-10.756 33.891-15.842 11.487-5.207 22.367-11.586 33.302-17.848 43.268-24.775 84.219-57.509 116.745-95.379 32.73-38.107 61.34-79.122 82.655-124.793 10.868-23.287 18.23-47.322 27.083-71.341 8.73-23.683 13.177-50.63 16.402-75.594 3.15-24.386 4.328-49.459 4.328-74.02-.738-13.935 0 5.251 0 0zM254.956 187.311c62.442-54.123 147.677-81.188 228.883-87.289 20.96-1.575 40.99 1.646 61.772 3.598 21.028 1.976 41.039 5.746 61.498 10.795 38.143 9.413 74.657 27.098 107.373 48.562 8.159 5.353 16.289 10.791 24.287 16.383 6.953 4.861 10.167 10.442 9.51 19.01-1.412 18.395-8.629 37.219-17.282 53.334-16.617 30.947-42.572 54.995-72 73.63-68.898 43.629-156.428 54.444-235.376 35.999-41.349-9.661-82.663-28.678-114.233-57.436-15.48-14.102-29.331-30.394-38.928-49.097-5.111-9.961-8.485-20.555-11.767-31.223-3.756-12.204-6.532-23.467-3.737-36.266 17.022-14.754 0 0 0 0zm340.762 387.253c-.56 9.701-15.261 7.448-21.805 7.591l-36.428.8c-23.274.509-46.548 1.01-69.823 1.468-10.835.214-21.677.314-32.509.634-4.565.135-9.121.408-13.646-.419-4.481-.819-3.901-.476-5.271-4.293-1.009-2.809-.657-7.035-.901-10.034-1.869-22.966-1.084-46.36-1.368-69.396-.277-22.413-1.18-44.812-1.501-67.216-.059-4.089-.965-9.62 2.478-12.614 2.477-2.154 7.108-1.848 10.199-1.99 12.25-.561 24.555-.543 36.816-.807a207552.703 207552.703 0 0 1 103.58-2.202c8.382-.177 24.455-4.644 27.514 5.779 1.531 5.215.465 11.894.509 17.253.05 6.103.101 12.207.162 18.31.131 13.158.304 26.315.578 39.47.537 25.728 2.897 51.965 1.416 77.666-.235 4.068.3-5.212 0 0zM219.615 753.141c-8.298 1.412-16.988 5.995-25.076 1.466-7.531-4.217-12.908-13.891-17.752-20.824-11.598-16.596-22.83-34.024-31.978-52.1-17.864-35.297-31.496-75.252-36.462-114.564-2.663-21.079-6.648-42.171-6.353-63.496.288-20.864 2.241-42.526 5.052-63.201 5.535-40.709 19.017-82.445 37.823-118.922 8.996-17.449 19.09-34.733 30.3-50.861 5.218-7.507 9.538-12.147 18.855-11.579 10.064.614 20.26 1.726 30.051 4.185 37.581 9.438 70.314 35.046 93.094 65.671 48.319 64.959 64.281 152.17 52.352 231.246-6.793 45.026-22.501 88.405-49.506 125.481-24.155 33.16-59.23 60.495-100.4 67.498-3.867.658 24.61-4.186 0 0zm536.594 52.98c-30.526 26.192-65.068 48.302-102.42 63.366-19.26 7.767-38.47 13.655-58.348 19.594-18.616 5.562-38.565 6.728-57.824 8.791-21.47 2.3-41.814 3.328-63.356 1.129-19.222-1.962-38.474-2.98-57.387-7.195-39.676-8.842-78.984-23.93-114.072-44.449-8.878-5.192-17.564-10.705-26.111-16.424a677.413 677.413 0 0 1-4.736-3.201c-3.406-2.322-4.09-2.228-4.951-6.118-1.143-5.168-.448-11.608-.129-16.811 1.168-19.069 7.781-37.387 16.64-54.173 17.619-33.383 46.674-59.303 79.351-77.596 35.351-19.79 75.541-32.618 115.839-36.708 21.414-2.174 43.08-2.336 64.581-1.747 9.328.256 18.699.884 27.815 2.984 4.457 1.027 8.745 2.844 13.256 3.61 5.356.91 10.707.943 16.032 2.234 21.097 5.114 41.667 14.344 61.049 23.949 17.38 8.613 33.288 19.973 47.402 33.256 14.97 14.089 28.308 29.58 37.016 48.304 4.531 9.742 8.649 19.697 11.648 30.026 2.468 8.494 6.571 20.431-1.295 27.179-13.24 11.361 3.182-2.729 0 0zm141.369-301.677c1.33 20.938-2.329 42.679-5.616 63.315-3.141 19.723-8.431 39.033-14.741 57.961-12.399 37.196-30.583 71.008-51.734 103.899-4.39 6.827-8.392 12.175-17.076 11.635-9.871-.614-19.893-2.709-29.212-6.005-16.289-5.763-31.733-14.414-45.478-24.846-29.476-22.371-50.288-53.614-65.552-86.952-16.995-37.118-25.789-77.06-26.654-117.779-.882-41.538 2.396-81.667 16.292-121.099 12.179-34.56 29.916-67.967 56.4-93.712 12.837-12.478 27.446-23.101 43.409-31.227 8.163-4.155 16.475-7.461 25.441-9.412 7.96-1.732 19.397-6.136 26.353-.58 7.873 6.289 13.203 16.617 18.75 24.829 6.281 9.298 12.477 18.661 18.187 28.323 11 18.615 19.673 38.496 27.047 58.798 16.006 44.067 21.362 88.52 25.342 134.93-2.298.145-1.286 5.903-1.158 7.922 1.144 18.005-.165-2.606 0 0zm-665.069 35.227c-2.594 9.112-.781 18.125-1.66 27.371-.925 9.734-3.544 21.451-8.79 29.803-4.066 6.473-10.142 14.269-18.538 9.812-8.024-4.26-14.797-15.028-20.916-21.65 4.729-2.013 6.138-2.513 11.108-1.316 3.248.782 7.067 2.365 10.284.478 6.387-3.745 7.541-16.981 7.69-23.474.086-3.765.839-7.626-4.056-6.688-2.98.571-6.87 4.786-9.336 6.597-7.934 5.828-15.7 12.173-24.503 16.658-6.95 3.541-14.377 6.024-21.847 8.204-2.812.821-7.075 3.018-10.109 2.319-6.292-1.449-3.249-4.929-.04-7.011 15.056-9.768 30.397-18.491 44.45-29.829 6.617-5.339 14.302-11.246 19.265-18.23 1.41-1.984 3.547-5.501 1.87-7.952-2.212-3.232-6.869.154-9.286 2.104-13.338 10.761-28.128 19.57-44.546 25.029-3.092 1.028-8.216 2.261-11.536 1.072-4.34-1.553-2.749-3.443.053-5.771 3.113-2.587 8.193-4.343 11.706-6.439a238.183 238.183 0 0 0 12.332-7.908c6.792-4.639 13.865-9.405 20.043-14.846 3.438-3.028 14.214-15.788 2.762-14.561-7.051.755-14.146 7.009-20.385 9.934-3.765 1.765-7.79 2.848-11.851 3.672-2.256.458-11.273 3.117-13.34 1.484-5.422-4.285 10.479-10.562 12.581-11.803 8.107-4.785 15.634-10.517 23.179-16.128 2.27-1.688 6.273-4.025 6.55-7.316.379-4.504-6.327-3.414-9.975-3.915-3.823-.525-11.687-4.048-7.886-8.797 1.981-2.476 9.926-2.674 13.107-3.324 4.858-.994 9.717-1.983 14.578-2.957 10.02-2.007 20.345-4.801 30.54-5.57 4.74-.357 17.753-1.487 17.982 6.196.214 7.199-15.585 8.146-20.515 9.362-5.001 1.234-7.936 1.141-10.903 5.508l-6.932 10.204-1.521 2.239c-2.212 1.67-2.022 3.085.571 4.245.684 1.2 3.124 3.008 3.996 3.843 2.921 2.798 7.516 8.872 11.878 9.003 6.184.185 15.537-11.163 19.688-15.252 5.182-5.103 9.729-15.392 18.155-15.218 6.072.126 16.309 8.778 14.237 15.356-2.409 7.648-14.971 9.458-21.332 11.672-4.692 1.633-8.872 4.256-12.985 6.991-2.248 1.495-8.332 4.045-8.737 6.753-.684 4.565 20.178 14.697 23.968 17.022 8.815 5.407 17.536 10.309 27.532 13.173 9.132 2.617 19.095 2.659 28.021 5.769 2.562.892 9.976 3.719 7.72 7.995-1.41 2.673-9.659 4.615-12.303 5.789-7.97 3.538-16.527 6.253-25.26 3.904-8.877-2.387-16.496-9.77-23.455-15.45-7.669-6.258-15.287-12.349-23.303-18.156-2.174 7.635 4.645 3.364 0 0zm-31.671-106.018l-13.653-25.298c7.893-4.273 17.313-1.577 24.644 2.743 6.931 4.083 6.966 9.901 10.771 15.997 1.65 2.643 1.46 2.332 5.193 2.452 1.956.063 3.809-.033 5.759-.231 5.12-.519 10.24-1.415 15.33-2.171 8.377-1.244 18.755-4.948 27.173-3.235 6.851 1.394 14.275 7.451 18.471 12.89 6.052 7.844 4.178 12.646-4.829 15.547-8.452 2.723-19.344 7.325-28.339 7.131-4.301-.092-5.048-1.46-3.824-5.632 1.346-4.588 4.625-9.373 6.734-13.65-11.155-3.013-23.566-.33-34.979 1.122-11.668 1.485-23.243 3.48-34.806 5.62-10.436 1.932-23.327 2.352-33.198 6.154-3.645 1.404-3.833 2.215-5.962 5.672a271.012 271.012 0 0 1-4.467 7.054c-2.629 3.99-5.558 10.44-10.821 11.373-10.791 1.913-11.87-9.619-8.91-16.804 2.31-5.608 5.405-11.032 8.132-16.453 1.881-3.74 3.927-11.172 7.285-13.483 3.696-2.544 6.147.857 8.605 3.396 3.937 4.066 6.148 4.072 11.732 4.012 11.44-.122 22.819-1.629 33.959-4.206-5.293-9.807-15.391 3.561 0 0zm315.383-276.487c-.348 3.396-2.212 10.915-.162 12.576 2.543 2.06 10.136-.599 12.821-1.146 8.898-1.814 17.012-4.7 25.683-.375 6.674 3.329 8.372 7.382 6.473 14.449-1.174 4.369-2.44 6.504 3.232 7.005 3.992.352 7.588-1.348 11.792-.519 4.505.888 16.363 5.332 15.276 11.293-1.4 7.678-19.421 4.709-24.677 4.655-3.267-.034-9.359-.579-12.101 1.732-2.554 2.151-4.796 9.67-4.742 12.879.131 7.767 6.181 16.229 11.415 21.352 20.401 19.968-28.165 15.192-22.724 25.393.93 1.744 7.806 3.356 9.223 3.914 4.304 1.696 8.661 3.268 12.918 5.082 7.265 3.096 13.803 7.189 17.859 14.203 3.802 6.576 3.265 15.683-6.34 14.136-9.482-1.527-18.323-9.376-25.676-14.888-5.964-4.471-14.908-14.456-22.945-15.077-4.554-.352-5.064 2.401-5.027 6.84.044 5.292.513 10.398-.041 15.722-.838 8.058-1.276 20.056-9.278 24.578-9.94 5.617-17.8-7.616-23.503-13.927-2.783-3.079-7.766-7.641-2.933-10.459 3.451-2.012 8.169.402 11.812-.257 9.689-1.751 5.718-18.51 4.34-25.231-12.593 6.855-22.284 18.718-33.341 27.77-5.412 4.43-11.136 6.365-17.55 2.626-3.711-2.163-11.332-8.031-7.831-12.626 3.211-4.215 14.134-6.311 18.973-8.317 4.821-1.998 11.218-3.704 15.102-7.357 3.127-2.941 3.134-4.093.332-7.085a478.236 478.236 0 0 0-7.469-7.802c-4.319-4.408-7.727-8.774-8.87-15.023 2.12-.458 5.95-.604 7.822-1.688l2.615-.564-.851-5.635c.25-3.539-.434-3.646 3.147-5.399 1.858-.91 3.877-1.227 5.887-1.586 4.529-.807 29.292-2.072 22.585-12.217-4.216-6.377-21.69.833-27.593 1.328-2.664.223-5.339.29-8.011.2l-2.745-.149c-2.493-1.155-3.68-.376-3.562 2.337-2.91 4.329-3.984 12.581-5.292 17.649-5.366 20.785-13.029 38.692-26.102 55.932-3.738 4.93-13.271 16.535-20.717 14.859-7.666-1.726 8.043-18.259 10.224-21.769 11.593-18.665 20.202-40.196 24.79-61.657 2.219-10.376 3.212-20.847 4.171-31.398.855-9.397 4.488-20.826-2.232-28.932-2.298-2.772-7.401-4.166-5.628-8.397 1.573-3.753 8.785-3.608 11.917-4.074 12.615-1.88 25.461-3.109 37.963-5.644 2.191-.444 5.733-.781 7.681-1.876 2.983-1.676 3.156-.808 2.36-4.705-.769-3.763-3.057-6.812-4.861-10.108-5.649-10.32 2.033-12.485 11.305-8.698 4.776 1.951 10.441 4.845 13.131 9.361 1.269 2.131 1.403 4.897 2.624 6.955-.089 2.388 1.061 3.531 3.448 3.43 1.715.416 3.453.606 5.217.572 5.924-.212 10.92-3.91 16.871-4.547 5.136-.55 11.489-1.262 16.296.932 3.22 1.469 9.571 5.316 7.96 9.648-1.608 4.326-12.619 4.001-16.395 4.455-11.863 1.423-24.761 1.379-36.066 5.269-.408 3.984 1.925-.662 0 0zm-51.951 22.917c7.909-.769 16.11-.996 23.827-3.033 3.923-1.035 7.087-1.531 8.135-5.307.774-2.791-.19-8.105-2.103-10.386-4.325-5.157-16.314-.783-22.079.434-4.84 1.022-6.898 2.071-8.177 7.257-.89 3.607-.28 7.451.397 11.035 5.618-.546-1.144-6.055 0 0zm52.703 84.868c7.55-1.558 11.352-6.703 16.38-12.494 2.462-2.835 5.014-5.751 6.704-9.136.589-1.181 1.719-3.139 1.72-4.48.001-3.242.117-2.92-3.696-3.586-5.769-1.008-17.855-.979-20.772 5.143-2.889 6.062-.438 17.968-.336 24.553 2.642-.545-.121-7.828 0 0zm-52.763-78.188c-3.226 3.847-8.166 13.463-1.345 16.501 3.106 1.384 8.436-.42 11.498-.941 4.969-.846 9.949-1.726 14.885-2.749 3.05-.632 7.065-1.076 8.539-4.348 1.708-3.791-1.025-6.038-4.466-6.776-4.012-.861-9.095.518-13.191.583-5.401.085-10.83-.31-15.92-2.27-1.217 1.451 8.661 3.335 0 0zm35.318 78.312c.034-5.142.539-10.283.333-15.425-.081-2.015.089-4.762-.721-6.676-1.501-3.546-1.746-2.665-5.731-2.534-5.266.173-9.009.851-13.584 3.456 3.208 4.544 6.338 8.189 7.848 13.632.283 1.019.795 6.331 1.557 6.989 1.319 1.137 8.493.46 10.298.558.059-8.817-3.933-.214 0 0zm38.086-71.495c.86-4.508 3.163-9.704-2.103-11.533-2.821-.979-16.685 1.203-18.988 3.275-3.608 3.244-1.737 9.324 2.56 10.547 4.991 1.421 13.452-1.573 18.531-2.289.543-2.849-5.608.79 0 0zm-4.23 14.946c-7.148-1.829-19.582-.088-17.257 9.67 1.651 6.93 5.74 3.882 11.354 2.459 3.981-1.01 3.102-.923 4.492-4.248.943-2.258.979-5.473 1.411-7.881-6.591-1.686-.749 4.178 0 0zm17.484 505.883c8.553 1.461 11.258-.988 13.861-8.952 2.873-8.789 7.8-10.224 14.009-2.515 6.268 7.781-2.096 14.452-6.688 20.689-1.893 2.572-5.894 7.91-4.132 10.104 2.17 2.702 8.727 4.105 11.753 6.052 6.133 3.945 9.615 10.687 6.949 17.938-3.827 10.411-10.808.838-17.383-.427-8.822-1.697-15.826 4.292-23.306 7.692-8.101 3.682-11.822-2.233-17.341-7.593-1.981 2.121-5.03 7.186-8.168 7.422-2.45.184-4.083-1.905-6.173-2.672-1.498-.55-6.089-1.782-6.622.966-.273 1.412 4.769 6.683 5.476 8.617 1.56 4.264.504 6.652 5.645 7.196 4.253.45 9.068-.574 13.301-1.011 9.335-.963 18.75-1.818 27.979-3.548 8.509-1.595 17.129-4.317 25.786-2.14 3.967.998 17.755 5.969 16.067 12.131-1.796 6.556-15.089 6.345-19.859 6.391-9.939.095-19.878.188-29.816.351-9.478.156-19.161-.209-28.6.721-3.569.352-8.294.486-10.268 3.426-2.406 3.585-1.281 9.662-1.164 13.757.271 9.434.328 18.871.646 28.306.278 8.231 1.219 18.421-4.961 25.16-4.881 5.323-10.016.284-12.368-4.767-4.124-8.857-.557-18.886.363-28.102.881-8.825.648-17.709.139-26.548-.269-4.668-.221-6.335-4.568-7.539-4.691-1.299-11.582.349-16.28 1.211-2.693.494-13.343 1.786-13.395 3.701-.078 2.906 3.283 3.263 5.139 4.524 7.631 5.182 4.97 12.622.398 18.978-5.334 7.418-13.364 13.266-21.128 17.909-7.932 4.743-16.265 10.312-25.623 7.947 2.453-6.038 7.329-9.483 11.983-14.035 5.278-5.164 10.399-10.503 15.062-16.235 2.188-2.69 9.961-11.758 5.98-15.916-3.496-3.65-14.532 1.225-18.465 1.69-5.893.696-11.217-1.063-16.099-4.304-4.773-3.168-9.351-7.567-1.841-10.476 6.749-2.615 15.43-2.093 22.576-2.702 7.82-.666 15.642-1.303 23.466-1.909 7.492-.581 14.76-1.339 21.99-3.51 3.372-1.013 7.232-1.323 8.249-4.872.689-2.406-.42-5.068-1.801-6.972-1.544-2.129-4.278-4.207-6.934-4.55-4.063-.524-5.228 2.467-8.555 3.636-5.654 1.988-10.141-3.586-16.539-1.801-8.696 2.426-23.193 16.856-30.405 5.515-4.255-6.692-.59-9.513 3.824-14.017 4.398-4.487 6.606-10.708 10.019-15.89-3.985-.417-7.314.282-11.226.242-3.487-.035-2.153 1.376-4.834-1.617-1.185-1.323-2.29-3.418-2.968-5.023-3.435-8.13 5.783-13.758 9.953-19.997 4.759-7.121 8.121-15.069 10.629-23.233 1.924-6.263 3.554-15.516 12.306-11.983 8.508 3.434 9.765 10.78 5.36 17.575-2.728 4.207-5.678 8.281-8.556 12.385-1.781 2.54-7.028 7.679-7.339 10.804-.329 3.311 1.908 4.267 5.049 3.599 4.273-.909 6.49-4.353 7.822-8.034 1.23-3.399 1.309-7.25 5.713-7.627 3.541-.304 6.329 3.008 9.891 2.968.319-3.756-.246-11.436 2.307-13.54 4.1-3.379 8.009-1.509 11.119-6.802 4.854-8.262 3.613-16.11 5.585-24.877.641-2.851.179-2.937 3.902-3.222 2.09-.16 3.546-.252 5.465.629 2.493 1.145 7.393 4.955 8.211 7.713 1.576 5.316-6.647 15.881-9.013 20.425 6.497 1.106 13.145-.13 19.343 2.414 3.47 1.424 6.465 2.889 7.464 6.276 1.022 3.465.447 8.191.643 11.793 8.172-4.621 11.912-12.399 15.025-21.083 1.575-4.394 3.008-8.875 4.361-13.343 1.265-4.178.963-9.7 6.457-9.972 10.256-.509 12.282 12.084 8.945 19.063-4.196 8.78-11.445 15.923-13.792 25.44 7.389 1.263.413-1.678 0 0zm-56.387 9.101c4.923-.33 15.939-1.855 16.935-6.488.495-2.3-1.585-8.79-2.997-9.594-1.548-.881-6.043-.399-7.796-.204-9.268 1.031-7.799 9.039-6.142 16.286 2.468-.166-3.404-14.883 0 0zm50.631 10.031c-2.216-2.189-4.856-.473-7.436-.468-1.87.003-5.872-2.089-7.518-1.394-4.539 1.914-2.347 14.226-.411 18.468 7.811-2.82 12.755-8.88 15.365-16.606-2.561-2.529-2.606 7.715 0 0zm-50.206 15.28c4.092-.861 11.643-.938 15.041-3.806 3.056-2.579 3.233-8.53-.352-10.637-2.675-1.573-10.671-.898-13.291.675-4.908 2.947-2.154 9.289-1.398 13.768 5.047-1.062-.6-3.554 0 0zm-18.217-22.792l-13.618 16.945 14.254 7.831c2.738-8.232 1.421-16.556-.636-24.776-5.358 6.666 2.405 9.611 0 0zm-19.931 32.021c.859-1.749 2.476-4.862-1.316-4.772-4.474.107.415 4.183 1.316 4.772.629-1.28-1.434-.938 0 0zm105.612-15.004c-3.771-1.69-3.621 1.672 0 0-.737-.33-.737.341 0 0zm-31.673 60.398c5.601-3.575 10.963-1.567 16.629.553 7.005 2.621 14.456 5.428 20.875 9.31 9.048 5.472 19.535 17.998 15.11 29.241-5.194 13.195-21.192-4.696-26.09-9.634-9.233-9.31-18.939-18.797-26.524-29.47 5.688-3.631 2.042 2.874 0 0zm212.766-338.783c2.069-4.262 5.289-5.167 9.604-4.741 6.155.607 11.478 1.797 17.738.881 3.725-.545 7.647-1.329 9.462-5.016 1.973-4.007.782-12.087-2.071-15.258-4.008-4.455-9.522-1.787-14.597-1.448-5.205.348-10.22-.933-14.539-3.898-1.099-.755-4.938-3.233-5.131-4.605-.386-2.741 1.355-2.399 3.481-3.252 5.758-2.31 12.078-2.372 18.14-3.278 12.522-1.873 24.798-5.017 37.191-7.556 12.527-2.567 25.321-3.789 37.548-7.667 6.7-2.125 21.284.696 23.42 9.301.892 3.593-.129 3.612-3.529 4.61-2.32.68-4.593 1.127-6.98 1.513-6.363 1.028-12.767 1.768-19.158 2.59-5.065.651-8.825 1.463-11.26 6.328-2.049 4.093-3.641 12.083-1.381 16.28 1.623 3.015 2.309 2.428 5.655 1.561 2.689-.697 5.203-1.849 7.874-2.573 5.217-1.415 10.389-.884 15.328 1.277 4.089 1.789 9.444 4.746 11.665 8.798 2.721 4.963-.022 11.784-.572 17.062-1.453 13.936-.521 27.719.363 41.647.839 13.209 1.118 26.498 1.24 39.732.056 6.098-4.779 25.782-14.747 21.001-4.411-2.115-4.74-7.88-7.45-11.254-2.795-3.48-6.894-3.798-11.048-3.573-12.887.701-25.778 2.629-38.663 3.58-6.655.491-13.393.612-20.023 1.355-2.716.304-5.461.738-7.86 2.144-2.063 1.209-3.402 3.526-5.775 4.077-5.544 1.288-9.621-6.119-11.012-10.436-1.694-5.259-.929-12.224-.01-17.59 2.381-13.909 3.516-26.868 2.488-41.039-.977-13.455 1.615-28.297-5.391-40.553 2.559-5.271 5.825 10.19 0 0zm51.603 4.922c-2.244 12.04-4.353 23.949-11.997 33.937-6.125 8.003-17.824 11.704-19.35 22.513-.868 6.153-.693 13.481-.26 19.676.083 1.193.353 6.913 1.184 7.753 1.413 1.429 8.118.27 9.848.091 15.204-1.573 30.305-3.769 45.547-5.125 5.979-.532 16.02.464 21.32-2.612 2.235.101 3.107-.991 2.615-3.277.232-1.779.418-3.562.556-5.351.276-3.551.374-7.118.278-10.678-.125-4.628.406-13.019-3.484-15.347-5.363-3.21-14.237-2.032-20.248-3.775-9.298-2.696-14.394-8.719-15.571-18.255-.604-4.9 1.432-13.51-.992-17.84-2.045-3.658-5.752-2.47-9.446-1.71-.854 4.584 8.02-1.65 0 0zm25.616-3.04c-.589 6.126-4.05 17.34-.212 22.826 3.094 4.422 13.388 4.97 18.001 3.297 7.02-2.548 3.684-12.224 2.742-17.869-.813-4.872-1.091-8.812-6.293-9.988-4.918-1.111-9.708-.555-14.238 1.734-.534 5.552 6.262-3.164 0 0zm-54.45 9.497c-1.146 8.204-2.533 15.919.871 23.7 4.294-4.318 9.086-9.352 9.72-15.717.201-2.015.194-5.456-.823-7.263-1.437-2.554-.677-1.562-3.845-1.606-1.849-.025-4.132.618-5.923.886-2.049 14.668 3.466-.518 0 0zm35.846-45.696c-2.874 3.711-13.518 24.494-3.607 25.929 9.728 1.409 4.681-21.588 3.607-25.929-5.945 7.674 2.263 9.15 0 0zm-67.325 49.028c6.316 6.994 2.164 14.766-.468 22.449-3.363 9.82-6.849 19.597-10.278 29.394-3.318 9.48-6.367 18.953-9.085 28.621-2.008 7.141-7.794 14.82-14.725 6.865-3.814-4.378-5.743-13.238-5.346-18.839.628-8.857 7.932-13.566 12.984-20.038 11.512-14.749 16.672-32.979 26.918-48.452 5.046 5.588-2.702 4.081 0 0zm.873-40.149c-8.785 4.073-14.627-1.085-20.192-7.631-2.831-3.33-16.659-17.389-8.62-21.223 5.353-2.553 20.789 4.955 25.114 8.259 6.751 5.157 7.135 13.256 3.698 20.595-5.92 2.745 4.095-8.744 0 0zm-14.277 35.178c-.31 9.361-9.127 10.42-15.611 6.039-3.974-2.685-6.994-6.396-9.937-10.124-2.083-2.638-7.091-7.285-7.533-10.717-1.208-9.385 15.235-3.294 19.232-1.864 8.122 2.905 14.492 7.304 13.849 16.666-.246 7.432.346-5.042 0 0zm65.766 65.18c-4.073 0-12.94 1.427-15.296-3.346-2.825-5.723 6.292-7.583 9.822-8.599 6.541-1.882 13.412-2.769 20.126-3.84 6.305-1.005 13.309-2.826 19.708-2.738 3.33.046 10.811.709 11.826 4.835 1.21 4.915-5.939 6.496-9.147 7.541-11.972 3.899-24.42 6.206-37.039 6.147-3.05 0 13.626.064 0 0z"/></svg>