<?xml version="1.0" encoding="utf-8"?>
<!-- Generator: Adobe Illustrator 20.0.0, SVG Export Plug-In . SVG Version: 6.00 Build 0)  -->
<svg version="1.1" id="Layer_1" xmlns="http://www.w3.org/2000/svg" xmlns:xlink="http://www.w3.org/1999/xlink" x="0px" y="0px"
	 viewBox="0 0 5800 1000" enable-background="new 0 0 5800 1000" xml:space="preserve">
<path d="M99.478,785.123c-25.885-2.678-52.07-4.543-77.361-10.187c-19.279-4.302-25.035-18.858-16.825-37.368
	c7.933-17.885,17.656-35.094,27.864-51.823c14.889-24.4,37.782-26.49,64.098-23.668c34.893,3.741,70.324,7.022,105.202,4.988
	c30.997-1.808,38.848-12.37,42.141-43.431c3.41-32.158,4.235-64.582,6.901-96.831c1.213-14.665-4.713-24.948-15.624-33.705
	c-15.228-12.223-18.524-20.528-6.653-34.98c23.781-28.95,29.544-61.628,28.868-97.464c-0.507-26.917,2.075-53.879,2.531-80.833
	c0.368-21.749-3.87-24.664-25.316-25.717c-25.638-1.258-46.751,6.074-58.855,29.619c-9.359,18.205-11.784,38.117-6.844,58.412
	c2.804,11.518,6.834,22.837,8.524,34.505c2.839,19.599,0.036,37.015-19.544,48.713c-17.308,10.341-32.444,24.455-50.089,34.054
	c-16.898,9.193-33.706,4.138-40.745-12.922c-8.358-20.258-15.607-41.938-17.877-63.574
	c-9.394-89.532,47.977-147.389,120.141-176.228c57.428-22.95,117.201-31.269,178.445-31.096c26.401,0.075,52.973,0.439,79.14,3.483
	c20.405,2.374,26.314,21.299,12.218,36.349c-13.694,14.621-18.655,30.83-18.524,50.766c0.258,39.22-1.947,78.45-2.679,117.685
	c-0.399,21.371,6.729,28.555,27.972,28.105c25.434-0.539,50.883-1.43,76.264-3.105c20.859-1.376,26.363-6.661,28.719-26.856
	c4.377-37.519,6.999-75.274,12.406-112.633c6.992-48.313,28.216-89.074,71.007-115.533c36.961-22.854,73.832-46.066,112.2-66.366
	c33.161-17.545,69.751-13.648,104.731-5.565c22.927,5.297,28.514,23.748,17.188,44.946c-4.39,8.216-8.987,16.342-13.908,24.249
	c-12.534,20.137-28.009,25.453-50.868,17.99c-7.871-2.57-15.773-5.104-23.788-7.159c-14.372-3.686-24.784-0.886-39.133,8.06
	c-20.431,12.739-19.78,28.171-21.218,46.117c-2.585,32.247-6.154,64.424-8.227,96.7c-2.946,45.856-5.94,91.751-7.012,137.674
	c-1.121,48.015-0.324,96.086,0.323,144.124c0.249,18.496,0.541,37.339,4.164,55.351c4.195,20.856,46.839,32.937,62.384,18.401
	c3.926-3.671,6.083-11.033,6.157-16.736c0.516-40.14-0.501-80.309,0.521-120.43c0.812-31.865,10.076-61.974,23.443-90.925
	c15.273-33.08,41.424-55.753,72.656-71.491c45.224-22.789,90.581-46.605,138.325-62.763c54.693-18.509,126.388-15.899,174.19,36.488
	c21.871,23.969,22.132,22.624,51.839,11.456c51.86-19.496,103.882-38.64,156.361-56.377c25.562-8.64,44.6,1.868,48.139,28.012
	c3.198,23.625,1.266,48.151-0.292,72.158c-1.74,26.804-6.038,53.432-8.414,80.209c-1.945,21.913-4.109,43.969-3.51,65.889
	c0.424,15.515,3.442,31.573,8.676,46.181c6.029,16.826,22.461,22.274,38.818,14.934c11.15-5.003,22.298-10.617,32.157-17.744
	c15.075-10.897,12.072-29.302,14.708-44.669c3.065-17.871,2.404-36.361,3.724-54.556c3.052-42.063,5.709-84.169,9.776-126.137
	c1.915-19.765,13.915-34.703,32.885-39.978c30.365-8.445,61.306-15.062,92.289-20.949c16.469-3.129,26.93,3.65,28.769,20.279
	c2.211,19.978,1.012,40.461-0.084,60.651c-2.581,47.535-6.95,94.992-8.555,142.549c-0.621,18.411,2.972,37.295,6.998,55.442
	c4.503,20.292,19.502,26.222,39.662,18.578c24.06-9.123,46.583-22.245,74.339-20.321c14.778,1.025,20.946,8.48,27.344,19.033
	c12.012,19.813,22.537,40.986,37.288,58.566c19.694,23.47,60.539,17.261,72.052-2.752c10.43-18.132,9.612-36.58-9.458-44.995
	c-26.214-11.567-53.784-20.629-81.488-28.116c-44.056-11.905-73.151-39.827-86.156-81.907
	c-10.274-33.241-3.513-67.176,14.624-96.887c35.105-57.508,84.38-99.458,149.201-118.713
	c43.422-12.899,88.303-12.751,126.773,17.025c31.635,24.485,35.691,45.76,17.701,81.19c-6.346,12.498-14.93,23.871-22.631,35.666
	c-11.256,17.24-35.495,19.886-49.858,2.644c-16.399-19.687-32.336-41.493-59.667-47.67c-9.45-2.136-19.85-3.853-29.102-2.066
	c-10.229,1.977-21.053,6.516-23.029,19.771c-1.999,13.405,2.687,24.576,14.21,30.642c13.566,7.141,27.952,13.477,42.713,17.445
	c34.419,9.253,69.388,17.063,99.145,37.779c12.201,8.494,22.12,20.218,33.42,30.08c3.746,3.27,8.565,5.311,12.893,7.913
	c1.995-4.313,4.497-8.466,5.906-12.963c10.638-33.949,19.857-68.399,31.873-101.846c13.56-37.746,46.758-57.025,80.275-71.904
	c46.355-20.577,94.038-39.154,142.715-53.151c30.885-8.881,64.587-9.192,93.75,12.326c17.492,12.907,27.29,30.372,29.751,50.929
	c8.463,70.682-24.493,113.1-82.911,145.613c-37.228,20.72-73.846,42.618-109.94,65.259c-15.258,9.571-15.403,17.047-5.224,32.38
	c12.247,18.448,30.759,26.794,51.57,31.487c41.95,9.459,79.563-6.338,117.51-19.998c18.013-6.484,35.469-14.797,53.846-19.849
	c7.274-2,21.193,0.146,23.545,4.76c3.961,7.767,3.51,19.87,0.415,28.543c-2.917,8.177-10.438,16.162-18.001,20.997
	c-52.395,33.497-105.32,66.166-158.096,99.067c-43.064,26.847-89.019,24.514-135.913,13.58
	c-56.913-13.27-88.928-51.462-105.927-104.957c-1.404-4.417-3.013-8.95-5.515-12.784c-2.344-3.594-6.373-9.14-8.992-8.792
	c-4.006,0.532-9.021,4.64-10.861,8.53c-14.475,30.615-38.223,52.224-65.424,71.24c-34.039,23.797-69.086,45.329-109.715,55.881
	c-61.015,15.848-116.076,5.336-163.066-38.381c-20.628-19.191-20.484-19.593-45.474-6.47
	c-24.837,13.043-49.361,26.683-74.239,39.645c-43.62,22.727-73.899,3.297-87.494-42.409c-0.435-1.462,0.094-3.191-0.233-4.708
	c-6.139-28.563-16.812-33.265-42.117-18.081c-34.742,20.846-69.104,42.333-104.071,62.789
	c-11.029,6.452-23.083,11.882-35.356,15.333c-28.379,7.979-52.954-10.181-65.044-43.709
	c-14.012-38.857-13.983-78.784-12.359-118.986c1.92-47.522,4.925-95.003,6.463-142.535c0.83-25.638-18.764-37.606-42.452-28.037
	c-9.765,3.945-11.566,10.599-11.149,19.835c2.188,48.54-2.97,96.438-15.97,143.161c-10.557,37.945-29.431,72.174-61.815,95.338
	c-22.98,16.438-49.224,28.539-74.686,41.221c-27.419,13.657-55.043,27.254-83.613,38.169
	c-52.571,20.084-105.143,22.87-154.471-9.865c-21.786-14.457-44.341-8.778-66.525-4.713
	c-50.408,9.236-100.349,21.167-150.911,29.326c-17.838,2.878-37.498,0.262-55.277-4.113c-14.478-3.563-21.273-17.635-21.321-32.948
	c-0.194-61.968-0.171-123.938,0.009-185.906c0.031-10.666,1.111-21.336,1.884-31.992c1.457-20.085-3.283-29.487-22.022-30.193
	c-32.271-1.216-64.674,1.232-97.027,1.888c-12.848,0.261-16.553,8.892-18.587,19.176c-3.824,19.338-7.145,38.78-11.202,58.068
	c-9.976,47.421-38.636,80.546-77.906,107.721c-40.611,28.102-77.93,60.935-118.207,89.562
	C179.903,780.846,121.436,787.395,99.478,785.123z M1071.985,522.558c-0.879-0.181-1.758-0.363-2.637-0.544
	c-1.337-16.135-0.385-32.892-4.557-48.258c-6.013-22.146-12.56-45.291-24.604-64.402c-20.894-33.157-66.195-31.478-86.984,1.899
	c-8.026,12.885-14.057,28.14-16.667,43.073c-10.283,58.836-8.778,116.914,15.211,173.103c9.138,21.404,36.019,41.22,58.433,40.255
	c21.613-0.93,40.222-17.702,45.465-44.479C1062.174,589.867,1066.633,556.125,1071.985,522.558z M2249.808,449.587
	c2.375,8.205,3.377,22.465,7.407,23.379c8.884,2.016,19.502-2.019,29.006-4.917c5.804-1.77,11.108-5.652,16.2-9.209
	c22.924-16.014,38.604-36.155,37.923-65.97c-0.435-19.053-7.618-31.744-21.622-36.007c-13.58-4.134-36.627,5.065-44.815,17.782
	C2259.324,397.292,2252.289,422.152,2249.808,449.587z M5295.025,290.807c-3.229,56.285-7.861,112.544-8.893,168.869
	c-0.342,18.636-1.101,40.487,14.906,55.484c4.496,4.212,13.514,7.469,18.865,5.861c5.944-1.787,13.59-9.145,14.395-14.927
	c4.363-31.328,6-63.029,10.146-94.395c7.504-56.782,33.137-101.961,83.761-132.406c44.619-26.833,89.094-53.343,137.971-72.117
	c24.183-9.289,48.682-8.456,73.247-7.439c25.246,1.046,50.458,4.081,75.547,7.312c16.886,2.174,33.643,5.722,50.265,9.499
	c32.445,7.373,43.611,25.941,21.864,55.184c-18.793,25.271-20.957,52.862-22.529,80.761c-3.68,65.282-4.518,130.719-7.059,196.072
	c-1.5,38.583-3.436,77.171-6.3,115.674c-3.374,45.353-22.067,84.406-54.392,115.989c-48.393,47.283-97.464,93.898-147.107,139.867
	c-25.847,23.934-59.35,31.88-92.896,30.867c-50.201-1.516-100.394-6.575-150.325-12.398c-25.29-2.95-35.656-20.197-24.238-42.598
	c14.298-28.05,32.027-54.91,51.812-79.428c15.859-19.653,40.653-13.781,63.008-11.878c51.09,4.348,101.92,15.257,153.524,7.946
	c15.764-2.233,26.849-12.802,30.045-28.159c5.369-25.794,10.373-51.866,12.557-78.069c2.752-33.022,2.845-66.287,3.457-99.458
	c0.397-21.515-6.947-25.849-25.395-14.18c-27.63,17.477-53.538,37.873-81.975,53.824c-28.015,15.715-56.543,35.798-91.892,17.129
	c-20.497-10.825-32.19-29.183-42.734-48.232c-6.845-12.364-14.4-12.823-25.513-6.965c-36.682,19.338-73.502,38.416-110.358,57.42
	c-28.249,14.566-54.773-2.165-67.737-22.245c-19.064-29.527-28.296-61.594-27.427-96.26c1.427-56.962,4.31-113.886,5.993-170.843
	c0.716-24.218-5.909-28.677-29.542-21.412c-8.397,2.581-16.737,5.644-24.654,9.425c-18.133,8.66-27.254,23.167-27.774,43.534
	c-0.487,19.096-1.838,38.176-3.089,57.245c-3.073,46.841-6.363,93.667-9.456,140.506c-1.754,26.571-16.227,42.884-47.223,52.121
	c-22.842,6.807-45.797,13.237-68.74,19.7c-23.508,6.623-38.648-3.265-38.372-27.806c0.493-43.593,2.801-87.171,4.73-130.739
	c1.077-24.322,3.563-48.592,4.248-72.918c0.763-27.073,0.616-54.192,0.067-81.275c-0.359-17.718-6.421-22.882-24.292-22.845
	c-5.959,0.012-12.019,0.068-17.855,1.101c-9.985,1.767-14.933,7.75-14.646,18.434c0.438,16.291,0.55,32.617,0.032,48.903
	c-1.773,55.786-13.883,108.628-45.4,155.798c-14.922,22.332-35.316,38.983-58.87,50.442c-48.074,23.389-96.154,47.288-145.999,66.36
	c-43.572,16.672-90.257,17.933-130.56-9.277c-31.743-21.431-61.678-12.257-93.229-5.582
	c-48.798,10.323-97.558,20.866-146.523,30.334c-10.563,2.042-22.306,1.634-32.852-0.655c-22.377-4.857-37.055-33.472-34.313-59.129
	c1.923-17.992,0.187-36.352,0.627-54.534c0.39-16.1,2.045-32.176,2.228-48.274c0.387-34.179-0.102-68.368,0.373-102.544
	c0.158-11.331-6.519-17.605-15.441-17.802c-33.312-0.738-66.698-0.584-99.958,1.145c-5.988,0.311-14.772,8.675-16.635,14.983
	c-5.821,19.714-10.242,40.058-12.85,60.459c-6.004,46.953-35.32,77.696-70.216,104.862c-31.81,24.765-64.821,48.079-95.615,74.034
	c-29.649,24.991-62.72,38.002-101.123,37.445c-26.944-0.391-53.909-1.252-80.79-3.022c-9.614-0.633-19.361-3.649-28.431-7.165
	c-16.021-6.211-23.376-20.612-15.949-36.62c9.078-19.565,20.904-37.977,32.712-56.125c15.916-24.461,39.005-23.46,64.972-19.421
	c33.389,5.194,67.415,7.331,101.239,8.315c20.638,0.601,37.836-14.38,40.159-36.082c4.197-39.197,5.648-78.726,6.892-118.159
	c0.194-6.159-5.495-13.932-10.624-18.568c-16.957-15.329-20.504-28.947-4.948-45.519c26.044-27.747,22.864-62.112,25.306-95.196
	c1.622-21.971,0.342-44.151,0.492-66.237c0.198-29.301-9.7-37.951-38.382-32.876c-35.879,6.349-51.637,36.47-47.299,71.168
	c2.366,18.922,6.787,37.578,9.573,56.459c2.155,14.608-4.283,27.41-14.886,35.856c-18.296,14.574-37.468,28.527-57.879,39.844
	c-24.684,13.685-40.41-0.905-48.574-25.127c-21.488-63.749-18.844-136.763,44.144-187.375
	c39.892-32.055,84.786-51.951,134.21-59.803c45.256-7.189,91.299-10.087,137.119-12.73c17.933-1.034,36.344,2.986,54.275,6.178
	c13.95,2.483,21.448,23.053,10.495,31.762c-24.744,19.673-21.982,46.83-23.79,72.814c-1.966,28.252-2.643,56.605-3.351,84.927
	c-0.218,8.742-0.642,18.364,2.653,26.024c2.562,5.957,10.747,13.446,16.437,13.45c30.772,0.02,61.561-1.808,92.311-3.576
	c13.401-0.771,18.276-10.883,19.687-22.338c4.573-37.113,7.316-74.497,13.18-111.393c6.889-43.347,21.521-83.821,60.204-109.733
	c37.533-25.143,75.181-50.343,114.393-72.683c36.784-20.957,77.64-17.398,117.306-9.309c19.092,3.894,24.913,19.443,16.306,37.735
	c-5.909,12.559-13.209,24.738-21.587,35.8c-14.342,18.937-24.496,20.593-47.965,13.841c-15.377-4.424-31.287-8.341-47.157-9.343
	c-17.409-1.1-28.767,9.746-30.699,26.558c-3.619,31.484-7.523,62.992-9.443,94.604c-3.915,64.471-6.954,129.001-9.648,193.537
	c-1.721,41.228-2.85,82.508-2.861,123.765c-0.004,15.905,2.558,32.108,6.207,47.646c5.088,21.669,47.785,34.495,63.028,18.584
	c5.082-5.304,6.697-16.666,5.61-24.678c-5.266-38.828-4.211-77.487,0.84-116.094c4.807-36.729,11.353-73.548,34.548-103.653
	c13.066-16.959,28.446-33.699,46.25-45.149c52.084-33.497,106.886-63.014,167.463-77.709c48.372-11.734,96.941-8.603,139.441,20.984
	c14.661,10.207,24.911,26.563,38.327,38.854c4.133,3.787,13.414,6.48,18.059,4.453c31.381-13.698,61.622-30.086,93.274-43.061
	c28.146-11.538,57.209-21.47,86.668-28.969c23.413-5.96,41.051,11.628,44.607,39.999c0.13,1.037-0.021,2.106,0.053,3.153
	c2.668,37.354,6.673,38.323,39.469,21.058c43.072-22.675,87.174-43.555,131.726-63.182c18.949-8.348,40.676-9.848,56.832,7.345
	c7.14,7.599,12.369,18.701,14.352,29.004c2.439,12.673,0.582,26.173,0.582,39.315
	C5294.23,290.765,5294.628,290.786,5295.025,290.807z M4532.388,437.705c0.955,0.336,1.909,0.672,2.863,1.007
	c1.469,13.962,3.397,27.894,4.312,41.893c1.827,27.955,10.287,53.742,24.685,77.557c16.672,27.576,49.565,38.19,71.032,21.134
	c9.443-7.502,17.305-19.718,20.947-31.341c19.166-61.181,21.426-123.389,2.959-185.031c-4.703-15.695-13.748-33.412-26.326-42.763
	c-30.15-22.413-66.541-15.087-79.619,22.657C4542.712,373.208,4539.08,405.987,4532.388,437.705z M5607.458,370.536
	c-0.317-0.024-0.634-0.048-0.951-0.073c0-9.902-1.168-19.977,0.272-29.665c2.2-14.789-4.344-23.111-17.411-26.701
	c-13.846-3.805-27.964-8.102-42.144-8.872c-22.63-1.23-31.343,8.136-35.77,30.238c-9.673,48.285-12.733,96.665-6.372,145.672
	c2.598,20.019,16.383,39.718,31.333,41.347c22.627,2.466,60.675-21.971,63.556-44.742
	C5604.461,442.257,5605.156,406.295,5607.458,370.536z M3138.585,431.425c0.383,46.155-6.601,91.181-23.8,134.032
	c-15.985,39.825-41.998,72.194-81.042,91.34c-46.507,22.806-93.026,46.108-141.264,64.727
	c-60.938,23.521-133.313,12.091-175.725-47.513c-22.893-32.173-30.653-68.163-31.461-105.033
	c-0.848-38.667,1.956-78.156,9.428-116.05c7.283-36.939,19.5-74.509,52.346-98.42c24.701-17.983,50.598-34.797,77.61-48.998
	c26.021-13.68,53.723-24.552,81.464-34.486c43.6-15.614,88.259-20.644,133.74-7.234c23.582,6.953,42.48,21.194,57.924,39.323
	c17.338,20.353,18.858,21.75,43.678,14.329c14.28-4.27,28.505-9.703,43.145-11.596c36.975-4.781,27.628-10.714,32.332-40.555
	c5.197-32.968,7.877-66.725,27.614-94.553c12.246-17.266,27.428-33.764,44.583-45.99c55.714-39.71,112.429-78.695,177.165-102.382
	c33.817-12.373,70.151-12.209,105.539-3.916c17.073,4.001,24.372,21.95,16.008,40.254c-7.077,15.488-15.995,30.297-25.48,44.482
	c-11.606,17.357-29.14,18.213-48.294,15.922c-26.873-3.214-53.94-5.465-80.981-6.349c-14.282-0.467-36.638,22.762-38.623,38.985
	c-3.862,31.557-6.794,63.235-9.624,94.907c-0.905,10.136,0.15,20.434-0.44,30.614c-0.941,16.245,8.664,20.575,22.396,21.686
	c20.066,1.623,40.207,3.029,60.084,6.05c16.923,2.572,23.136,16.861,16.766,32.736c-8.728,21.747-26.622,31.1-47.556,36.141
	c-9.055,2.18-18.559,2.72-27.903,3.432c-23.817,1.814-31.53,8.613-32.805,32.081c-2.505,46.096-3.021,92.336-6.755,138.322
	c-5.846,72.01-5.855,144.88-25.357,215.175c-7.864,28.346-22.624,54.004-44.178,74.373
	c-37.886,35.801-77.474,69.818-114.964,106.017c-21.466,20.727-42.613,42.437-72.064,49.052c-25.472,5.721-52.309,5.608-78.59,7.365
	c-10.82,0.723-21.798,0.033-32.645-0.792c-19.101-1.453-31.991-19.115-23.854-36.3c9.899-20.907,22.554-40.724,35.849-59.732
	c8.639-12.352,23.338-14.373,37.972-13.854c29.294,1.039,58.628,3.177,87.884,2.435c26.056-0.661,48.492-27.278,50.331-56.749
	c4.376-70.161,8.36-140.347,12.757-210.507c1.562-24.926,4.726-49.776,5.598-74.716c1.069-30.562,0.519-61.181,0.632-91.775
	c0.064-17.202,1.035-34.473-0.182-51.587c-1.365-19.188-9.396-25.282-27.844-24.081c-7.24,0.472-14.506,1.845-21.698,1.501
	c-15.304-0.732-20.793,6.588-19.823,21.075C3139.071,413.514,3138.585,422.486,3138.585,431.425z M2980.918,487.941
	c-4.57-30.833-7.16-58.677-13.191-85.755c-4.952-22.233-17.197-43.338-38.532-52.064c-32.831-13.429-59.495-2.262-72.359,32.553
	c-7.383,19.982-8.371,42.371-11.852,63.74c-8.549,52.487-1.43,102.675,24.433,149.365c10.682,19.283,27.557,31.642,50.733,30.562
	c25.906-1.207,39.393-19.1,44.426-41.439C2971.942,552.202,2975.894,518.732,2980.918,487.941z"/>
</svg>
