<?xml version="1.0" encoding="utf-8"?>
<!-- Generator: Adobe Illustrator 20.0.0, SVG Export Plug-In . SVG Version: 6.00 Build 0)  -->
<svg version="1.1" id="Layer_1" xmlns="http://www.w3.org/2000/svg" xmlns:xlink="http://www.w3.org/1999/xlink" x="0px" y="0px"
	 viewBox="0 0 1000 1000" enable-background="new 0 0 1000 1000" xml:space="preserve">
<rect fill="#6B0C22" width="1000" height="1000"/>
<path fill="#FFFFFF" d="M896.85,493.125c-0.523-9.867-0.018-19.8-1.75-29.568c-1.566-8.835-0.697-18.335-3.525-26.904
	c-3.18-9.634-3.604-20.078-5.879-30.054c-2.381-10.439-5.822-20.706-9.107-30.89c-12.646-39.202-31.161-75.488-54.931-109.087
	c-24.141-34.123-53.352-62.774-86.313-88.318c-16.062-12.449-33.349-22.541-51.14-32.27c-9.537-5.216-19.212-9.654-29.282-13.732
	c-9.142-3.703-17.908-8.356-27.347-11.286c-39.341-12.214-79.872-19.358-121.074-20.836c-10.77-0.386-21.578-0.19-32.295,1.006
	c-9.758,1.09-20.493,1.062-29.873,4.059c-9.003,2.876-19.162,3.16-28.486,5.348c-9.942,2.333-19.994,4.482-29.789,7.376
	c-78.334,23.142-146.241,72.054-197.038,135.423c-25.957,32.382-46.195,69.681-60.691,108.498
	c-7.319,19.599-12.472,39.442-16.903,59.875c-2.214,10.204-2.887,20.47-4.483,30.753c-1.6,10.306-2.996,19.862-3.222,30.352
	c-0.24,11.124-0.775,22.289-0.493,33.416c0.247,9.726,1.606,19.407,2.001,29.141c0.185,4.564,0.73,8.966,2.261,13.293
	c1.53,4.328,1.69,8.764,2.41,13.334c1.607,10.203,4.161,20.14,6.578,30.171c4.846,20.11,12.369,39.11,19.322,58.544
	c3.331,9.312,9.164,18.366,13.769,27.175c4.771,9.127,9.835,18.121,15.246,26.886c21.522,34.868,50.558,67.2,81.875,93.562
	c15.869,13.358,33.13,25.777,51.156,36.059c17.03,9.714,34.619,19.327,53.084,25.996c9.19,3.319,17.999,7.562,27.331,10.504
	c9.85,3.104,19.858,5.69,29.895,8.106c10.038,2.417,20.131,4.706,30.366,6.131c5.342,0.744,10.665,1.053,16.037,1.43
	c4.39,0.308,8.29,2.13,12.713,2.405c40.217,2.502,80.286,0.438,119.404-8.992c19.588-4.722,39.861-9.708,58.649-17.053
	c9.124-3.566,18.138-8.605,27.113-12.674c9.19-4.166,17.894-9.269,26.642-14.278c34.614-19.82,67.375-46.007,93.396-76.303
	c26.184-30.486,49.072-63.298,66.124-99.834c8.694-18.63,14.584-37.858,21.666-57.073c6.984-18.946,10.542-40.504,13.122-60.475
	C895.908,532.832,896.85,512.774,896.85,493.125C896.26,481.977,896.85,497.326,896.85,493.125z M303.965,249.849
	c49.954-43.298,118.142-64.95,183.106-69.831c16.768-1.26,32.792,1.317,49.418,2.878c16.822,1.581,32.831,4.597,49.198,8.636
	c30.514,7.53,59.726,21.678,85.898,38.85c6.527,4.282,13.031,8.633,19.43,13.106c5.562,3.889,8.134,8.354,7.608,15.208
	c-1.13,14.716-6.903,29.775-13.826,42.667c-13.294,24.758-34.058,43.996-57.6,58.904c-55.118,34.903-125.142,43.555-188.301,28.799
	c-33.079-7.729-66.13-22.942-91.386-45.949c-12.384-11.282-23.465-24.315-31.142-39.278c-4.089-7.969-6.788-16.444-9.414-24.978
	C303.95,269.098,301.729,260.088,303.965,249.849C317.582,238.046,303.965,249.849,303.965,249.849z M576.574,559.651
	c-0.448,7.761-12.209,5.958-17.444,6.073c-9.714,0.213-19.429,0.427-29.142,0.64c-18.619,0.407-37.238,0.808-55.858,1.174
	c-8.668,0.171-17.342,0.251-26.007,0.507c-3.652,0.108-7.297,0.326-10.917-0.335c-3.585-0.655-3.121-0.381-4.217-3.434
	c-0.807-2.247-0.526-5.628-0.721-8.027c-1.495-18.373-0.867-37.088-1.094-55.517c-0.222-17.93-0.944-35.85-1.201-53.773
	c-0.047-3.271-0.772-7.696,1.982-10.091c1.982-1.723,5.686-1.478,8.159-1.592c9.8-0.449,19.644-0.434,29.453-0.646
	c18.814-0.405,37.629-0.806,56.443-1.204c8.807-0.186,17.614-0.372,26.421-0.558c6.706-0.142,19.564-3.715,22.011,4.623
	c1.225,4.172,0.372,9.515,0.407,13.802c0.04,4.882,0.081,9.766,0.13,14.648c0.105,10.526,0.243,21.052,0.462,31.576
	C575.871,518.101,577.759,539.09,576.574,559.651C576.386,562.906,576.814,555.482,576.574,559.651z M275.692,702.513
	c-6.638,1.13-13.59,4.796-20.061,1.173c-6.025-3.374-10.326-11.113-14.202-16.659c-9.278-13.277-18.264-27.219-25.582-41.68
	c-14.291-28.238-25.197-60.202-29.17-91.651c-2.13-16.863-5.318-33.737-5.082-50.797c0.23-16.691,1.793-34.021,4.042-50.561
	c4.428-32.567,15.214-65.956,30.258-95.138c7.197-13.959,15.272-27.786,24.24-40.689c4.174-6.006,7.63-9.718,15.084-9.263
	c8.051,0.491,16.208,1.381,24.041,3.348c30.065,7.55,56.251,28.037,74.475,52.537C392.39,415.1,405.16,484.869,395.617,548.13
	c-5.434,36.021-18.001,70.724-39.605,100.385C336.688,675.042,308.628,696.91,275.692,702.513
	C272.598,703.039,295.38,699.164,275.692,702.513z M704.967,744.897c-24.421,20.954-52.054,38.642-81.936,50.693
	c-15.408,6.214-30.776,10.924-46.678,15.675c-14.893,4.45-30.852,5.382-46.259,7.033c-17.176,1.84-33.451,2.662-50.685,0.903
	c-15.378-1.57-30.779-2.384-45.91-5.756c-31.741-7.074-63.187-19.144-91.258-35.559c-7.102-4.154-14.051-8.564-20.889-13.139
	c-1.266-0.848-2.529-1.702-3.789-2.561c-2.725-1.858-3.272-1.782-3.961-4.894c-0.914-4.134-0.358-9.286-0.103-13.449
	c0.934-15.255,6.225-29.91,13.312-43.338c14.095-26.706,37.339-47.442,63.481-62.077c28.281-15.832,60.433-26.094,92.671-29.366
	c17.131-1.739,34.464-1.869,51.665-1.398c7.462,0.205,14.959,0.707,22.252,2.387c3.566,0.822,6.996,2.275,10.605,2.888
	c4.285,0.728,8.566,0.754,12.826,1.787c16.878,4.091,33.334,11.475,48.839,19.159c13.904,6.89,26.63,15.978,37.922,26.605
	c11.976,11.271,22.646,23.664,29.613,38.643c3.625,7.794,6.919,15.758,9.318,24.021C707.978,729.949,711.26,739.498,704.967,744.897
	C694.375,753.986,707.513,742.714,704.967,744.897z M818.062,503.555c1.064,16.75-1.863,34.143-4.493,50.652
	c-2.513,15.778-6.745,31.226-11.793,46.369c-9.919,29.757-24.466,56.806-41.387,83.119c-3.512,5.462-6.714,9.74-13.661,9.308
	c-7.897-0.491-15.914-2.167-23.37-4.804c-13.031-4.61-25.386-11.531-36.382-19.877c-23.581-17.897-40.23-42.891-52.442-69.562
	c-13.596-29.694-20.631-61.648-21.323-94.223c-0.706-33.23,1.917-65.334,13.034-96.879c9.743-27.648,23.933-54.374,45.12-74.97
	c10.27-9.982,21.957-18.481,34.727-24.982c6.53-3.324,13.18-5.969,20.353-7.53c6.368-1.386,15.518-4.909,21.082-0.464
	c6.298,5.031,10.562,13.294,15,19.863c5.025,7.438,9.982,14.929,14.55,22.658c8.8,14.892,15.738,30.797,21.638,47.038
	c12.805,35.254,17.09,70.816,20.274,107.944C817.15,497.334,817.96,501.94,818.062,503.555
	C818.978,517.959,817.93,501.47,818.062,503.555z M286.007,531.737c-2.075,7.29-0.625,14.5-1.328,21.897
	c-0.74,7.787-2.835,17.161-7.032,23.842c-3.253,5.178-8.114,11.415-14.83,7.85c-6.419-3.408-11.838-12.022-16.733-17.32
	c3.783-1.61,4.91-2.01,8.886-1.053c2.598,0.626,5.654,1.892,8.227,0.382c5.11-2.996,6.033-13.585,6.152-18.779
	c0.069-3.012,0.671-6.101-3.245-5.35c-2.384,0.457-5.496,3.829-7.469,5.278c-6.347,4.662-12.56,9.738-19.602,13.326
	c-5.56,2.833-11.502,4.819-17.478,6.563c-2.25,0.657-5.66,2.414-8.087,1.855c-5.034-1.159-2.599-3.943-0.032-5.609
	c12.045-7.814,24.318-14.793,35.56-23.863c5.294-4.271,11.442-8.997,15.412-14.584c1.128-1.587,2.838-4.401,1.496-6.362
	c-1.77-2.586-5.495,0.123-7.429,1.683c-10.67,8.609-22.502,15.656-35.637,20.023c-2.474,0.822-6.573,1.809-9.229,0.858
	c-3.472-1.242-2.199-2.754,0.042-4.617c2.49-2.07,6.554-3.474,9.365-5.151c3.356-2.002,6.639-4.122,9.866-6.326
	c5.434-3.711,11.092-7.524,16.034-11.877c2.75-2.422,11.371-12.63,2.21-11.649c-5.641,0.604-11.317,5.607-16.308,7.947
	c-3.012,1.412-6.232,2.278-9.481,2.938c-1.805,0.366-9.018,2.494-10.672,1.187c-4.338-3.428,8.383-8.45,10.065-9.442
	c6.486-3.828,12.507-8.414,18.543-12.902c1.816-1.35,5.018-3.22,5.24-5.853c0.303-3.603-5.062-2.731-7.98-3.132
	c-3.058-0.42-9.35-3.238-6.309-7.038c1.585-1.981,7.941-2.139,10.486-2.659c3.886-0.795,7.774-1.586,11.662-2.366
	c8.016-1.606,16.276-3.841,24.432-4.456c3.792-0.286,14.202-1.19,14.386,4.957c0.171,5.759-12.468,6.517-16.412,7.49
	c-4.001,0.987-6.349,0.913-8.722,4.406c-1.849,2.721-3.697,5.442-5.546,8.163c-0.406,0.597-0.811,1.194-1.217,1.791
	c-1.77,1.336-1.618,2.468,0.457,3.396c0.547,0.96,2.499,2.406,3.197,3.074c2.337,2.238,6.013,7.098,9.502,7.202
	c4.947,0.148,12.43-8.93,15.75-12.202c4.146-4.082,7.783-12.314,14.524-12.174c4.858,0.101,13.047,7.022,11.39,12.285
	c-1.927,6.118-11.977,7.566-17.066,9.338c-3.754,1.306-7.098,3.405-10.388,5.593c-1.798,1.196-6.666,3.236-6.99,5.402
	c-0.547,3.652,16.142,11.758,19.174,13.618c7.052,4.326,14.029,8.247,22.026,10.538c7.306,2.094,15.276,2.127,22.417,4.615
	c2.05,0.714,7.981,2.975,6.176,6.396c-1.128,2.138-7.727,3.692-9.842,4.631c-6.376,2.83-13.222,5.002-20.208,3.123
	c-7.102-1.91-13.197-7.816-18.764-12.36C298.514,541.255,292.42,536.382,286.007,531.737
	C284.268,537.845,289.723,534.428,286.007,531.737z M260.67,446.922c-3.641-6.746-7.282-13.492-10.922-20.238
	c6.314-3.418,13.85-1.262,19.715,2.194c5.545,3.266,5.573,7.921,8.617,12.798c1.32,2.114,1.168,1.866,4.154,1.962
	c1.565,0.05,3.047-0.026,4.607-0.185c4.096-0.415,8.192-1.132,12.264-1.737c6.702-0.995,15.004-3.958,21.738-2.588
	c5.481,1.115,11.42,5.961,14.777,10.312c4.842,6.275,3.342,10.117-3.863,12.438c-6.762,2.178-15.475,5.86-22.671,5.705
	c-3.441-0.074-4.038-1.168-3.059-4.506c1.077-3.67,3.7-7.498,5.387-10.92c-8.924-2.41-18.853-0.264-27.983,0.898
	c-9.334,1.188-18.594,2.784-27.845,4.496c-8.349,1.546-18.662,1.882-26.558,4.923c-2.916,1.123-3.066,1.772-4.77,4.538
	c-1.167,1.896-2.348,3.783-3.574,5.643c-2.103,3.192-4.446,8.352-8.657,9.098c-8.633,1.53-9.496-7.695-7.128-13.443
	c1.848-4.486,4.324-8.826,6.506-13.162c1.505-2.992,3.142-8.938,5.828-10.786c2.957-2.035,4.918,0.686,6.884,2.717
	c3.15,3.253,4.918,3.258,9.386,3.21C242.655,450.19,251.758,448.984,260.67,446.922C256.436,439.077,248.358,449.771,260.67,446.922
	z M512.977,225.733c-0.278,2.717-1.77,8.732-0.13,10.061c2.034,1.648,8.109-0.479,10.257-0.917c7.118-1.451,13.61-3.76,20.546-0.3
	c5.339,2.663,6.698,5.906,5.178,11.559c-0.939,3.495-1.952,5.203,2.586,5.604c3.194,0.282,6.07-1.078,9.434-0.415
	c3.604,0.71,13.09,4.266,12.221,9.034c-1.12,6.142-15.537,3.767-19.742,3.724c-2.614-0.027-7.487-0.463-9.681,1.386
	c-2.043,1.721-3.837,7.736-3.794,10.303c0.105,6.214,4.945,12.983,9.132,17.082c16.321,15.974-22.532,12.154-18.179,20.314
	c0.744,1.395,6.245,2.685,7.378,3.131c3.443,1.357,6.929,2.614,10.334,4.066c5.812,2.477,11.042,5.751,14.287,11.362
	c3.042,5.261,2.612,12.546-5.072,11.309c-7.586-1.222-14.658-7.501-20.541-11.91c-4.771-3.577-11.926-11.565-18.356-12.062
	c-3.643-0.282-4.051,1.921-4.022,5.472c0.035,4.234,0.41,8.318-0.033,12.578c-0.67,6.446-1.021,16.045-7.422,19.662
	c-7.952,4.494-14.24-6.093-18.802-11.142c-2.226-2.463-6.213-6.113-2.346-8.367c2.761-1.61,6.535,0.322,9.45-0.206
	c7.751-1.401,4.574-14.808,3.472-20.185c-10.074,5.484-17.827,14.974-26.673,22.216c-4.33,3.544-8.909,5.092-14.04,2.101
	c-2.969-1.73-9.066-6.425-6.265-10.101c2.569-3.372,11.307-5.049,15.178-6.654c3.857-1.598,8.974-2.963,12.082-5.886
	c2.502-2.353,2.507-3.274,0.266-5.668c-1.97-2.104-3.958-4.183-5.975-6.242c-3.455-3.526-6.182-7.019-7.096-12.018
	c1.696-0.366,4.76-0.483,6.258-1.35c0.698-0.15,1.394-0.301,2.092-0.451c-0.227-1.502-0.454-3.006-0.681-4.508
	c0.2-2.831-0.347-2.917,2.518-4.319c1.486-0.728,3.102-0.982,4.71-1.269c3.623-0.646,23.434-1.658,18.068-9.774
	c-3.373-5.102-17.352,0.666-22.074,1.062c-2.131,0.178-4.271,0.232-6.409,0.16c-0.732-0.04-1.464-0.079-2.196-0.119
	c-1.994-0.924-2.944-0.301-2.85,1.87c-2.328,3.463-3.187,10.065-4.234,14.119c-4.293,16.628-10.423,30.954-20.882,44.746
	c-2.99,3.944-10.617,13.228-16.574,11.887c-6.133-1.381,6.434-14.607,8.179-17.415c9.274-14.932,16.162-32.157,19.832-49.326
	c1.775-8.301,2.57-16.678,3.337-25.118c0.684-7.518,3.59-16.661-1.786-23.146c-1.838-2.218-5.921-3.333-4.502-6.718
	c1.258-3.002,7.028-2.886,9.534-3.259c10.092-1.504,20.369-2.487,30.37-4.515c1.753-0.355,4.586-0.625,6.145-1.501
	c2.386-1.341,2.525-0.646,1.888-3.764c-0.615-3.01-2.446-5.45-3.889-8.086c-4.519-8.256,1.626-9.988,9.044-6.958
	c3.821,1.561,8.353,3.876,10.505,7.489c1.015,1.705,1.122,3.918,2.099,5.564c-0.071,1.91,0.849,2.825,2.758,2.744
	c1.372,0.333,2.762,0.485,4.174,0.458c4.739-0.17,8.736-3.128,13.497-3.638c4.109-0.44,9.191-1.01,13.037,0.746
	c2.576,1.175,7.657,4.253,6.368,7.718c-1.286,3.461-10.095,3.201-13.116,3.564C532.339,222.656,522.021,222.621,512.977,225.733
	C512.65,228.92,514.517,225.203,512.977,225.733z M471.416,244.066c6.327-0.615,12.888-0.797,19.062-2.426
	c3.138-0.828,5.67-1.225,6.508-4.246c0.619-2.233-0.152-6.484-1.682-8.309c-3.46-4.126-13.051-0.626-17.663,0.347
	c-3.872,0.818-5.518,1.657-6.542,5.806C470.386,238.124,470.874,241.199,471.416,244.066
	C475.91,243.63,470.501,239.222,471.416,244.066z M513.578,311.961c6.04-1.246,9.082-5.362,13.104-9.995
	c1.97-2.268,4.011-4.601,5.363-7.309c0.471-0.945,1.375-2.511,1.376-3.584c0.001-2.594,0.094-2.336-2.957-2.869
	c-4.615-0.806-14.284-0.783-16.618,4.114C511.536,297.168,513.497,306.693,513.578,311.961
	C515.692,311.525,513.482,305.698,513.578,311.961z M471.368,249.41c-2.581,3.078-6.533,10.77-1.076,13.201
	c2.485,1.107,6.749-0.336,9.198-0.753c3.975-0.677,7.959-1.381,11.908-2.199c2.44-0.506,5.652-0.861,6.831-3.478
	c1.366-3.033-0.82-4.83-3.573-5.421c-3.21-0.689-7.276,0.414-10.553,0.466C479.783,251.294,475.44,250.978,471.368,249.41
	C470.394,250.571,478.297,252.078,471.368,249.41z M499.622,312.06c0.027-4.114,0.431-8.226,0.266-12.34
	c-0.065-1.612,0.071-3.81-0.577-5.341c-1.201-2.837-1.397-2.132-4.585-2.027c-4.213,0.138-7.207,0.681-10.867,2.765
	c2.566,3.635,5.07,6.551,6.278,10.906c0.226,0.815,0.636,5.065,1.246,5.591C492.439,312.523,498.178,311.982,499.622,312.06
	C499.67,305.006,496.476,311.889,499.622,312.06z M530.091,254.864c0.688-3.606,2.53-7.763-1.682-9.226
	c-2.257-0.783-13.348,0.962-15.19,2.62c-2.886,2.595-1.39,7.459,2.048,8.438C519.259,257.832,526.028,255.437,530.091,254.864
	C530.526,252.585,525.605,255.496,530.091,254.864z M526.707,266.821c-5.718-1.463-15.666-0.07-13.806,7.736
	c1.321,5.544,4.592,3.106,9.083,1.967c3.185-0.808,2.482-0.738,3.594-3.398C526.333,271.319,526.362,268.747,526.707,266.821
	C521.434,265.472,526.108,270.163,526.707,266.821z M540.694,671.527c6.842,1.169,9.006-0.79,11.089-7.162
	c2.298-7.031,6.24-8.179,11.207-2.012c5.014,6.225-1.677,11.562-5.35,16.551c-1.514,2.058-4.715,6.328-3.306,8.083
	c1.736,2.162,6.982,3.284,9.402,4.842c4.906,3.156,7.692,8.55,5.559,14.35c-3.062,8.329-8.646,0.67-13.906-0.342
	c-7.058-1.358-12.661,3.434-18.645,6.154c-6.481,2.946-9.458-1.786-13.873-6.074c-1.585,1.697-4.024,5.749-6.534,5.938
	c-1.96,0.147-3.266-1.524-4.938-2.138c-1.198-0.44-4.871-1.426-5.298,0.773c-0.218,1.13,3.815,5.346,4.381,6.894
	c1.248,3.411,0.403,5.322,4.516,5.757c3.402,0.36,7.254-0.459,10.641-0.809c7.468-0.77,15-1.454,22.383-2.838
	c6.807-1.276,13.703-3.454,20.629-1.712c3.174,0.798,14.204,4.775,12.854,9.705c-1.437,5.245-12.071,5.076-15.887,5.113
	c-7.951,0.076-15.902,0.15-23.853,0.281c-7.582,0.125-15.329-0.167-22.88,0.577c-2.855,0.282-6.635,0.389-8.214,2.741
	c-1.925,2.868-1.025,7.73-0.931,11.006c0.217,7.547,0.262,15.097,0.517,22.645c0.222,6.585,0.975,14.737-3.969,20.128
	c-3.905,4.258-8.013,0.227-9.894-3.814c-3.299-7.086-0.446-15.109,0.29-22.482c0.705-7.06,0.518-14.167,0.111-21.238
	c-0.215-3.734-0.177-5.068-3.654-6.031c-3.753-1.039-9.266,0.279-13.024,0.969c-2.154,0.395-10.674,1.429-10.716,2.961
	c-0.062,2.325,2.626,2.61,4.111,3.619c6.105,4.146,3.976,10.098,0.318,15.182c-4.267,5.934-10.691,10.613-16.902,14.327
	c-6.346,3.794-13.012,8.25-20.498,6.358c1.962-4.83,5.863-7.586,9.586-11.228c4.222-4.131,8.319-8.402,12.05-12.988
	c1.75-2.152,7.969-9.406,4.784-12.733c-2.797-2.92-11.626,0.98-14.772,1.352c-4.714,0.557-8.974-0.85-12.879-3.443
	c-3.818-2.534-7.481-6.054-1.473-8.381c5.399-2.092,12.344-1.674,18.061-2.162c6.256-0.533,12.514-1.042,18.773-1.527
	c5.994-0.465,11.808-1.071,17.592-2.808c2.698-0.81,5.786-1.058,6.599-3.898c0.551-1.925-0.336-4.054-1.441-5.578
	c-1.235-1.703-3.422-3.366-5.547-3.64c-3.25-0.419-4.182,1.974-6.844,2.909c-4.523,1.59-8.113-2.869-13.231-1.441
	c-6.957,1.941-18.554,13.485-24.324,4.412c-3.404-5.354-0.472-7.61,3.059-11.214c3.518-3.59,5.285-8.566,8.015-12.712
	c-3.188-0.334-5.851,0.226-8.981,0.194c-2.79-0.028-1.722,1.101-3.867-1.294c-0.948-1.058-1.832-2.734-2.374-4.018
	c-2.748-6.504,4.626-11.006,7.962-15.998c3.807-5.697,6.497-12.055,8.503-18.586c1.539-5.01,2.843-12.413,9.845-9.586
	c6.806,2.747,7.812,8.624,4.288,14.06c-2.182,3.366-4.542,6.625-6.845,9.908c-1.425,2.032-5.622,6.143-5.871,8.643
	c-0.263,2.649,1.526,3.414,4.039,2.879c3.418-0.727,5.192-3.482,6.258-6.427c0.984-2.719,1.047-5.8,4.57-6.102
	c2.833-0.243,5.063,2.406,7.913,2.374c0.255-3.005-0.197-9.149,1.846-10.832c3.28-2.703,6.407-1.207,8.895-5.442
	c3.883-6.61,2.89-12.888,4.468-19.902c0.513-2.281,0.143-2.35,3.122-2.578c1.672-0.128,2.837-0.202,4.372,0.503
	c1.994,0.916,5.914,3.964,6.569,6.17c1.261,4.253-5.318,12.705-7.21,16.34c5.198,0.885,10.516-0.104,15.474,1.931
	c2.776,1.139,5.172,2.311,5.971,5.021c0.818,2.772,0.358,6.553,0.514,9.434c6.538-3.697,9.53-9.919,12.02-16.866
	c1.26-3.515,2.406-7.1,3.489-10.674c1.012-3.342,0.77-7.76,5.166-7.978c8.205-0.407,9.826,9.667,7.156,15.25
	C548.371,658.199,542.572,663.914,540.694,671.527C546.606,672.538,541.025,670.185,540.694,671.527z M495.585,678.808
	c3.938-0.264,12.751-1.484,13.548-5.19c0.396-1.84-1.268-7.032-2.398-7.675c-1.238-0.705-4.834-0.319-6.237-0.163
	C493.084,666.604,494.259,673.01,495.585,678.808C497.559,678.675,492.862,666.902,495.585,678.808z M536.09,686.833
	c-1.773-1.751-3.885-0.378-5.949-0.374c-1.496,0.002-4.698-1.671-6.014-1.115c-3.631,1.531-1.878,11.381-0.329,14.774
	C530.046,697.862,534.002,693.014,536.09,686.833C534.041,684.81,534.005,693.005,536.09,686.833z M495.925,699.057
	c3.274-0.689,9.314-0.75,12.033-3.045c2.445-2.063,2.586-6.824-0.282-8.51c-2.14-1.258-8.537-0.718-10.633,0.54
	C493.117,690.4,495.32,695.474,495.925,699.057C499.962,698.207,495.445,696.214,495.925,699.057z M481.351,680.823
	c-3.631,4.518-7.263,9.038-10.894,13.556c3.801,2.088,7.602,4.177,11.403,6.265C484.05,694.058,482.997,687.399,481.351,680.823
	C477.065,686.156,483.275,688.512,481.351,680.823z M465.406,706.44c0.687-1.399,1.981-3.89-1.053-3.818
	C460.774,702.708,464.686,705.969,465.406,706.44C465.91,705.416,464.259,705.69,465.406,706.44z M549.896,694.437
	C546.879,693.085,546.999,695.774,549.896,694.437C549.306,694.173,549.306,694.71,549.896,694.437z M524.558,742.755
	c4.481-2.86,8.77-1.254,13.303,0.442c5.604,2.097,11.565,4.342,16.7,7.448c7.238,4.378,15.628,14.398,12.088,23.393
	c-4.155,10.556-16.954-3.757-20.872-7.707C538.39,758.883,530.626,751.294,524.558,742.755
	C529.108,739.85,526.191,745.054,524.558,742.755z M694.77,471.729c1.655-3.41,4.231-4.134,7.683-3.793
	c4.924,0.486,9.182,1.438,14.19,0.705c2.98-0.436,6.118-1.063,7.57-4.013c1.578-3.206,0.626-9.67-1.657-12.206
	c-3.206-3.564-7.618-1.43-11.678-1.158c-4.164,0.278-8.176-0.746-11.631-3.118c-0.879-0.604-3.95-2.586-4.105-3.684
	c-0.309-2.193,1.084-1.919,2.785-2.602c4.606-1.848,9.662-1.898,14.512-2.622c10.018-1.498,19.838-4.014,29.753-6.045
	c10.022-2.054,20.257-3.031,30.038-6.134c5.36-1.7,17.027,0.557,18.736,7.441c0.714,2.874-0.103,2.89-2.823,3.688
	c-1.856,0.544-3.674,0.902-5.584,1.21c-5.09,0.822-10.214,1.414-15.326,2.072c-4.052,0.521-7.06,1.17-9.008,5.062
	c-1.639,3.274-2.913,9.666-1.105,13.024c1.298,2.412,1.847,1.942,4.524,1.249c2.151-0.558,4.162-1.479,6.299-2.058
	c4.174-1.132,8.311-0.707,12.262,1.022c3.271,1.431,7.555,3.797,9.332,7.038c2.177,3.97-0.018,9.427-0.458,13.65
	c-1.162,11.149-0.417,22.175,0.29,33.318c0.671,10.567,0.894,21.198,0.992,31.786c0.045,4.878-3.823,20.626-11.798,16.801
	c-3.529-1.692-3.792-6.304-5.96-9.003c-2.236-2.784-5.515-3.038-8.838-2.858c-10.31,0.561-20.622,2.103-30.93,2.864
	c-5.324,0.393-10.714,0.49-16.018,1.084c-2.173,0.243-4.369,0.59-6.288,1.715c-1.65,0.967-2.722,2.821-4.62,3.262
	c-4.435,1.03-7.697-4.895-8.81-8.349c-1.355-4.207-0.743-9.779-0.008-14.072c1.905-11.127,2.813-21.494,1.99-32.831
	C698.302,493.407,700.375,481.534,694.77,471.729C696.818,467.512,699.43,479.881,694.77,471.729z M736.053,475.666
	c-1.795,9.632-3.482,19.159-9.598,27.15c-4.9,6.402-14.259,9.363-15.48,18.01c-0.694,4.922-0.554,10.785-0.208,15.741
	c0.066,0.954,0.282,5.53,0.947,6.202c1.13,1.143,6.494,0.216,7.878,0.073c12.163-1.258,24.244-3.015,36.438-4.1
	c4.783-0.426,12.816,0.371,17.056-2.09c1.788,0.081,2.486-0.793,2.092-2.622c0.186-1.423,0.334-2.85,0.445-4.281
	c0.221-2.841,0.299-5.694,0.222-8.542c-0.1-3.702,0.325-10.415-2.787-12.278c-4.29-2.568-11.39-1.626-16.198-3.02
	c-7.438-2.157-11.515-6.975-12.457-14.604c-0.483-3.92,1.146-10.808-0.794-14.272C741.974,474.108,739.008,475.058,736.053,475.666
	C735.37,479.334,742.469,474.346,736.053,475.666z M756.546,473.234c-0.471,4.901-3.24,13.872-0.17,18.261
	c2.475,3.538,10.71,3.976,14.401,2.638c5.616-2.038,2.947-9.779,2.194-14.295c-0.65-3.898-0.873-7.05-5.034-7.99
	C764.002,470.958,760.17,471.403,756.546,473.234C756.118,477.676,761.555,470.703,756.546,473.234z M712.986,480.832
	c-0.917,6.563-2.026,12.735,0.697,18.96c3.435-3.454,7.269-7.482,7.776-12.574c0.161-1.612,0.155-4.365-0.658-5.81
	c-1.15-2.043-0.542-1.25-3.076-1.285C716.245,480.103,714.418,480.618,712.986,480.832
	C711.346,492.566,715.758,480.418,712.986,480.832z M741.662,444.275c-2.299,2.969-10.814,19.595-2.886,20.743
	C746.559,466.146,742.522,447.748,741.662,444.275C736.906,450.414,743.473,451.595,741.662,444.275z M687.802,483.498
	c5.053,5.595,1.731,11.813-0.374,17.959c-2.69,7.856-5.479,15.678-8.222,23.515c-2.654,7.584-5.094,15.162-7.268,22.897
	c-1.606,5.713-6.235,11.856-11.78,5.492c-3.051-3.502-4.594-10.59-4.277-15.071c0.502-7.086,6.346-10.853,10.387-16.03
	C675.478,510.46,679.606,495.876,687.802,483.498C691.839,487.968,685.641,486.762,687.802,483.498z M688.501,451.378
	c-7.028,3.258-11.702-0.868-16.154-6.105c-2.265-2.664-13.327-13.911-6.896-16.978c4.282-2.042,16.631,3.964,20.091,6.607
	C690.943,439.028,691.25,445.507,688.501,451.378C683.765,453.574,691.777,444.383,688.501,451.378z M677.079,479.521
	c-0.248,7.489-7.302,8.336-12.489,4.831c-3.179-2.148-5.595-5.117-7.95-8.099c-1.666-2.11-5.673-5.828-6.026-8.574
	c-0.966-7.508,12.188-2.635,15.386-1.491C672.498,468.512,677.594,472.031,677.079,479.521
	C676.882,485.466,677.356,475.487,677.079,479.521z M729.692,531.665c-3.258,0-10.352,1.142-12.237-2.677
	c-2.26-4.578,5.034-6.066,7.858-6.879c5.233-1.506,10.73-2.215,16.101-3.072c5.044-0.804,10.647-2.261,15.766-2.19
	c2.664,0.037,8.649,0.567,9.461,3.868c0.968,3.932-4.751,5.197-7.318,6.033C749.746,529.866,739.787,531.712,729.692,531.665
	C727.252,531.665,740.593,531.716,729.692,531.665z"/>
</svg>
