<?xml version="1.0" encoding="utf-8"?>
<!-- Generator: Adobe Illustrator 20.0.0, SVG Export Plug-In . SVG Version: 6.00 Build 0)  -->
<svg version="1.1" id="Layer_1" xmlns="http://www.w3.org/2000/svg" xmlns:xlink="http://www.w3.org/1999/xlink" x="0px" y="0px"
	 viewBox="0 0 1000 1000" enable-background="new 0 0 1000 1000" xml:space="preserve">
<path d="M996.063,491.406c-0.654-12.334-0.022-24.75-2.187-36.96c-1.958-11.044-0.871-22.919-4.406-33.63
	c-3.975-12.043-4.505-25.097-7.349-37.567c-2.976-13.049-7.277-25.883-11.384-38.612c-15.808-49.003-38.951-94.36-68.664-136.359
	c-30.176-42.654-66.69-78.468-107.891-110.398c-20.078-15.561-41.686-28.176-63.925-40.338
	c-11.921-6.52-24.015-12.067-36.602-17.165c-11.427-4.629-22.385-10.445-34.184-14.108C610.295,11.002,559.631,2.071,508.129,0.224
	c-13.463-0.483-26.973-0.238-40.369,1.257c-12.198,1.362-25.616,1.328-37.341,5.074c-11.254,3.595-23.953,3.95-35.608,6.685
	c-12.427,2.916-24.992,5.603-37.236,9.22c-97.918,28.927-182.801,90.067-246.297,169.279
	c-32.446,40.477-57.744,87.101-75.864,135.622c-9.149,24.499-15.59,49.303-21.129,74.844c-2.767,12.755-3.609,25.587-5.604,38.441
	c-2,12.883-3.745,24.828-4.028,37.94c-0.3,13.905-0.969,27.861-0.616,41.77c0.309,12.157,2.008,24.259,2.501,36.426
	c0.231,5.705,0.913,11.207,2.826,16.616c1.913,5.41,2.113,10.955,3.013,16.668c2.009,12.754,5.201,25.175,8.223,37.714
	c6.057,25.138,15.461,48.888,24.152,73.18c4.164,11.64,11.455,22.958,17.211,33.969c5.964,11.409,12.294,22.651,19.057,33.607
	c26.902,43.585,63.198,84,102.344,116.953c19.836,16.698,41.413,32.221,63.945,45.074c21.288,12.143,43.274,24.159,66.355,32.495
	c11.488,4.149,22.499,9.453,34.164,13.13c12.312,3.88,24.822,7.113,37.369,10.133c12.548,3.021,25.164,5.882,37.957,7.664
	c6.677,0.93,13.331,1.316,20.046,1.788c5.488,0.385,10.363,2.663,15.891,3.006c50.271,3.127,100.358,0.547,149.255-11.24
	c24.485-5.903,49.826-12.135,73.311-21.316c11.405-4.458,22.672-10.756,33.891-15.842c11.487-5.207,22.367-11.586,33.302-17.848
	c43.268-24.775,84.219-57.509,116.745-95.379c32.73-38.107,61.34-79.122,82.655-124.793c10.868-23.287,18.23-47.322,27.083-71.341
	c8.73-23.683,13.177-50.63,16.402-75.594C994.885,541.04,996.063,515.967,996.063,491.406
	C995.325,477.471,996.063,496.657,996.063,491.406z M254.956,187.311c62.442-54.123,147.677-81.188,228.883-87.289
	c20.96-1.575,40.99,1.646,61.772,3.598c21.028,1.976,41.039,5.746,61.498,10.795c38.143,9.413,74.657,27.098,107.373,48.562
	c8.159,5.353,16.289,10.791,24.287,16.383c6.953,4.861,10.167,10.442,9.51,19.01c-1.412,18.395-8.629,37.219-17.282,53.334
	c-16.617,30.947-42.572,54.995-72,73.63c-68.898,43.629-156.428,54.444-235.376,35.999c-41.349-9.661-82.663-28.678-114.233-57.436
	c-15.48-14.102-29.331-30.394-38.928-49.097c-5.111-9.961-8.485-20.555-11.767-31.223
	C254.937,211.373,252.161,200.11,254.956,187.311C271.978,172.557,254.956,187.311,254.956,187.311z M595.718,574.564
	c-0.56,9.701-15.261,7.448-21.805,7.591c-12.143,0.266-24.286,0.534-36.428,0.8c-23.274,0.509-46.548,1.01-69.823,1.468
	c-10.835,0.214-21.677,0.314-32.509,0.634c-4.565,0.135-9.121,0.408-13.646-0.419c-4.481-0.819-3.901-0.476-5.271-4.293
	c-1.009-2.809-0.657-7.035-0.901-10.034c-1.869-22.966-1.084-46.36-1.368-69.396c-0.277-22.413-1.18-44.812-1.501-67.216
	c-0.059-4.089-0.965-9.62,2.478-12.614c2.477-2.154,7.108-1.848,10.199-1.99c12.25-0.561,24.555-0.543,36.816-0.807
	c23.518-0.506,47.036-1.007,70.554-1.505c11.009-0.233,22.017-0.465,33.026-0.697c8.382-0.177,24.455-4.644,27.514,5.779
	c1.531,5.215,0.465,11.894,0.509,17.253c0.05,6.103,0.101,12.207,0.162,18.31c0.131,13.158,0.304,26.315,0.578,39.47
	C594.839,522.626,597.199,548.863,595.718,574.564C595.483,578.632,596.018,569.352,595.718,574.564z M219.615,753.141
	c-8.298,1.412-16.988,5.995-25.076,1.466c-7.531-4.217-12.908-13.891-17.752-20.824c-11.598-16.596-22.83-34.024-31.978-52.1
	c-17.864-35.297-31.496-75.252-36.462-114.564c-2.663-21.079-6.648-42.171-6.353-63.496c0.288-20.864,2.241-42.526,5.052-63.201
	c5.535-40.709,19.017-82.445,37.823-118.922c8.996-17.449,19.09-34.733,30.3-50.861c5.218-7.507,9.538-12.147,18.855-11.579
	c10.064,0.614,20.26,1.726,30.051,4.185c37.581,9.438,70.314,35.046,93.094,65.671c48.319,64.959,64.281,152.17,52.352,231.246
	c-6.793,45.026-22.501,88.405-49.506,125.481C295.86,718.803,260.785,746.138,219.615,753.141
	C215.748,753.799,244.225,748.955,219.615,753.141z M756.209,806.121c-30.526,26.192-65.068,48.302-102.42,63.366
	c-19.26,7.767-38.47,13.655-58.348,19.594c-18.616,5.562-38.565,6.728-57.824,8.791c-21.47,2.3-41.814,3.328-63.356,1.129
	c-19.222-1.962-38.474-2.98-57.387-7.195c-39.676-8.842-78.984-23.93-114.072-44.449c-8.878-5.192-17.564-10.705-26.111-16.424
	c-1.583-1.06-3.161-2.127-4.736-3.201c-3.406-2.322-4.09-2.228-4.951-6.118c-1.143-5.168-0.448-11.608-0.129-16.811
	c1.168-19.069,7.781-37.387,16.64-54.173c17.619-33.383,46.674-59.303,79.351-77.596c35.351-19.79,75.541-32.618,115.839-36.708
	c21.414-2.174,43.08-2.336,64.581-1.747c9.328,0.256,18.699,0.884,27.815,2.984c4.457,1.027,8.745,2.844,13.256,3.61
	c5.356,0.91,10.707,0.943,16.032,2.234c21.097,5.114,41.667,14.344,61.049,23.949c17.38,8.613,33.288,19.973,47.402,33.256
	c14.97,14.089,28.308,29.58,37.016,48.304c4.531,9.742,8.649,19.697,11.648,30.026C759.972,787.436,764.075,799.373,756.209,806.121
	C742.969,817.482,759.391,803.392,756.209,806.121z M897.578,504.444c1.33,20.938-2.329,42.679-5.616,63.315
	c-3.141,19.723-8.431,39.033-14.741,57.961c-12.399,37.196-30.583,71.008-51.734,103.899c-4.39,6.827-8.392,12.175-17.076,11.635
	c-9.871-0.614-19.893-2.709-29.212-6.005c-16.289-5.763-31.733-14.414-45.478-24.846c-29.476-22.371-50.288-53.614-65.552-86.952
	c-16.995-37.118-25.789-77.06-26.654-117.779c-0.882-41.538,2.396-81.667,16.292-121.099c12.179-34.56,29.916-67.967,56.4-93.712
	c12.837-12.478,27.446-23.101,43.409-31.227c8.163-4.155,16.475-7.461,25.441-9.412c7.96-1.732,19.397-6.136,26.353-0.58
	c7.873,6.289,13.203,16.617,18.75,24.829c6.281,9.298,12.477,18.661,18.187,28.323c11,18.615,19.673,38.496,27.047,58.798
	c16.006,44.067,21.362,88.52,25.342,134.93C896.438,496.667,897.45,502.425,897.578,504.444
	C898.722,522.449,897.413,501.838,897.578,504.444z M232.509,539.671c-2.594,9.112-0.781,18.125-1.66,27.371
	c-0.925,9.734-3.544,21.451-8.79,29.803c-4.066,6.473-10.142,14.269-18.538,9.812c-8.024-4.26-14.797-15.028-20.916-21.65
	c4.729-2.013,6.138-2.513,11.108-1.316c3.248,0.782,7.067,2.365,10.284,0.478c6.387-3.745,7.541-16.981,7.69-23.474
	c0.086-3.765,0.839-7.626-4.056-6.688c-2.98,0.571-6.87,4.786-9.336,6.597c-7.934,5.828-15.7,12.173-24.503,16.658
	c-6.95,3.541-14.377,6.024-21.847,8.204c-2.812,0.821-7.075,3.018-10.109,2.319c-6.292-1.449-3.249-4.929-0.04-7.011
	c15.056-9.768,30.397-18.491,44.45-29.829c6.617-5.339,14.302-11.246,19.265-18.23c1.41-1.984,3.547-5.501,1.87-7.952
	c-2.212-3.232-6.869,0.154-9.286,2.104c-13.338,10.761-28.128,19.57-44.546,25.029c-3.092,1.028-8.216,2.261-11.536,1.072
	c-4.34-1.553-2.749-3.443,0.053-5.771c3.113-2.587,8.193-4.343,11.706-6.439c4.195-2.502,8.299-5.153,12.332-7.908
	c6.792-4.639,13.865-9.405,20.043-14.846c3.438-3.028,14.214-15.788,2.762-14.561c-7.051,0.755-14.146,7.009-20.385,9.934
	c-3.765,1.765-7.79,2.848-11.851,3.672c-2.256,0.458-11.273,3.117-13.34,1.484c-5.422-4.285,10.479-10.562,12.581-11.803
	c8.107-4.785,15.634-10.517,23.179-16.128c2.27-1.688,6.273-4.025,6.55-7.316c0.379-4.504-6.327-3.414-9.975-3.915
	c-3.823-0.525-11.687-4.048-7.886-8.797c1.981-2.476,9.926-2.674,13.107-3.324c4.858-0.994,9.717-1.983,14.578-2.957
	c10.02-2.007,20.345-4.801,30.54-5.57c4.74-0.357,17.753-1.487,17.982,6.196c0.214,7.199-15.585,8.146-20.515,9.362
	c-5.001,1.234-7.936,1.141-10.903,5.508c-2.311,3.401-4.621,6.803-6.932,10.204c-0.507,0.746-1.014,1.492-1.521,2.239
	c-2.212,1.67-2.022,3.085,0.571,4.245c0.684,1.2,3.124,3.008,3.996,3.843c2.921,2.798,7.516,8.872,11.878,9.003
	c6.184,0.185,15.537-11.163,19.688-15.252c5.182-5.103,9.729-15.392,18.155-15.218c6.072,0.126,16.309,8.778,14.237,15.356
	c-2.409,7.648-14.971,9.458-21.332,11.672c-4.692,1.633-8.872,4.256-12.985,6.991c-2.248,1.495-8.332,4.045-8.737,6.753
	c-0.684,4.565,20.178,14.697,23.968,17.022c8.815,5.407,17.536,10.309,27.532,13.173c9.132,2.617,19.095,2.659,28.021,5.769
	c2.562,0.892,9.976,3.719,7.72,7.995c-1.41,2.673-9.659,4.615-12.303,5.789c-7.97,3.538-16.527,6.253-25.26,3.904
	c-8.877-2.387-16.496-9.77-23.455-15.45C248.143,551.569,240.525,545.478,232.509,539.671
	C230.335,547.306,237.154,543.035,232.509,539.671z M200.838,433.653c-4.551-8.433-9.102-16.865-13.653-25.298
	c7.893-4.273,17.313-1.577,24.644,2.743c6.931,4.083,6.966,9.901,10.771,15.997c1.65,2.643,1.46,2.332,5.193,2.452
	c1.956,0.063,3.809-0.033,5.759-0.231c5.12-0.519,10.24-1.415,15.33-2.171c8.377-1.244,18.755-4.948,27.173-3.235
	c6.851,1.394,14.275,7.451,18.471,12.89c6.052,7.844,4.178,12.646-4.829,15.547c-8.452,2.723-19.344,7.325-28.339,7.131
	c-4.301-0.092-5.048-1.46-3.824-5.632c1.346-4.588,4.625-9.373,6.734-13.65c-11.155-3.013-23.566-0.33-34.979,1.122
	c-11.668,1.485-23.243,3.48-34.806,5.62c-10.436,1.932-23.327,2.352-33.198,6.154c-3.645,1.404-3.833,2.215-5.962,5.672
	c-1.459,2.37-2.935,4.729-4.467,7.054c-2.629,3.99-5.558,10.44-10.821,11.373c-10.791,1.913-11.87-9.619-8.91-16.804
	c2.31-5.608,5.405-11.032,8.132-16.453c1.881-3.74,3.927-11.172,7.285-13.483c3.696-2.544,6.147,0.857,8.605,3.396
	c3.937,4.066,6.148,4.072,11.732,4.012C178.319,437.737,189.698,436.23,200.838,433.653
	C195.545,423.846,185.447,437.214,200.838,433.653z M516.221,157.166c-0.348,3.396-2.212,10.915-0.162,12.576
	c2.543,2.06,10.136-0.599,12.821-1.146c8.898-1.814,17.012-4.7,25.683-0.375c6.674,3.329,8.372,7.382,6.473,14.449
	c-1.174,4.369-2.44,6.504,3.232,7.005c3.992,0.352,7.588-1.348,11.792-0.519c4.505,0.888,16.363,5.332,15.276,11.293
	c-1.4,7.678-19.421,4.709-24.677,4.655c-3.267-0.034-9.359-0.579-12.101,1.732c-2.554,2.151-4.796,9.67-4.742,12.879
	c0.131,7.767,6.181,16.229,11.415,21.352c20.401,19.968-28.165,15.192-22.724,25.393c0.93,1.744,7.806,3.356,9.223,3.914
	c4.304,1.696,8.661,3.268,12.918,5.082c7.265,3.096,13.803,7.189,17.859,14.203c3.802,6.576,3.265,15.683-6.34,14.136
	c-9.482-1.527-18.323-9.376-25.676-14.888c-5.964-4.471-14.908-14.456-22.945-15.077c-4.554-0.352-5.064,2.401-5.027,6.84
	c0.044,5.292,0.513,10.398-0.041,15.722c-0.838,8.058-1.276,20.056-9.278,24.578c-9.94,5.617-17.8-7.616-23.503-13.927
	c-2.783-3.079-7.766-7.641-2.933-10.459c3.451-2.012,8.169,0.402,11.812-0.257c9.689-1.751,5.718-18.51,4.34-25.231
	c-12.593,6.855-22.284,18.718-33.341,27.77c-5.412,4.43-11.136,6.365-17.55,2.626c-3.711-2.163-11.332-8.031-7.831-12.626
	c3.211-4.215,14.134-6.311,18.973-8.317c4.821-1.998,11.218-3.704,15.102-7.357c3.127-2.941,3.134-4.093,0.332-7.085
	c-2.463-2.63-4.948-5.229-7.469-7.802c-4.319-4.408-7.727-8.774-8.87-15.023c2.12-0.458,5.95-0.604,7.822-1.688
	c0.872-0.188,1.743-0.376,2.615-0.564c-0.284-1.878-0.567-3.757-0.851-5.635c0.25-3.539-0.434-3.646,3.147-5.399
	c1.858-0.91,3.877-1.227,5.887-1.586c4.529-0.807,29.292-2.072,22.585-12.217c-4.216-6.377-21.69,0.833-27.593,1.328
	c-2.664,0.223-5.339,0.29-8.011,0.2c-0.915-0.05-1.83-0.099-2.745-0.149c-2.493-1.155-3.68-0.376-3.562,2.337
	c-2.91,4.329-3.984,12.581-5.292,17.649c-5.366,20.785-13.029,38.692-26.102,55.932c-3.738,4.93-13.271,16.535-20.717,14.859
	c-7.666-1.726,8.043-18.259,10.224-21.769c11.593-18.665,20.202-40.196,24.79-61.657c2.219-10.376,3.212-20.847,4.171-31.398
	c0.855-9.397,4.488-20.826-2.232-28.932c-2.298-2.772-7.401-4.166-5.628-8.397c1.573-3.753,8.785-3.608,11.917-4.074
	c12.615-1.88,25.461-3.109,37.963-5.644c2.191-0.444,5.733-0.781,7.681-1.876c2.983-1.676,3.156-0.808,2.36-4.705
	c-0.769-3.763-3.057-6.812-4.861-10.108c-5.649-10.32,2.033-12.485,11.305-8.698c4.776,1.951,10.441,4.845,13.131,9.361
	c1.269,2.131,1.403,4.897,2.624,6.955c-0.089,2.388,1.061,3.531,3.448,3.43c1.715,0.416,3.453,0.606,5.217,0.572
	c5.924-0.212,10.92-3.91,16.871-4.547c5.136-0.55,11.489-1.262,16.296,0.932c3.22,1.469,9.571,5.316,7.96,9.648
	c-1.608,4.326-12.619,4.001-16.395,4.455C540.424,153.32,527.526,153.276,516.221,157.166
	C515.813,161.15,518.146,156.504,516.221,157.166z M464.27,180.083c7.909-0.769,16.11-0.996,23.827-3.033
	c3.923-1.035,7.087-1.531,8.135-5.307c0.774-2.791-0.19-8.105-2.103-10.386c-4.325-5.157-16.314-0.783-22.079,0.434
	c-4.84,1.022-6.898,2.071-8.177,7.257C462.983,172.655,463.593,176.499,464.27,180.083
	C469.888,179.537,463.126,174.028,464.27,180.083z M516.973,264.951c7.55-1.558,11.352-6.703,16.38-12.494
	c2.462-2.835,5.014-5.751,6.704-9.136c0.589-1.181,1.719-3.139,1.72-4.48c0.001-3.242,0.117-2.92-3.696-3.586
	c-5.769-1.008-17.855-0.979-20.772,5.143C514.42,246.46,516.871,258.366,516.973,264.951
	C519.615,264.406,516.852,257.123,516.973,264.951z M464.21,186.763c-3.226,3.847-8.166,13.463-1.345,16.501
	c3.106,1.384,8.436-0.42,11.498-0.941c4.969-0.846,9.949-1.726,14.885-2.749c3.05-0.632,7.065-1.076,8.539-4.348
	c1.708-3.791-1.025-6.038-4.466-6.776c-4.012-0.861-9.095,0.518-13.191,0.583C474.729,189.118,469.3,188.723,464.21,186.763
	C462.993,188.214,472.871,190.098,464.21,186.763z M499.528,265.075c0.034-5.142,0.539-10.283,0.333-15.425
	c-0.081-2.015,0.089-4.762-0.721-6.676c-1.501-3.546-1.746-2.665-5.731-2.534c-5.266,0.173-9.009,0.851-13.584,3.456
	c3.208,4.544,6.338,8.189,7.848,13.632c0.283,1.019,0.795,6.331,1.557,6.989C490.549,265.654,497.723,264.977,499.528,265.075
	C499.587,256.258,495.595,264.861,499.528,265.075z M537.614,193.58c0.86-4.508,3.163-9.704-2.103-11.533
	c-2.821-0.979-16.685,1.203-18.988,3.275c-3.608,3.244-1.737,9.324,2.56,10.547C524.074,197.29,532.535,194.296,537.614,193.58
	C538.157,190.731,532.006,194.37,537.614,193.58z M533.384,208.526c-7.148-1.829-19.582-0.088-17.257,9.67
	c1.651,6.93,5.74,3.882,11.354,2.459c3.981-1.01,3.102-0.923,4.492-4.248C532.916,214.149,532.952,210.934,533.384,208.526
	C526.793,206.84,532.635,212.704,533.384,208.526z M550.868,714.409c8.553,1.461,11.258-0.988,13.861-8.952
	c2.873-8.789,7.8-10.224,14.009-2.515c6.268,7.781-2.096,14.452-6.688,20.689c-1.893,2.572-5.894,7.91-4.132,10.104
	c2.17,2.702,8.727,4.105,11.753,6.052c6.133,3.945,9.615,10.687,6.949,17.938c-3.827,10.411-10.808,0.838-17.383-0.427
	c-8.822-1.697-15.826,4.292-23.306,7.692c-8.101,3.682-11.822-2.233-17.341-7.593c-1.981,2.121-5.03,7.186-8.168,7.422
	c-2.45,0.184-4.083-1.905-6.173-2.672c-1.498-0.55-6.089-1.782-6.622,0.966c-0.273,1.412,4.769,6.683,5.476,8.617
	c1.56,4.264,0.504,6.652,5.645,7.196c4.253,0.45,9.068-0.574,13.301-1.011c9.335-0.963,18.75-1.818,27.979-3.548
	c8.509-1.595,17.129-4.317,25.786-2.14c3.967,0.998,17.755,5.969,16.067,12.131c-1.796,6.556-15.089,6.345-19.859,6.391
	c-9.939,0.095-19.878,0.188-29.816,0.351c-9.478,0.156-19.161-0.209-28.6,0.721c-3.569,0.352-8.294,0.486-10.268,3.426
	c-2.406,3.585-1.281,9.662-1.164,13.757c0.271,9.434,0.328,18.871,0.646,28.306c0.278,8.231,1.219,18.421-4.961,25.16
	c-4.881,5.323-10.016,0.284-12.368-4.767c-4.124-8.857-0.557-18.886,0.363-28.102c0.881-8.825,0.648-17.709,0.139-26.548
	c-0.269-4.668-0.221-6.335-4.568-7.539c-4.691-1.299-11.582,0.349-16.28,1.211c-2.693,0.494-13.343,1.786-13.395,3.701
	c-0.078,2.906,3.283,3.263,5.139,4.524c7.631,5.182,4.97,12.622,0.398,18.978c-5.334,7.418-13.364,13.266-21.128,17.909
	c-7.932,4.743-16.265,10.312-25.623,7.947c2.453-6.038,7.329-9.483,11.983-14.035c5.278-5.164,10.399-10.503,15.062-16.235
	c2.188-2.69,9.961-11.758,5.98-15.916c-3.496-3.65-14.532,1.225-18.465,1.69c-5.893,0.696-11.217-1.063-16.099-4.304
	c-4.773-3.168-9.351-7.567-1.841-10.476c6.749-2.615,15.43-2.093,22.576-2.702c7.82-0.666,15.642-1.303,23.466-1.909
	c7.492-0.581,14.76-1.339,21.99-3.51c3.372-1.013,7.232-1.323,8.249-4.872c0.689-2.406-0.42-5.068-1.801-6.972
	c-1.544-2.129-4.278-4.207-6.934-4.55c-4.063-0.524-5.228,2.467-8.555,3.636c-5.654,1.988-10.141-3.586-16.539-1.801
	c-8.696,2.426-23.193,16.856-30.405,5.515c-4.255-6.692-0.59-9.513,3.824-14.017c4.398-4.487,6.606-10.708,10.019-15.89
	c-3.985-0.417-7.314,0.282-11.226,0.242c-3.487-0.035-2.153,1.376-4.834-1.617c-1.185-1.323-2.29-3.418-2.968-5.023
	c-3.435-8.13,5.783-13.758,9.953-19.997c4.759-7.121,8.121-15.069,10.629-23.233c1.924-6.263,3.554-15.516,12.306-11.983
	c8.508,3.434,9.765,10.78,5.36,17.575c-2.728,4.207-5.678,8.281-8.556,12.385c-1.781,2.54-7.028,7.679-7.339,10.804
	c-0.329,3.311,1.908,4.267,5.049,3.599c4.273-0.909,6.49-4.353,7.822-8.034c1.23-3.399,1.309-7.25,5.713-7.627
	c3.541-0.304,6.329,3.008,9.891,2.968c0.319-3.756-0.246-11.436,2.307-13.54c4.1-3.379,8.009-1.509,11.119-6.802
	c4.854-8.262,3.613-16.11,5.585-24.877c0.641-2.851,0.179-2.937,3.902-3.222c2.09-0.16,3.546-0.252,5.465,0.629
	c2.493,1.145,7.393,4.955,8.211,7.713c1.576,5.316-6.647,15.881-9.013,20.425c6.497,1.106,13.145-0.13,19.343,2.414
	c3.47,1.424,6.465,2.889,7.464,6.276c1.022,3.465,0.447,8.191,0.643,11.793c8.172-4.621,11.912-12.399,15.025-21.083
	c1.575-4.394,3.008-8.875,4.361-13.343c1.265-4.178,0.963-9.7,6.457-9.972c10.256-0.509,12.282,12.084,8.945,19.063
	C560.464,697.749,553.215,704.892,550.868,714.409C558.257,715.672,551.281,712.731,550.868,714.409z M494.481,723.51
	c4.923-0.33,15.939-1.855,16.935-6.488c0.495-2.3-1.585-8.79-2.997-9.594c-1.548-0.881-6.043-0.399-7.796-0.204
	C491.355,708.255,492.824,716.263,494.481,723.51C496.949,723.344,491.077,708.627,494.481,723.51z M545.112,733.541
	c-2.216-2.189-4.856-0.473-7.436-0.468c-1.87,0.003-5.872-2.089-7.518-1.394c-4.539,1.914-2.347,14.226-0.411,18.468
	C537.558,747.327,542.502,741.267,545.112,733.541C542.551,731.012,542.506,741.256,545.112,733.541z M494.906,748.821
	c4.092-0.861,11.643-0.938,15.041-3.806c3.056-2.579,3.233-8.53-0.352-10.637c-2.675-1.573-10.671-0.898-13.291,0.675
	C491.396,738,494.15,744.342,494.906,748.821C499.953,747.759,494.306,745.267,494.906,748.821z M476.689,726.029
	c-4.539,5.648-9.079,11.297-13.618,16.945c4.751,2.61,9.502,5.221,14.254,7.831C480.063,742.573,478.746,734.249,476.689,726.029
	C471.331,732.695,479.094,735.64,476.689,726.029z M456.758,758.05c0.859-1.749,2.476-4.862-1.316-4.772
	C450.968,753.385,455.857,757.461,456.758,758.05C457.387,756.77,455.324,757.112,456.758,758.05z M562.37,743.046
	C558.599,741.356,558.749,744.718,562.37,743.046C561.633,742.716,561.633,743.387,562.37,743.046z M530.697,803.444
	c5.601-3.575,10.963-1.567,16.629,0.553c7.005,2.621,14.456,5.428,20.875,9.31c9.048,5.472,19.535,17.998,15.11,29.241
	c-5.194,13.195-21.192-4.696-26.09-9.634C547.988,823.604,538.282,814.117,530.697,803.444
	C536.385,799.813,532.739,806.318,530.697,803.444z M743.463,464.661c2.069-4.262,5.289-5.167,9.604-4.741
	c6.155,0.607,11.478,1.797,17.738,0.881c3.725-0.545,7.647-1.329,9.462-5.016c1.973-4.007,0.782-12.087-2.071-15.258
	c-4.008-4.455-9.522-1.787-14.597-1.448c-5.205,0.348-10.22-0.933-14.539-3.898c-1.099-0.755-4.938-3.233-5.131-4.605
	c-0.386-2.741,1.355-2.399,3.481-3.252c5.758-2.31,12.078-2.372,18.14-3.278c12.522-1.873,24.798-5.017,37.191-7.556
	c12.527-2.567,25.321-3.789,37.548-7.667c6.7-2.125,21.284,0.696,23.42,9.301c0.892,3.593-0.129,3.612-3.529,4.61
	c-2.32,0.68-4.593,1.127-6.98,1.513c-6.363,1.028-12.767,1.768-19.158,2.59c-5.065,0.651-8.825,1.463-11.26,6.328
	c-2.049,4.093-3.641,12.083-1.381,16.28c1.623,3.015,2.309,2.428,5.655,1.561c2.689-0.697,5.203-1.849,7.874-2.573
	c5.217-1.415,10.389-0.884,15.328,1.277c4.089,1.789,9.444,4.746,11.665,8.798c2.721,4.963-0.022,11.784-0.572,17.062
	c-1.453,13.936-0.521,27.719,0.363,41.647c0.839,13.209,1.118,26.498,1.24,39.732c0.056,6.098-4.779,25.782-14.747,21.001
	c-4.411-2.115-4.74-7.88-7.45-11.254c-2.795-3.48-6.894-3.798-11.048-3.573c-12.887,0.701-25.778,2.629-38.663,3.58
	c-6.655,0.491-13.393,0.612-20.023,1.355c-2.716,0.304-5.461,0.738-7.86,2.144c-2.063,1.209-3.402,3.526-5.775,4.077
	c-5.544,1.288-9.621-6.119-11.012-10.436c-1.694-5.259-0.929-12.224-0.01-17.59c2.381-13.909,3.516-26.868,2.488-41.039
	C747.877,491.759,750.469,476.917,743.463,464.661C746.022,459.39,749.288,474.851,743.463,464.661z M795.066,469.583
	c-2.244,12.04-4.353,23.949-11.997,33.937c-6.125,8.003-17.824,11.704-19.35,22.513c-0.868,6.153-0.693,13.481-0.26,19.676
	c0.083,1.193,0.353,6.913,1.184,7.753c1.413,1.429,8.118,0.27,9.848,0.091c15.204-1.573,30.305-3.769,45.547-5.125
	c5.979-0.532,16.02,0.464,21.32-2.612c2.235,0.101,3.107-0.991,2.615-3.277c0.232-1.779,0.418-3.562,0.556-5.351
	c0.276-3.551,0.374-7.118,0.278-10.678c-0.125-4.628,0.406-13.019-3.484-15.347c-5.363-3.21-14.237-2.032-20.248-3.775
	c-9.298-2.696-14.394-8.719-15.571-18.255c-0.604-4.9,1.432-13.51-0.992-17.84C802.467,467.635,798.76,468.823,795.066,469.583
	C794.212,474.167,803.086,467.933,795.066,469.583z M820.682,466.543c-0.589,6.126-4.05,17.34-0.212,22.826
	c3.094,4.422,13.388,4.97,18.001,3.297c7.02-2.548,3.684-12.224,2.742-17.869c-0.813-4.872-1.091-8.812-6.293-9.988
	C830.002,463.698,825.212,464.254,820.682,466.543C820.148,472.095,826.944,463.379,820.682,466.543z M766.232,476.04
	c-1.146,8.204-2.533,15.919,0.871,23.7c4.294-4.318,9.086-9.352,9.72-15.717c0.201-2.015,0.194-5.456-0.823-7.263
	c-1.437-2.554-0.677-1.562-3.845-1.606C770.306,475.129,768.023,475.772,766.232,476.04
	C764.183,490.708,769.698,475.522,766.232,476.04z M802.078,430.344c-2.874,3.711-13.518,24.494-3.607,25.929
	C808.199,457.682,803.152,434.685,802.078,430.344C796.133,438.018,804.341,439.494,802.078,430.344z M734.753,479.372
	c6.316,6.994,2.164,14.766-0.468,22.449c-3.363,9.82-6.849,19.597-10.278,29.394c-3.318,9.48-6.367,18.953-9.085,28.621
	c-2.008,7.141-7.794,14.82-14.725,6.865c-3.814-4.378-5.743-13.238-5.346-18.839c0.628-8.857,7.932-13.566,12.984-20.038
	C719.347,513.075,724.507,494.845,734.753,479.372C739.799,484.96,732.051,483.453,734.753,479.372z M735.626,439.223
	c-8.785,4.073-14.627-1.085-20.192-7.631c-2.831-3.33-16.659-17.389-8.62-21.223c5.353-2.553,20.789,4.955,25.114,8.259
	C738.679,423.785,739.063,431.884,735.626,439.223C729.706,441.968,739.721,430.479,735.626,439.223z M721.349,474.401
	c-0.31,9.361-9.127,10.42-15.611,6.039c-3.974-2.685-6.994-6.396-9.937-10.124c-2.083-2.638-7.091-7.285-7.533-10.717
	c-1.208-9.385,15.235-3.294,19.232-1.864C715.622,460.64,721.992,465.039,721.349,474.401
	C721.103,481.833,721.695,469.359,721.349,474.401z M787.115,539.581c-4.073,0-12.94,1.427-15.296-3.346
	c-2.825-5.723,6.292-7.583,9.822-8.599c6.541-1.882,13.412-2.769,20.126-3.84c6.305-1.005,13.309-2.826,19.708-2.738
	c3.33,0.046,10.811,0.709,11.826,4.835c1.21,4.915-5.939,6.496-9.147,7.541C812.182,537.333,799.734,539.64,787.115,539.581
	C784.065,539.581,800.741,539.645,787.115,539.581z"/>
<g>
</g>
<g>
</g>
<g>
</g>
<g>
</g>
<g>
</g>
<g>
</g>
<g>
</g>
<g>
</g>
<g>
</g>
<g>
</g>
<g>
</g>
<g>
</g>
<g>
</g>
<g>
</g>
<g>
</g>
</svg>
