<?xml version="1.0" encoding="utf-8"?>
<!-- Generator: Adobe Illustrator 20.0.0, SVG Export Plug-In . SVG Version: 6.00 Build 0)  -->
<svg version="1.1" id="Layer_1" xmlns="http://www.w3.org/2000/svg" xmlns:xlink="http://www.w3.org/1999/xlink" x="0px" y="0px"
	 viewBox="0 0 1280 400" enable-background="new 0 0 1280 400" xml:space="preserve">
<g>
	<path d="M280.165,198.282c-0.131-2.467-0.004-4.95-0.437-7.392c-0.392-2.209-0.174-4.584-0.881-6.726
		c-0.795-2.409-0.901-5.019-1.47-7.513c-0.595-2.61-1.455-5.177-2.277-7.722c-3.162-9.801-7.79-18.872-13.733-27.272
		c-6.035-8.531-13.338-15.694-21.578-22.08c-4.016-3.112-8.337-5.635-12.785-8.068c-2.384-1.304-4.803-2.413-7.32-3.433
		c-2.285-0.926-4.477-2.089-6.837-2.822c-9.835-3.053-19.968-4.84-30.268-5.209c-2.693-0.097-5.395-0.048-8.074,0.251
		c-2.44,0.272-5.123,0.266-7.468,1.015c-2.251,0.719-4.791,0.79-7.122,1.337c-2.485,0.583-4.998,1.121-7.447,1.844
		c-19.584,5.785-36.56,18.013-49.259,33.856c-6.489,8.095-11.549,17.42-15.173,27.124c-1.83,4.9-3.118,9.861-4.226,14.969
		c-0.553,2.551-0.722,5.117-1.121,7.688c-0.4,2.577-0.749,4.966-0.806,7.588c-0.06,2.781-0.194,5.572-0.123,8.354
		c0.062,2.431,0.402,4.852,0.5,7.285c0.046,1.141,0.183,2.241,0.565,3.323c0.383,1.082,0.423,2.191,0.603,3.334
		c0.402,2.551,1.04,5.035,1.645,7.543c1.211,5.028,3.092,9.778,4.83,14.636c0.833,2.328,2.291,4.592,3.442,6.794
		c1.193,2.282,2.459,4.53,3.811,6.721c5.38,8.717,12.64,16.8,20.469,23.391c3.967,3.34,8.283,6.444,12.789,9.015
		c4.258,2.429,8.655,4.832,13.271,6.499c2.298,0.83,4.5,1.891,6.833,2.626c2.462,0.776,4.964,1.423,7.474,2.027
		s5.033,1.176,7.591,1.533c1.335,0.186,2.666,0.263,4.009,0.358c1.098,0.077,2.073,0.533,3.178,0.601
		c10.054,0.625,20.072,0.109,29.851-2.248c4.897-1.181,9.965-2.427,14.662-4.263c2.281-0.892,4.534-2.151,6.778-3.168
		c2.297-1.041,4.473-2.317,6.66-3.57c8.654-4.955,16.844-11.502,23.349-19.076c6.546-7.621,12.268-15.824,16.531-24.959
		c2.174-4.657,3.646-9.464,5.417-14.268c1.746-4.737,2.635-10.126,3.28-15.119C279.929,208.208,280.165,203.194,280.165,198.282
		C280.017,195.495,280.165,199.332,280.165,198.282z M131.943,137.463c12.488-10.825,29.535-16.238,45.777-17.458
		c4.192-0.315,8.198,0.329,12.354,0.72c4.206,0.395,8.208,1.149,12.3,2.159c7.629,1.883,14.931,5.42,21.475,9.712
		c1.632,1.071,3.258,2.158,4.857,3.277c1.391,0.972,2.033,2.088,1.902,3.802c-0.282,3.679-1.726,7.444-3.456,10.667
		c-3.323,6.189-8.514,10.999-14.4,14.726c-13.78,8.726-31.286,10.889-47.075,7.2c-8.27-1.932-16.533-5.736-22.847-11.487
		c-3.096-2.82-5.866-6.079-7.786-9.819c-1.022-1.992-1.697-4.111-2.353-6.245C131.939,142.275,131.384,140.022,131.943,137.463
		C135.348,134.512,131.943,137.463,131.943,137.463z M200.096,214.913c-0.112,1.94-3.052,1.49-4.361,1.518
		c-2.429,0.053-4.857,0.107-7.286,0.16c-4.655,0.102-9.31,0.202-13.965,0.294c-2.167,0.043-4.335,0.063-6.502,0.127
		c-0.913,0.027-1.824,0.082-2.729-0.084c-0.896-0.164-0.78-0.095-1.054-0.859c-0.202-0.562-0.131-1.407-0.18-2.007
		c-0.374-4.593-0.217-9.272-0.274-13.879c-0.055-4.483-0.236-8.962-0.3-13.443c-0.012-0.818-0.193-1.924,0.496-2.523
		c0.495-0.431,1.422-0.37,2.04-0.398c2.45-0.112,4.911-0.109,7.363-0.161c4.704-0.101,9.407-0.201,14.111-0.301
		c2.202-0.047,4.403-0.093,6.605-0.139c1.676-0.035,4.891-0.929,5.503,1.156c0.306,1.043,0.093,2.379,0.102,3.451
		c0.01,1.221,0.02,2.441,0.032,3.662c0.026,2.632,0.061,5.263,0.116,7.894C199.92,204.526,200.392,209.773,200.096,214.913
		C200.049,215.727,200.156,213.871,200.096,214.913z M124.875,250.629c-1.66,0.282-3.398,1.199-5.015,0.293
		c-1.506-0.843-2.582-2.778-3.55-4.165c-2.32-3.319-4.566-6.805-6.396-10.42c-3.573-7.059-6.299-15.05-7.292-22.913
		c-0.533-4.216-1.33-8.434-1.271-12.699c0.058-4.173,0.448-8.505,1.01-12.64c1.107-8.142,3.803-16.489,7.565-23.784
		c1.799-3.49,3.818-6.947,6.06-10.172c1.044-1.501,1.908-2.429,3.771-2.316c2.013,0.123,4.052,0.345,6.01,0.837
		c7.516,1.888,14.063,7.009,18.619,13.134c9.664,12.992,12.856,30.434,10.47,46.249c-1.359,9.005-4.5,17.681-9.901,25.096
		C140.124,243.761,133.109,249.228,124.875,250.629C124.102,250.76,129.797,249.791,124.875,250.629z M232.194,261.225
		c-6.105,5.238-13.014,9.66-20.484,12.673c-3.852,1.553-7.694,2.731-11.67,3.919c-3.723,1.112-7.713,1.346-11.565,1.758
		c-4.294,0.46-8.363,0.666-12.671,0.226c-3.844-0.392-7.695-0.596-11.477-1.439c-7.935-1.768-15.797-4.786-22.814-8.89
		c-1.776-1.038-3.513-2.141-5.222-3.285c-0.317-0.212-0.632-0.425-0.947-0.64c-0.681-0.464-0.818-0.446-0.99-1.224
		c-0.229-1.034-0.09-2.322-0.026-3.362c0.234-3.814,1.556-7.477,3.328-10.835c3.524-6.677,9.335-11.861,15.87-15.519
		c7.07-3.958,15.108-6.524,23.168-7.342c4.283-0.435,8.616-0.467,12.916-0.349c1.866,0.051,3.74,0.177,5.563,0.597
		c0.891,0.205,1.749,0.569,2.651,0.722c1.071,0.182,2.141,0.189,3.206,0.447c4.219,1.023,8.333,2.869,12.21,4.79
		c3.476,1.723,6.658,3.995,9.48,6.651c2.994,2.818,5.662,5.916,7.403,9.661c0.906,1.948,1.73,3.939,2.33,6.005
		C232.946,257.488,233.767,259.875,232.194,261.225C229.546,263.497,232.83,260.679,232.194,261.225z M260.468,200.889
		c0.266,4.188-0.466,8.536-1.123,12.663c-0.628,3.945-1.686,7.807-2.948,11.592c-2.48,7.439-6.117,14.202-10.347,20.78
		c-0.878,1.365-1.678,2.435-3.415,2.327c-1.974-0.123-3.979-0.542-5.842-1.201c-3.258-1.153-6.347-2.883-9.096-4.969
		c-5.895-4.474-10.058-10.723-13.11-17.39c-3.399-7.424-5.158-15.412-5.331-23.556c-0.176-8.308,0.479-16.333,3.258-24.22
		c2.436-6.912,5.983-13.593,11.28-18.742c2.567-2.496,5.489-4.62,8.682-6.245c1.633-0.831,3.295-1.492,5.088-1.882
		c1.592-0.346,3.879-1.227,5.271-0.116c1.575,1.258,2.641,3.323,3.75,4.966c1.256,1.86,2.495,3.732,3.637,5.665
		c2.2,3.723,3.935,7.699,5.409,11.76c3.201,8.813,4.272,17.704,5.068,26.986C260.24,199.334,260.442,200.485,260.468,200.889
		C260.696,204.49,260.435,200.368,260.468,200.889z M127.454,207.935c-0.519,1.822-0.156,3.625-0.332,5.474
		c-0.185,1.947-0.709,4.29-1.758,5.961c-0.813,1.295-2.028,2.854-3.708,1.962c-1.605-0.852-2.959-3.006-4.183-4.33
		c0.946-0.403,1.228-0.503,2.222-0.263c0.65,0.156,1.413,0.473,2.057,0.096c1.277-0.749,1.508-3.396,1.538-4.695
		c0.017-0.753,0.168-1.525-0.811-1.338c-0.596,0.114-1.374,0.957-1.867,1.319c-1.587,1.166-3.14,2.435-4.901,3.332
		c-1.39,0.708-2.875,1.205-4.369,1.641c-0.562,0.164-1.415,0.604-2.022,0.464c-1.258-0.29-0.65-0.986-0.008-1.402
		c3.011-1.954,6.079-3.698,8.89-5.966c1.323-1.068,2.86-2.249,3.853-3.646c0.282-0.397,0.709-1.1,0.374-1.59
		c-0.442-0.646-1.374,0.031-1.857,0.421c-2.668,2.152-5.626,3.914-8.909,5.006c-0.618,0.206-1.643,0.452-2.307,0.214
		c-0.868-0.311-0.55-0.689,0.011-1.154c0.623-0.517,1.639-0.869,2.341-1.288c0.839-0.5,1.66-1.031,2.466-1.582
		c1.358-0.928,2.773-1.881,4.009-2.969c0.688-0.606,2.843-3.158,0.552-2.912c-1.41,0.151-2.829,1.402-4.077,1.987
		c-0.753,0.353-1.558,0.57-2.37,0.734c-0.451,0.092-2.255,0.623-2.668,0.297c-1.084-0.857,2.096-2.112,2.516-2.361
		c1.621-0.957,3.127-2.103,4.636-3.226c0.454-0.338,1.255-0.805,1.31-1.463c0.076-0.901-1.265-0.683-1.995-0.783
		c-0.765-0.105-2.337-0.81-1.577-1.759c0.396-0.495,1.985-0.535,2.621-0.665c0.972-0.199,1.943-0.397,2.916-0.591
		c2.004-0.401,4.069-0.96,6.108-1.114c0.948-0.071,3.551-0.297,3.596,1.239c0.043,1.44-3.117,1.629-4.103,1.872
		c-1,0.247-1.587,0.228-2.181,1.102c-0.462,0.68-0.924,1.361-1.386,2.041c-0.101,0.149-0.203,0.298-0.304,0.448
		c-0.442,0.334-0.404,0.617,0.114,0.849c0.137,0.24,0.625,0.602,0.799,0.769c0.584,0.56,1.503,1.774,2.376,1.801
		c1.237,0.037,3.107-2.233,3.938-3.05c1.036-1.021,1.946-3.078,3.631-3.044c1.214,0.025,3.262,1.756,2.847,3.071
		c-0.482,1.53-2.994,1.892-4.266,2.334c-0.938,0.327-1.774,0.851-2.597,1.398c-0.45,0.299-1.666,0.809-1.747,1.351
		c-0.137,0.913,4.036,2.939,4.794,3.404c1.763,1.081,3.507,2.062,5.506,2.635c1.826,0.523,3.819,0.532,5.604,1.154
		c0.512,0.178,1.995,0.744,1.544,1.599c-0.282,0.535-1.932,0.923-2.461,1.158c-1.594,0.708-3.305,1.251-5.052,0.781
		c-1.775-0.477-3.299-1.954-4.691-3.09C130.581,210.314,129.057,209.096,127.454,207.935
		C127.019,209.462,128.383,208.607,127.454,207.935z M121.12,186.731c-0.91-1.687-1.82-3.373-2.731-5.06
		c1.579-0.855,3.463-0.315,4.929,0.549c1.386,0.817,1.393,1.98,2.154,3.199c0.33,0.529,0.292,0.466,1.039,0.49
		c0.391,0.013,0.762-0.007,1.152-0.046c1.024-0.104,2.048-0.283,3.066-0.434c1.675-0.249,3.751-0.99,5.435-0.647
		c1.37,0.279,2.855,1.49,3.694,2.578c1.21,1.569,0.836,2.529-0.966,3.109c-1.69,0.545-3.869,1.465-5.668,1.426
		c-0.86-0.018-1.01-0.292-0.765-1.126c0.269-0.918,0.925-1.875,1.347-2.73c-2.231-0.603-4.713-0.066-6.996,0.224
		c-2.334,0.297-4.649,0.696-6.961,1.124c-2.087,0.386-4.665,0.47-6.64,1.231c-0.729,0.281-0.767,0.443-1.192,1.134
		c-0.292,0.474-0.587,0.946-0.893,1.411c-0.526,0.798-1.112,2.088-2.164,2.275c-2.158,0.383-2.374-1.924-1.782-3.361
		c0.462-1.122,1.081-2.206,1.626-3.291c0.376-0.748,0.785-2.234,1.457-2.697c0.739-0.509,1.229,0.171,1.721,0.679
		c0.787,0.813,1.23,0.814,2.346,0.802C116.616,187.548,118.892,187.246,121.12,186.731
		C120.061,184.77,118.041,187.443,121.12,186.731z M184.196,131.434c-0.07,0.679-0.442,2.183-0.032,2.515
		c0.509,0.412,2.027-0.12,2.564-0.229c1.78-0.363,3.402-0.94,5.137-0.075c1.335,0.666,1.674,1.476,1.295,2.89
		c-0.235,0.874-0.488,1.301,0.646,1.401c0.798,0.07,1.518-0.27,2.358-0.104c0.901,0.178,3.273,1.066,3.055,2.259
		c-0.28,1.536-3.884,0.942-4.935,0.931c-0.653-0.007-1.872-0.116-2.42,0.346c-0.511,0.43-0.959,1.934-0.948,2.576
		c0.026,1.553,1.236,3.246,2.283,4.27c4.08,3.994-5.633,3.038-4.545,5.079c0.186,0.349,1.561,0.671,1.845,0.783
		c0.861,0.339,1.732,0.654,2.584,1.016c1.453,0.619,2.761,1.438,3.572,2.841c0.76,1.315,0.653,3.137-1.268,2.827
		c-1.896-0.305-3.665-1.875-5.135-2.978c-1.193-0.894-2.982-2.891-4.589-3.015c-0.911-0.07-1.013,0.48-1.005,1.368
		c0.009,1.058,0.103,2.08-0.008,3.144c-0.168,1.612-0.255,4.011-1.856,4.916c-1.988,1.123-3.56-1.523-4.701-2.785
		c-0.557-0.616-1.553-1.528-0.587-2.092c0.69-0.402,1.634,0.08,2.362-0.051c1.938-0.35,1.144-3.702,0.868-5.046
		c-2.519,1.371-4.457,3.744-6.668,5.554c-1.082,0.886-2.227,1.273-3.51,0.525c-0.742-0.433-2.266-1.606-1.566-2.525
		c0.642-0.843,2.827-1.262,3.795-1.663c0.964-0.4,2.244-0.741,3.02-1.471c0.625-0.588,0.627-0.819,0.066-1.417
		c-0.493-0.526-0.99-1.046-1.494-1.56c-0.864-0.882-1.545-1.755-1.774-3.005c0.424-0.092,1.19-0.121,1.564-0.338
		c0.174-0.038,0.349-0.075,0.523-0.113c-0.057-0.376-0.113-0.751-0.17-1.127c0.05-0.708-0.087-0.729,0.629-1.08
		c0.372-0.182,0.775-0.245,1.177-0.317c0.906-0.161,5.858-0.414,4.517-2.443c-0.843-1.275-4.338,0.167-5.519,0.266
		c-0.533,0.045-1.068,0.058-1.602,0.04c-0.183-0.01-0.366-0.02-0.549-0.03c-0.499-0.231-0.736-0.075-0.712,0.467
		c-0.582,0.866-0.797,2.516-1.058,3.53c-1.073,4.157-2.606,7.738-5.22,11.186c-0.748,0.986-2.654,3.307-4.143,2.972
		c-1.533-0.345,1.609-3.652,2.045-4.354c2.319-3.733,4.04-8.039,4.958-12.331c0.444-2.075,0.642-4.169,0.834-6.28
		c0.171-1.879,0.898-4.165-0.446-5.786c-0.46-0.554-1.48-0.833-1.126-1.679c0.315-0.751,1.757-0.722,2.383-0.815
		c2.523-0.376,5.092-0.622,7.593-1.129c0.438-0.089,1.147-0.156,1.536-0.375c0.597-0.335,0.631-0.162,0.472-0.941
		c-0.154-0.753-0.611-1.362-0.972-2.022c-1.13-2.064,0.407-2.497,2.261-1.74c0.955,0.39,2.088,0.969,2.626,1.872
		c0.254,0.426,0.281,0.979,0.525,1.391c-0.018,0.478,0.212,0.706,0.69,0.686c0.343,0.083,0.691,0.121,1.043,0.114
		c1.185-0.042,2.184-0.782,3.374-0.909c1.027-0.11,2.298-0.252,3.259,0.186c0.644,0.294,1.914,1.063,1.592,1.93
		c-0.322,0.865-2.524,0.8-3.279,0.891C189.037,130.664,186.457,130.656,184.196,131.434
		C184.115,132.23,184.581,131.301,184.196,131.434z M173.806,136.017c1.582-0.154,3.222-0.199,4.765-0.607
		c0.785-0.207,1.417-0.306,1.627-1.061c0.155-0.558-0.038-1.621-0.421-2.077c-0.865-1.031-3.263-0.157-4.416,0.087
		c-0.968,0.204-1.38,0.414-1.635,1.451C173.549,134.531,173.671,135.3,173.806,136.017
		C174.93,135.908,173.577,134.806,173.806,136.017z M184.347,152.991c1.51-0.312,2.27-1.341,3.276-2.499
		c0.492-0.567,1.003-1.15,1.341-1.827c0.118-0.236,0.344-0.628,0.344-0.896c0-0.648,0.023-0.584-0.739-0.717
		c-1.154-0.202-3.571-0.196-4.154,1.029C183.836,149.292,184.326,151.674,184.347,152.991
		C184.875,152.882,184.322,151.425,184.347,152.991z M173.794,137.353c-0.645,0.769-1.633,2.693-0.269,3.3
		c0.621,0.277,1.687-0.084,2.3-0.188c0.994-0.169,1.99-0.345,2.977-0.55c0.61-0.126,1.413-0.215,1.708-0.87
		c0.342-0.758-0.205-1.208-0.893-1.355c-0.802-0.172-1.819,0.104-2.638,0.117C175.898,137.824,174.812,137.745,173.794,137.353
		C173.551,137.643,175.526,138.02,173.794,137.353z M180.858,153.015c0.007-1.028,0.108-2.057,0.067-3.085
		c-0.016-0.403,0.018-0.952-0.144-1.335c-0.3-0.709-0.349-0.533-1.146-0.507c-1.053,0.035-1.802,0.17-2.717,0.691
		c0.642,0.909,1.268,1.638,1.57,2.726c0.057,0.204,0.159,1.266,0.311,1.398C179.062,153.131,180.497,152.996,180.858,153.015
		C180.869,151.252,180.071,152.973,180.858,153.015z M188.475,138.716c0.172-0.902,0.633-1.941-0.421-2.307
		c-0.564-0.196-3.337,0.241-3.798,0.655c-0.722,0.649-0.347,1.865,0.512,2.109C185.767,139.458,187.459,138.86,188.475,138.716
		C188.583,138.147,187.353,138.874,188.475,138.716z M187.629,141.706c-1.43-0.366-3.916-0.018-3.451,1.934
		c0.33,1.386,1.148,0.776,2.271,0.492c0.796-0.202,0.62-0.185,0.898-0.85C187.535,142.83,187.542,142.187,187.629,141.706
		C186.311,141.368,187.479,142.541,187.629,141.706z M191.126,242.882c1.711,0.292,2.252-0.198,2.772-1.79
		c0.575-1.758,1.56-2.045,2.802-0.503c1.254,1.556-0.419,2.89-1.338,4.138c-0.379,0.514-1.179,1.582-0.826,2.021
		c0.434,0.54,1.745,0.821,2.351,1.21c1.227,0.789,1.923,2.137,1.39,3.588c-0.765,2.082-2.162,0.168-3.477-0.085
		c-1.764-0.339-3.165,0.858-4.661,1.538c-1.62,0.736-2.364-0.447-3.468-1.519c-0.396,0.424-1.006,1.437-1.634,1.484
		c-0.49,0.037-0.817-0.381-1.235-0.534c-0.3-0.11-1.218-0.356-1.324,0.193c-0.055,0.282,0.954,1.337,1.095,1.723
		c0.312,0.853,0.101,1.33,1.129,1.439c0.851,0.09,1.814-0.115,2.66-0.202c1.867-0.193,3.75-0.364,5.596-0.71
		c1.702-0.319,3.426-0.863,5.157-0.428c0.793,0.2,3.551,1.194,3.213,2.426c-0.359,1.311-3.018,1.269-3.972,1.278
		c-1.988,0.019-3.976,0.038-5.963,0.07c-1.896,0.031-3.832-0.042-5.72,0.144c-0.714,0.07-1.659,0.097-2.054,0.685
		c-0.481,0.717-0.256,1.932-0.233,2.751c0.054,1.887,0.066,3.774,0.129,5.661c0.056,1.646,0.244,3.684-0.992,5.032
		c-0.976,1.065-2.003,0.057-2.474-0.953c-0.825-1.771-0.111-3.777,0.073-5.62c0.176-1.765,0.13-3.542,0.028-5.31
		c-0.054-0.934-0.044-1.267-0.914-1.508c-0.938-0.26-2.316,0.07-3.256,0.242c-0.539,0.099-2.669,0.357-2.679,0.74
		c-0.016,0.581,0.657,0.653,1.028,0.905c1.526,1.036,0.994,2.524,0.08,3.796c-1.067,1.484-2.673,2.653-4.226,3.582
		c-1.586,0.949-3.253,2.062-5.125,1.589c0.491-1.208,1.466-1.897,2.397-2.807c1.056-1.033,2.08-2.101,3.012-3.247
		c0.438-0.538,1.992-2.352,1.196-3.183c-0.699-0.73-2.906,0.245-3.693,0.338c-1.179,0.139-2.243-0.213-3.22-0.861
		c-0.955-0.634-1.87-1.513-0.368-2.095c1.35-0.523,3.086-0.419,4.515-0.54c1.564-0.133,3.128-0.261,4.693-0.382
		c1.498-0.116,2.952-0.268,4.398-0.702c0.674-0.203,1.446-0.265,1.65-0.974c0.138-0.481-0.084-1.014-0.36-1.394
		c-0.309-0.426-0.856-0.841-1.387-0.91c-0.813-0.105-1.046,0.493-1.711,0.727c-1.131,0.398-2.028-0.717-3.308-0.36
		c-1.739,0.485-4.639,3.371-6.081,1.103c-0.851-1.338-0.118-1.903,0.765-2.803c0.88-0.897,1.321-2.142,2.004-3.178
		c-0.797-0.083-1.463,0.056-2.245,0.048c-0.697-0.007-0.431,0.275-0.967-0.323c-0.237-0.265-0.458-0.684-0.594-1.005
		c-0.687-1.626,1.157-2.752,1.991-3.999c0.952-1.424,1.624-3.014,2.126-4.647c0.385-1.253,0.711-3.103,2.461-2.397
		c1.702,0.687,1.953,2.156,1.072,3.515c-0.546,0.841-1.136,1.656-1.711,2.477c-0.356,0.508-1.406,1.536-1.468,2.161
		c-0.066,0.662,0.382,0.853,1.01,0.72c0.855-0.182,1.298-0.871,1.564-1.607c0.246-0.68,0.262-1.45,1.143-1.525
		c0.708-0.061,1.266,0.602,1.978,0.594c0.064-0.751-0.049-2.287,0.461-2.708c0.82-0.676,1.602-0.302,2.224-1.36
		c0.971-1.652,0.723-3.222,1.117-4.975c0.128-0.57,0.036-0.587,0.78-0.644c0.418-0.032,0.709-0.05,1.093,0.126
		c0.499,0.229,1.479,0.991,1.642,1.543c0.315,1.063-1.329,3.176-1.803,4.085c1.299,0.221,2.629-0.026,3.869,0.483
		c0.694,0.285,1.293,0.578,1.493,1.255c0.204,0.693,0.089,1.638,0.129,2.359c1.634-0.924,2.382-2.48,3.005-4.217
		c0.315-0.879,0.602-1.775,0.872-2.669c0.253-0.836,0.193-1.94,1.291-1.994c2.051-0.102,2.456,2.417,1.789,3.813
		C193.045,239.55,191.595,240.979,191.126,242.882C192.603,243.135,191.208,242.547,191.126,242.882z M179.848,244.702
		c0.985-0.066,3.188-0.371,3.387-1.298c0.099-0.46-0.317-1.758-0.599-1.919c-0.31-0.176-1.209-0.08-1.559-0.041
		C179.223,241.651,179.517,243.253,179.848,244.702C180.342,244.669,179.167,241.726,179.848,244.702z M189.974,246.709
		c-0.443-0.438-0.971-0.095-1.487-0.094c-0.374,0.001-1.174-0.418-1.504-0.279c-0.908,0.383-0.469,2.845-0.082,3.694
		C188.464,249.466,189.452,248.254,189.974,246.709C189.462,246.203,189.453,248.252,189.974,246.709z M179.933,249.765
		c0.818-0.172,2.329-0.188,3.008-0.761c0.611-0.516,0.647-1.706-0.07-2.127c-0.535-0.315-2.134-0.18-2.658,0.135
		C179.231,247.6,179.782,248.869,179.933,249.765C180.943,249.552,179.813,249.054,179.933,249.765z M176.29,245.206
		c-0.908,1.13-1.816,2.259-2.724,3.389c0.95,0.522,1.9,1.044,2.851,1.566C176.965,248.515,176.701,246.85,176.29,245.206
		C175.218,246.539,176.771,247.128,176.29,245.206z M172.304,251.61c0.172-0.35,0.495-0.972-0.263-0.954
		C171.146,250.677,172.123,251.493,172.304,251.61C172.429,251.354,172.017,251.423,172.304,251.61z M193.426,248.61
		C192.672,248.272,192.702,248.944,193.426,248.61C193.279,248.544,193.279,248.678,193.426,248.61z M187.091,260.689
		c1.12-0.715,2.193-0.313,3.326,0.111c1.401,0.524,2.891,1.086,4.175,1.862c1.81,1.094,3.907,3.6,3.022,5.848
		c-1.039,2.639-4.238-0.939-5.218-1.927C190.55,264.721,188.608,262.824,187.091,260.689
		C188.229,259.963,187.5,261.264,187.091,260.689z M229.645,192.933c0.414-0.852,1.058-1.033,1.921-0.948
		c1.231,0.121,2.296,0.359,3.548,0.176c0.745-0.109,1.529-0.266,1.892-1.003c0.395-0.801,0.156-2.417-0.414-3.052
		c-0.802-0.891-1.904-0.357-2.919-0.29c-1.041,0.07-2.044-0.187-2.908-0.78c-0.22-0.151-0.988-0.647-1.026-0.921
		c-0.077-0.548,0.271-0.48,0.696-0.65c1.152-0.462,2.416-0.474,3.628-0.656c2.504-0.375,4.96-1.003,7.438-1.511
		c2.505-0.513,5.064-0.758,7.51-1.533c1.34-0.425,4.257,0.139,4.684,1.86c0.178,0.719-0.026,0.722-0.706,0.922
		c-0.464,0.136-0.919,0.225-1.396,0.303c-1.273,0.206-2.553,0.354-3.832,0.518c-1.013,0.13-1.765,0.293-2.252,1.266
		c-0.41,0.819-0.728,2.417-0.276,3.256c0.325,0.603,0.462,0.486,1.131,0.312c0.538-0.139,1.041-0.37,1.575-0.515
		c1.043-0.283,2.078-0.177,3.066,0.255c0.818,0.358,1.889,0.949,2.333,1.76c0.544,0.993-0.004,2.357-0.114,3.412
		c-0.291,2.787-0.104,5.544,0.073,8.329c0.168,2.642,0.224,5.3,0.248,7.946c0.011,1.22-0.956,5.156-2.949,4.2
		c-0.882-0.423-0.948-1.576-1.49-2.251c-0.559-0.696-1.379-0.76-2.21-0.715c-2.577,0.14-5.156,0.526-7.733,0.716
		c-1.331,0.098-2.679,0.122-4.005,0.271c-0.543,0.061-1.092,0.148-1.572,0.429c-0.413,0.242-0.68,0.705-1.155,0.815
		c-1.109,0.258-1.924-1.224-2.202-2.087c-0.339-1.052-0.186-2.445-0.002-3.518c0.476-2.782,0.703-5.374,0.498-8.208
		C230.527,198.352,231.046,195.384,229.645,192.933C230.156,191.878,230.81,194.971,229.645,192.933z M239.965,193.917
		c-0.449,2.408-0.871,4.79-2.399,6.787c-1.225,1.601-3.565,2.341-3.87,4.503c-0.174,1.231-0.139,2.696-0.052,3.935
		c0.017,0.239,0.071,1.383,0.237,1.551c0.283,0.286,1.624,0.054,1.97,0.018c3.041-0.315,6.061-0.754,9.109-1.025
		c1.196-0.106,3.204,0.093,4.264-0.522c0.447,0.02,0.621-0.198,0.523-0.655c0.046-0.356,0.084-0.712,0.111-1.07
		c0.055-0.71,0.075-1.424,0.056-2.136c-0.025-0.926,0.081-2.604-0.697-3.069c-1.073-0.642-2.847-0.406-4.05-0.755
		c-1.86-0.539-2.879-1.744-3.114-3.651c-0.121-0.98,0.286-2.702-0.198-3.568C241.445,193.527,240.704,193.765,239.965,193.917
		C239.794,194.834,241.569,193.587,239.965,193.917z M245.088,193.309c-0.118,1.225-0.81,3.468-0.042,4.565
		c0.619,0.884,2.678,0.994,3.6,0.659c1.404-0.51,0.737-2.445,0.548-3.574c-0.163-0.974-0.218-1.762-1.259-1.998
		C246.952,192.74,245.994,192.851,245.088,193.309C244.982,194.419,246.341,192.676,245.088,193.309z M234.198,195.208
		c-0.229,1.641-0.507,3.184,0.174,4.74c0.859-0.864,1.817-1.87,1.944-3.143c0.04-0.403,0.039-1.091-0.165-1.453
		c-0.287-0.511-0.135-0.312-0.769-0.321C235.013,195.026,234.557,195.155,234.198,195.208
		C233.789,198.142,234.892,195.105,234.198,195.208z M241.368,186.069c-0.575,0.742-2.704,4.899-0.721,5.186
		C242.592,191.537,241.582,186.937,241.368,186.069C240.179,187.604,241.82,187.899,241.368,186.069z M227.903,195.875
		c1.263,1.399,0.433,2.953-0.094,4.49c-0.673,1.964-1.37,3.919-2.056,5.879c-0.664,1.896-1.273,3.791-1.817,5.724
		c-0.402,1.428-1.559,2.964-2.945,1.373c-0.763-0.876-1.149-2.648-1.069-3.768c0.126-1.771,1.586-2.713,2.597-4.008
		C224.821,202.615,225.853,198.969,227.903,195.875C228.912,196.992,227.362,196.691,227.903,195.875z M228.077,187.845
		c-1.757,0.815-2.925-0.217-4.038-1.526c-0.566-0.666-3.332-3.478-1.724-4.245c1.071-0.511,4.158,0.991,5.023,1.652
		C228.688,184.757,228.765,186.377,228.077,187.845C226.893,188.394,228.896,186.096,228.077,187.845z M225.222,194.881
		c-0.062,1.872-1.825,2.084-3.122,1.208c-0.795-0.537-1.399-1.279-1.987-2.025c-0.417-0.528-1.418-1.457-1.507-2.143
		c-0.242-1.877,3.047-0.659,3.846-0.373C224.076,192.128,225.35,193.008,225.222,194.881
		C225.173,196.367,225.291,193.872,225.222,194.881z M238.375,207.917c-0.815,0-2.588,0.285-3.059-0.669
		c-0.565-1.145,1.258-1.517,1.964-1.72c1.308-0.376,2.682-0.554,4.025-0.768c1.261-0.201,2.662-0.565,3.942-0.548
		c0.666,0.009,2.162,0.142,2.365,0.967c0.242,0.983-1.188,1.299-1.829,1.508C243.388,207.467,240.899,207.928,238.375,207.917
		C237.765,207.917,241.1,207.929,238.375,207.917z"/>
	<path d="M341.393,249.658c-0.251-1.122-0.453-2.024-0.655-2.926c-0.233,3.179-0.334,3.34-3.652,2.997
		c-3.911-0.405-7.868-0.687-11.69-1.539c-2.913-0.65-3.783-2.85-2.542-5.647c1.199-2.703,2.668-5.303,4.211-7.831
		c2.25-3.687,5.709-4.003,9.686-3.577c5.273,0.565,10.627,1.061,15.897,0.754c4.684-0.273,5.87-1.869,6.368-6.563
		c0.515-4.86,0.64-9.759,1.043-14.633c0.183-2.216-0.712-3.77-2.361-5.093c-2.301-1.847-2.799-3.102-1.005-5.286
		c3.594-4.375,4.464-9.313,4.362-14.728c-0.077-4.068,0.314-8.142,0.382-12.215c0.056-3.287-0.585-3.727-3.826-3.886
		c-3.874-0.19-7.065,0.918-8.894,4.476c-1.414,2.751-1.781,5.76-1.034,8.827c0.424,1.741,1.033,3.451,1.288,5.214
		c0.429,2.962,0.005,5.593-2.953,7.361c-2.615,1.563-4.903,3.695-7.569,5.146c-2.553,1.389-5.093,0.625-6.157-1.953
		c-1.263-3.061-2.358-6.337-2.701-9.607c-1.42-13.529,7.25-22.272,18.155-26.63c8.678-3.468,17.711-4.725,26.965-4.699
		c3.99,0.011,8.005,0.066,11.959,0.526c3.083,0.359,3.976,3.219,1.846,5.493c-2.069,2.209-2.819,4.659-2.799,7.671
		c0.039,5.927-0.294,11.855-0.405,17.784c-0.06,3.229,1.017,4.315,4.227,4.247c3.843-0.081,7.689-0.216,11.525-0.469
		c3.152-0.208,3.984-1.007,4.34-4.058c0.661-5.67,1.058-11.375,1.875-17.02c1.057-7.301,4.264-13.46,10.73-17.459
		c5.585-3.454,11.157-6.961,16.955-10.029c5.011-2.651,10.54-2.062,15.826-0.841c3.465,0.801,4.309,3.589,2.597,6.792
		c-0.663,1.242-1.358,2.469-2.102,3.664c-1.894,3.043-4.232,3.846-7.687,2.719c-1.189-0.388-2.384-0.771-3.595-1.082
		c-2.172-0.557-3.745-0.134-5.914,1.218c-3.087,1.925-2.989,4.257-3.206,6.969c-0.391,4.873-0.93,9.735-1.243,14.613
		c-0.445,6.929-0.898,13.865-1.06,20.804c-0.169,7.256-0.049,14.52,0.049,21.779c0.038,2.795,0.082,5.642,0.629,8.364
		c0.634,3.152,7.078,4.977,9.427,2.781c0.593-0.555,0.919-1.667,0.93-2.529c0.078-6.066-0.076-12.136,0.079-18.199
		c0.123-4.815,1.523-9.365,3.543-13.74c2.308-4.999,6.26-8.425,10.979-10.803c6.834-3.444,13.688-7.043,20.903-9.484
		c8.265-2.797,19.099-2.403,26.322,5.514c3.305,3.622,3.344,3.419,7.834,1.731c7.837-2.946,15.698-5.839,23.628-8.519
		c3.863-1.306,6.74,0.282,7.274,4.233c0.483,3.57,0.191,7.276-0.044,10.904c-0.263,4.05-0.912,8.074-1.272,12.121
		c-0.294,3.311-0.621,6.644-0.53,9.957c0.064,2.344,0.52,4.771,1.311,6.979c0.911,2.543,3.394,3.366,5.866,2.257
		c1.685-0.756,3.37-1.604,4.859-2.681c2.278-1.647,1.824-4.428,2.222-6.75c0.463-2.701,0.363-5.495,0.563-8.244
		c0.461-6.356,0.863-12.719,1.477-19.061c0.289-2.987,2.103-5.244,4.969-6.041c4.589-1.276,9.264-2.276,13.946-3.166
		c2.489-0.473,4.069,0.552,4.347,3.064c0.334,3.019,0.153,6.114-0.013,9.165c-0.39,7.183-1.05,14.355-1.293,21.541
		c-0.094,2.782,0.449,5.636,1.058,8.378c0.68,3.066,2.947,3.963,5.993,2.807c3.636-1.379,7.039-3.362,11.234-3.071
		c2.233,0.155,3.165,1.281,4.132,2.876c1.815,2.994,3.406,6.194,5.635,8.85c2.976,3.547,9.148,2.608,10.888-0.416
		c1.576-2.74,1.452-5.528-1.429-6.799c-3.961-1.748-8.127-3.117-12.314-4.249c-6.657-1.799-11.054-6.018-13.019-12.377
		c-1.552-5.023-0.531-10.151,2.21-14.641c5.305-8.69,12.751-15.029,22.546-17.939c6.562-1.949,13.344-1.927,19.157,2.573
		c4.78,3.7,5.393,6.915,2.675,12.269c-0.959,1.889-2.256,3.607-3.42,5.39c-1.701,2.605-5.364,3.005-7.534,0.4
		c-2.478-2.975-4.886-6.27-9.017-7.204c-1.428-0.323-3-0.582-4.398-0.312c-1.546,0.299-3.181,0.985-3.48,2.988
		c-0.302,2.026,0.406,3.714,2.147,4.63c2.05,1.079,4.224,2.036,6.454,2.636c5.201,1.398,10.486,2.578,14.982,5.709
		c1.844,1.284,3.343,3.055,5.05,4.546c0.566,0.494,1.294,0.803,1.948,1.196c0.302-0.652,0.68-1.279,0.892-1.959
		c1.608-5.13,3.001-10.336,4.816-15.39c2.049-5.704,7.066-8.617,12.131-10.866c7.005-3.109,14.21-5.917,21.566-8.032
		c4.667-1.342,9.76-1.389,14.167,1.863c2.643,1.95,4.124,4.59,4.496,7.696c1.279,10.681-3.701,17.091-12.529,22.004
		c-5.626,3.131-11.159,6.44-16.613,9.862c-2.306,1.446-2.328,2.576-0.789,4.893c1.851,2.788,4.648,4.049,7.793,4.758
		c6.339,1.429,12.023-0.958,17.757-3.022c2.722-0.98,5.36-2.236,8.137-2.999c1.099-0.302,3.202,0.022,3.558,0.719
		c0.598,1.174,0.53,3.003,0.063,4.313c-0.441,1.236-1.577,2.442-2.72,3.173c-7.918,5.062-15.915,9.999-23.89,14.97
		c-6.508,4.057-13.452,3.704-20.538,2.052c-8.6-2.005-13.438-7.777-16.007-15.86c-0.212-0.667-0.455-1.352-0.833-1.932
		c-0.354-0.543-0.963-1.381-1.359-1.329c-0.605,0.08-1.363,0.701-1.641,1.289c-2.187,4.626-5.776,7.892-9.886,10.765
		c-5.144,3.596-10.44,6.85-16.579,8.444c-9.22,2.395-17.541,0.806-24.641-5.8c-3.117-2.9-3.095-2.961-6.872-0.978
		c-3.753,1.971-7.459,4.032-11.218,5.991c-6.592,3.434-11.167,0.498-13.221-6.408c-0.066-0.221,0.014-0.482-0.035-0.711
		c-0.928-4.316-2.54-5.027-6.364-2.732c-5.25,3.15-10.443,6.397-15.727,9.488c-1.667,0.975-3.488,1.796-5.343,2.317
		c-4.289,1.206-8.002-1.538-9.829-6.605c-2.117-5.872-2.113-11.905-1.868-17.98c0.29-7.181,0.744-14.356,0.977-21.539
		c0.125-3.874-2.836-5.683-6.415-4.237c-1.476,0.596-1.748,1.602-1.685,2.997c0.331,7.335-0.449,14.573-2.413,21.634
		c-1.595,5.734-4.447,10.906-9.341,14.407c-3.473,2.484-7.438,4.313-11.286,6.229c-4.143,2.064-8.318,4.119-12.635,5.768
		c-7.944,3.035-15.889,3.456-23.343-1.491c-3.292-2.185-6.701-1.326-10.053-0.712c-7.617,1.396-15.164,3.199-22.805,4.432
		c-2.695,0.435-5.667,0.04-8.353-0.621c-2.188-0.538-3.215-2.665-3.222-4.979c-0.029-9.364-0.026-18.729,0.001-28.093
		c0.005-1.612,0.168-3.224,0.285-4.834c0.22-3.035-0.496-4.456-3.328-4.563c-4.877-0.184-9.773,0.186-14.662,0.285
		c-1.941,0.039-2.501,1.344-2.809,2.898c-0.578,2.922-1.08,5.86-1.693,8.775c-1.508,7.166-5.838,12.172-11.773,16.278
		c-6.137,4.247-11.776,9.208-17.863,13.534C349.239,249.083,345.167,249.521,341.393,249.658z M484.045,210.052
		c-0.133-0.027-0.266-0.055-0.398-0.082c-0.202-2.438-0.058-4.97-0.689-7.292c-0.909-3.347-1.898-6.844-3.718-9.732
		c-3.157-5.011-10.003-4.757-13.144,0.287c-1.213,1.947-2.124,4.252-2.519,6.509c-1.554,8.891-1.327,17.667,2.299,26.158
		c1.381,3.234,5.443,6.229,8.83,6.083c3.266-0.141,6.078-2.675,6.87-6.721C482.562,220.223,483.236,215.124,484.045,210.052z
		 M662.03,199.025c0.359,1.24,0.51,3.395,1.119,3.533c1.342,0.305,2.947-0.305,4.383-0.743c0.877-0.267,1.679-0.854,2.448-1.392
		c3.464-2.42,5.834-5.464,5.731-9.969c-0.066-2.879-1.151-4.797-3.267-5.441c-2.052-0.625-5.535,0.765-6.772,2.687
		C663.468,191.122,662.404,194.879,662.03,199.025z"/>
	<path d="M1122.203,175.031c-0.488,8.505-1.188,17.007-1.344,25.518c-0.052,2.816-0.166,6.118,2.253,8.384
		c0.679,0.637,2.042,1.129,2.851,0.886c0.898-0.27,2.054-1.382,2.175-2.256c0.659-4.734,0.907-9.525,1.533-14.264
		c1.134-8.581,5.007-15.408,12.657-20.008c6.743-4.055,13.463-8.061,20.849-10.898c3.654-1.404,7.357-1.278,11.069-1.124
		c3.815,0.158,7.625,0.617,11.416,1.105c2.552,0.329,5.084,0.865,7.596,1.436c4.903,1.114,6.59,3.92,3.304,8.339
		c-2.84,3.819-3.167,7.988-3.404,12.204c-0.556,9.865-0.683,19.753-1.067,29.629c-0.227,5.83-0.519,11.662-0.952,17.48
		c-0.51,6.854-3.335,12.755-8.219,17.528c-7.313,7.145-14.728,14.189-22.23,21.136c-3.906,3.617-8.969,4.818-14.038,4.664
		c-7.586-0.229-15.171-0.994-22.716-1.874c-3.822-0.446-5.388-3.052-3.663-6.437c2.161-4.239,4.84-8.298,7.829-12.003
		c2.397-2.97,6.143-2.082,9.521-1.795c7.72,0.657,15.402,2.306,23.2,1.201c2.382-0.337,4.057-1.935,4.54-4.255
		c0.811-3.898,1.567-7.838,1.897-11.797c0.416-4.99,0.43-10.017,0.522-15.029c0.06-3.251-1.05-3.906-3.838-2.143
		c-4.175,2.641-8.09,5.723-12.388,8.133c-4.234,2.375-8.544,5.41-13.886,2.588c-3.098-1.636-4.865-4.41-6.458-7.288
		c-1.034-1.868-2.176-1.938-3.855-1.052c-5.543,2.922-11.107,5.805-16.677,8.677c-4.269,2.201-8.277-0.327-10.236-3.362
		c-2.881-4.462-4.276-9.308-4.145-14.546c0.216-8.608,0.651-17.21,0.906-25.817c0.108-3.66-0.893-4.333-4.464-3.236
		c-1.269,0.39-2.529,0.853-3.726,1.424c-2.74,1.309-4.118,3.501-4.197,6.579c-0.074,2.886-0.278,5.769-0.467,8.65
		c-0.464,7.078-0.962,14.154-1.429,21.232c-0.265,4.015-2.452,6.48-7.136,7.876c-3.452,1.029-6.921,2-10.388,2.977
		c-3.552,1.001-5.84-0.493-5.798-4.202c0.074-6.587,0.423-13.173,0.715-19.756c0.163-3.675,0.538-7.343,0.642-11.019
		c0.115-4.091,0.093-8.189,0.01-12.282c-0.054-2.677-0.97-3.458-3.671-3.452c-0.901,0.002-1.816,0.01-2.698,0.166
		c-1.509,0.267-2.256,1.171-2.213,2.786c0.066,2.462,0.083,4.929,0.005,7.39c-0.268,8.43-2.098,16.415-6.86,23.543
		c-2.255,3.375-5.337,5.891-8.896,7.622c-7.265,3.534-14.53,7.146-22.062,10.028c-6.584,2.519-13.639,2.71-19.729-1.402
		c-4.797-3.238-9.32-1.852-14.088-0.843c-7.374,1.56-14.742,3.153-22.142,4.584c-1.596,0.309-3.371,0.247-4.964-0.099
		c-3.381-0.734-5.599-5.058-5.185-8.935c0.291-2.719,0.028-5.493,0.095-8.241c0.059-2.433,0.309-4.862,0.337-7.295
		c0.058-5.165-0.015-10.331,0.056-15.496c0.024-1.712-0.985-2.66-2.333-2.69c-5.034-0.111-10.079-0.088-15.105,0.173
		c-0.905,0.047-2.232,1.311-2.514,2.264c-0.88,2.979-1.548,6.053-1.942,9.136c-0.907,7.095-5.337,11.741-10.611,15.846
		c-4.807,3.742-9.795,7.265-14.449,11.188c-4.48,3.776-9.478,5.743-15.281,5.658c-4.072-0.059-8.146-0.189-12.208-0.457
		c-1.453-0.096-2.926-0.551-4.296-1.083c-2.421-0.939-3.532-3.115-2.41-5.534c1.372-2.957,3.159-5.739,4.943-8.481
		c2.405-3.696,5.894-3.545,9.818-2.935c5.046,0.785,10.187,1.108,15.299,1.256c3.119,0.091,5.717-2.173,6.069-5.452
		c0.634-5.923,0.853-11.897,1.042-17.855c0.029-0.931-0.83-2.105-1.605-2.806c-2.562-2.316-3.099-4.374-0.748-6.879
		c3.936-4.193,3.455-9.386,3.824-14.385c0.245-3.32,0.052-6.672,0.074-10.009c0.03-4.428-1.466-5.735-5.8-4.968
		c-5.422,0.959-7.803,5.511-7.147,10.754c0.357,2.859,1.026,5.679,1.447,8.532c0.326,2.207-0.647,4.142-2.25,5.418
		c-2.765,2.202-5.662,4.311-8.746,6.021c-3.73,2.068-6.106-0.137-7.34-3.797c-3.247-9.633-2.848-20.667,6.671-28.315
		c6.028-4.844,12.812-7.851,20.281-9.037c6.839-1.086,13.797-1.524,20.721-1.924c2.71-0.156,5.492,0.451,8.202,0.934
		c2.108,0.375,3.241,3.484,1.586,4.8c-3.739,2.973-3.322,7.077-3.595,11.003c-0.297,4.269-0.399,8.554-0.506,12.834
		c-0.033,1.321-0.097,2.775,0.401,3.933c0.387,0.9,1.624,2.032,2.484,2.032c4.65,0.003,9.303-0.273,13.949-0.54
		c2.025-0.116,2.762-1.645,2.975-3.376c0.691-5.608,1.106-11.258,1.992-16.833c1.041-6.55,3.252-12.666,9.098-16.582
		c5.672-3.799,11.361-7.608,17.286-10.983c5.559-3.167,11.732-2.629,17.727-1.407c2.885,0.588,3.765,2.938,2.464,5.702
		c-0.893,1.898-1.996,3.738-3.262,5.41c-2.167,2.862-3.702,3.112-7.248,2.092c-2.324-0.668-4.728-1.26-7.126-1.412
		c-2.631-0.166-4.347,1.473-4.639,4.013c-0.547,4.758-1.137,9.519-1.427,14.296c-0.592,9.742-1.051,19.494-1.458,29.246
		c-0.26,6.23-0.431,12.468-0.432,18.703c-0.001,2.404,0.387,4.852,0.938,7.2c0.769,3.274,7.221,5.213,9.524,2.808
		c0.768-0.801,1.012-2.519,0.848-3.729c-0.796-5.867-0.636-11.709,0.127-17.543c0.726-5.55,1.716-11.114,5.221-15.663
		c1.974-2.563,4.299-5.092,6.989-6.823c7.871-5.062,16.152-9.522,25.306-11.743c7.31-1.773,14.649-1.3,21.071,3.171
		c2.215,1.542,3.765,4.014,5.792,5.871c0.625,0.572,2.027,0.979,2.729,0.673c4.742-2.07,9.312-4.546,14.095-6.507
		c4.253-1.743,8.645-3.244,13.097-4.378c3.538-0.901,6.203,1.757,6.741,6.044c0.02,0.157-0.003,0.318,0.008,0.476
		c0.403,5.645,1.008,5.791,5.964,3.182c6.509-3.426,13.173-6.582,19.906-9.548c2.864-1.262,6.147-1.488,8.588,1.11
		c1.079,1.148,1.869,2.826,2.169,4.383c0.369,1.915,0.088,3.955,0.088,5.941C1122.083,175.025,1122.143,175.028,1122.203,175.031z
		 M1006.958,197.229c0.144,0.051,0.288,0.101,0.433,0.152c0.222,2.11,0.513,4.215,0.652,6.331c0.276,4.224,1.554,8.121,3.73,11.72
		c2.519,4.167,7.49,5.771,10.734,3.194c1.427-1.134,2.615-2.98,3.165-4.736c2.896-9.245,3.238-18.646,0.447-27.961
		c-0.711-2.372-2.077-5.049-3.978-6.462c-4.556-3.387-10.055-2.28-12.031,3.424C1008.518,187.483,1007.969,192.436,1006.958,197.229
		z M1169.416,187.079c-0.048-0.004-0.096-0.007-0.144-0.011c0-1.496-0.177-3.019,0.041-4.483c0.332-2.235-0.656-3.492-2.631-4.035
		c-2.092-0.575-4.226-1.224-6.368-1.341c-3.42-0.186-4.736,1.23-5.405,4.569c-1.462,7.297-1.924,14.607-0.963,22.013
		c0.393,3.025,2.476,6.002,4.735,6.248c3.419,0.373,9.169-3.32,9.604-6.761C1168.963,197.917,1169.068,192.483,1169.416,187.079z"/>
	<path d="M796.336,196.28c0.058,6.975-0.997,13.779-3.596,20.254c-2.415,6.018-6.346,10.91-12.247,13.803
		c-7.028,3.446-14.057,6.968-21.347,9.781c-9.209,3.554-20.145,1.827-26.554-7.18c-3.459-4.862-4.632-10.3-4.754-15.872
		c-0.128-5.843,0.296-11.81,1.425-17.537c1.101-5.582,2.947-11.259,7.91-14.873c3.733-2.717,7.646-5.258,11.728-7.404
		c3.932-2.067,8.118-3.71,12.31-5.211c6.589-2.359,13.337-3.12,20.21-1.093c3.563,1.051,6.419,3.203,8.753,5.942
		c2.62,3.076,2.85,3.287,6.6,2.165c2.158-0.645,4.307-1.466,6.52-1.752c5.587-0.722,4.175-1.619,4.886-6.128
		c0.785-4.982,1.19-10.083,4.173-14.288c1.851-2.609,4.145-5.102,6.737-6.95c8.419-6.001,16.99-11.892,26.772-15.471
		c5.11-1.87,10.601-1.845,15.948-0.592c2.58,0.605,3.683,3.317,2.419,6.083c-1.069,2.34-2.417,4.578-3.85,6.722
		c-1.754,2.623-4.403,2.752-7.298,2.406c-4.061-0.486-8.151-0.826-12.237-0.959c-2.158-0.071-5.536,3.44-5.836,5.891
		c-0.584,4.769-1.027,9.556-1.454,14.342c-0.137,1.532,0.023,3.088-0.067,4.626c-0.142,2.455,1.309,3.109,3.384,3.277
		c3.032,0.245,6.076,0.458,9.08,0.914c2.557,0.389,3.496,2.548,2.534,4.947c-1.319,3.286-4.023,4.7-7.186,5.461
		c-1.368,0.329-2.804,0.411-4.216,0.519c-3.599,0.274-4.765,1.302-4.957,4.848c-0.379,6.966-0.456,13.953-1.021,20.902
		c-0.883,10.882-0.885,21.893-3.832,32.516c-1.188,4.283-3.419,8.161-6.676,11.239c-5.725,5.41-11.707,10.55-17.373,16.021
		c-3.244,3.132-6.439,6.413-10.89,7.412c-3.849,0.865-7.905,0.847-11.876,1.113c-1.635,0.109-3.294,0.005-4.933-0.12
		c-2.887-0.22-4.834-2.889-3.605-5.485c1.496-3.159,3.408-6.154,5.417-9.026c1.305-1.867,3.527-2.172,5.738-2.094
		c4.427,0.157,8.859,0.48,13.28,0.368c3.937-0.1,7.328-4.122,7.606-8.576c0.661-10.602,1.263-21.208,1.928-31.81
		c0.236-3.767,0.714-7.522,0.846-11.291c0.162-4.618,0.078-9.245,0.096-13.868c0.01-2.599,0.156-5.209-0.028-7.795
		c-0.206-2.9-1.42-3.821-4.208-3.639c-1.094,0.071-2.192,0.279-3.279,0.227c-2.313-0.111-3.142,0.996-2.995,3.185
		C796.409,193.574,796.336,194.93,796.336,196.28z M772.51,204.821c-0.691-4.659-1.082-8.867-1.993-12.959
		c-0.748-3.36-2.599-6.549-5.823-7.868c-4.961-2.029-8.991-0.342-10.934,4.919c-1.116,3.019-1.265,6.403-1.791,9.632
		c-1.292,7.931-0.216,15.516,3.692,22.571c1.614,2.914,4.164,4.781,7.666,4.618c3.915-0.182,5.953-2.886,6.713-6.262
		C771.154,214.531,771.751,209.474,772.51,204.821z"/>
</g>
</svg>
