<svg xmlns="http://www.w3.org/2000/svg" viewBox="0 0 1000 1000"><path fill="#6B0C22" d="M0 0h1000v1000H0z"/><path fill="#FFF" d="M896.85 493.125c-.523-9.867-.018-19.8-1.75-29.568-1.566-8.835-.697-18.335-3.525-26.904-3.18-9.634-3.604-20.078-5.879-30.054-2.381-10.439-5.822-20.706-9.107-30.89-12.646-39.202-31.161-75.488-54.931-109.087-24.141-34.123-53.352-62.774-86.313-88.318-16.062-12.449-33.349-22.541-51.14-32.27-9.537-5.216-19.212-9.654-29.282-13.732-9.142-3.703-17.908-8.356-27.347-11.286-39.341-12.214-79.872-19.358-121.074-20.836-10.77-.386-21.578-.19-32.295 1.006-9.758 1.09-20.493 1.062-29.873 4.059-9.003 2.876-19.162 3.16-28.486 5.348-9.942 2.333-19.994 4.482-29.789 7.376-78.334 23.142-146.241 72.054-197.038 135.423-25.957 32.382-46.195 69.681-60.691 108.498-7.319 19.599-12.472 39.442-16.903 59.875-2.214 10.204-2.887 20.47-4.483 30.753-1.6 10.306-2.996 19.862-3.222 30.352-.24 11.124-.775 22.289-.493 33.416.247 9.726 1.606 19.407 2.001 29.141.185 4.564.73 8.966 2.261 13.293 1.53 4.328 1.69 8.764 2.41 13.334 1.607 10.203 4.161 20.14 6.578 30.171 4.846 20.11 12.369 39.11 19.322 58.544 3.331 9.312 9.164 18.366 13.769 27.175 4.771 9.127 9.835 18.121 15.246 26.886 21.522 34.868 50.558 67.2 81.875 93.562 15.869 13.358 33.13 25.777 51.156 36.059 17.03 9.714 34.619 19.327 53.084 25.996 9.19 3.319 17.999 7.562 27.331 10.504 9.85 3.104 19.858 5.69 29.895 8.106 10.038 2.417 20.131 4.706 30.366 6.131 5.342.744 10.665 1.053 16.037 1.43 4.39.308 8.29 2.13 12.713 2.405 40.217 2.502 80.286.438 119.404-8.992 19.588-4.722 39.861-9.708 58.649-17.053 9.124-3.566 18.138-8.605 27.113-12.674 9.19-4.166 17.894-9.269 26.642-14.278 34.614-19.82 67.375-46.007 93.396-76.303 26.184-30.486 49.072-63.298 66.124-99.834 8.694-18.63 14.584-37.858 21.666-57.073 6.984-18.946 10.542-40.504 13.122-60.475 2.519-19.509 3.461-39.567 3.461-59.216-.59-11.148 0 4.201 0 0zM303.965 249.849c49.954-43.298 118.142-64.95 183.106-69.831 16.768-1.26 32.792 1.317 49.418 2.878 16.822 1.581 32.831 4.597 49.198 8.636 30.514 7.53 59.726 21.678 85.898 38.85 6.527 4.282 13.031 8.633 19.43 13.106 5.562 3.889 8.134 8.354 7.608 15.208-1.13 14.716-6.903 29.775-13.826 42.667-13.294 24.758-34.058 43.996-57.6 58.904-55.118 34.903-125.142 43.555-188.301 28.799-33.079-7.729-66.13-22.942-91.386-45.949-12.384-11.282-23.465-24.315-31.142-39.278-4.089-7.969-6.788-16.444-9.414-24.978-3.004-9.763-5.225-18.773-2.989-29.012 13.617-11.803 0 0 0 0zm272.609 309.802c-.448 7.761-12.209 5.958-17.444 6.073l-29.142.64c-18.619.407-37.238.808-55.858 1.174-8.668.171-17.342.251-26.007.507-3.652.108-7.297.326-10.917-.335-3.585-.655-3.121-.381-4.217-3.434-.807-2.247-.526-5.628-.721-8.027-1.495-18.373-.867-37.088-1.094-55.517-.222-17.93-.944-35.85-1.201-53.773-.047-3.271-.772-7.696 1.982-10.091 1.982-1.723 5.686-1.478 8.159-1.592 9.8-.449 19.644-.434 29.453-.646 18.814-.405 37.629-.806 56.443-1.204l26.421-.558c6.706-.142 19.564-3.715 22.011 4.623 1.225 4.172.372 9.515.407 13.802.04 4.882.081 9.766.13 14.648.105 10.526.243 21.052.462 31.576.43 20.584 2.318 41.573 1.133 62.134-.188 3.255.24-4.169 0 0zM275.692 702.513c-6.638 1.13-13.59 4.796-20.061 1.173-6.025-3.374-10.326-11.113-14.202-16.659-9.278-13.277-18.264-27.219-25.582-41.68-14.291-28.238-25.197-60.202-29.17-91.651-2.13-16.863-5.318-33.737-5.082-50.797.23-16.691 1.793-34.021 4.042-50.561 4.428-32.567 15.214-65.956 30.258-95.138 7.197-13.959 15.272-27.786 24.24-40.689 4.174-6.006 7.63-9.718 15.084-9.263 8.051.491 16.208 1.381 24.041 3.348 30.065 7.55 56.251 28.037 74.475 52.537C392.39 415.1 405.16 484.869 395.617 548.13c-5.434 36.021-18.001 70.724-39.605 100.385-19.324 26.527-47.384 48.395-80.32 53.998-3.094.526 19.688-3.349 0 0zm429.275 42.384c-24.421 20.954-52.054 38.642-81.936 50.693-15.408 6.214-30.776 10.924-46.678 15.675-14.893 4.45-30.852 5.382-46.259 7.033-17.176 1.84-33.451 2.662-50.685.903-15.378-1.57-30.779-2.384-45.91-5.756-31.741-7.074-63.187-19.144-91.258-35.559-7.102-4.154-14.051-8.564-20.889-13.139a558.93 558.93 0 0 1-3.789-2.561c-2.725-1.858-3.272-1.782-3.961-4.894-.914-4.134-.358-9.286-.103-13.449.934-15.255 6.225-29.91 13.312-43.338 14.095-26.706 37.339-47.442 63.481-62.077 28.281-15.832 60.433-26.094 92.671-29.366 17.131-1.739 34.464-1.869 51.665-1.398 7.462.205 14.959.707 22.252 2.387 3.566.822 6.996 2.275 10.605 2.888 4.285.728 8.566.754 12.826 1.787 16.878 4.091 33.334 11.475 48.839 19.159 13.904 6.89 26.63 15.978 37.922 26.605 11.976 11.271 22.646 23.664 29.613 38.643 3.625 7.794 6.919 15.758 9.318 24.021 1.975 6.795 5.257 16.344-1.036 21.743-10.592 9.089 2.546-2.183 0 0zm113.095-241.342c1.064 16.75-1.863 34.143-4.493 50.652-2.513 15.778-6.745 31.226-11.793 46.369-9.919 29.757-24.466 56.806-41.387 83.119-3.512 5.462-6.714 9.74-13.661 9.308-7.897-.491-15.914-2.167-23.37-4.804-13.031-4.61-25.386-11.531-36.382-19.877-23.581-17.897-40.23-42.891-52.442-69.562-13.596-29.694-20.631-61.648-21.323-94.223-.706-33.23 1.917-65.334 13.034-96.879 9.743-27.648 23.933-54.374 45.12-74.97 10.27-9.982 21.957-18.481 34.727-24.982 6.53-3.324 13.18-5.969 20.353-7.53 6.368-1.386 15.518-4.909 21.082-.464 6.298 5.031 10.562 13.294 15 19.863 5.025 7.438 9.982 14.929 14.55 22.658 8.8 14.892 15.738 30.797 21.638 47.038 12.805 35.254 17.09 70.816 20.274 107.944-1.839.119-1.029 4.725-.927 6.34.916 14.404-.132-2.085 0 0zm-532.055 28.182c-2.075 7.29-.625 14.5-1.328 21.897-.74 7.787-2.835 17.161-7.032 23.842-3.253 5.178-8.114 11.415-14.83 7.85-6.419-3.408-11.838-12.022-16.733-17.32 3.783-1.61 4.91-2.01 8.886-1.053 2.598.626 5.654 1.892 8.227.382 5.11-2.996 6.033-13.585 6.152-18.779.069-3.012.671-6.101-3.245-5.35-2.384.457-5.496 3.829-7.469 5.278-6.347 4.662-12.56 9.738-19.602 13.326-5.56 2.833-11.502 4.819-17.478 6.563-2.25.657-5.66 2.414-8.087 1.855-5.034-1.159-2.599-3.943-.032-5.609 12.045-7.814 24.318-14.793 35.56-23.863 5.294-4.271 11.442-8.997 15.412-14.584 1.128-1.587 2.838-4.401 1.496-6.362-1.77-2.586-5.495.123-7.429 1.683-10.67 8.609-22.502 15.656-35.637 20.023-2.474.822-6.573 1.809-9.229.858-3.472-1.242-2.199-2.754.042-4.617 2.49-2.07 6.554-3.474 9.365-5.151a191.075 191.075 0 0 0 9.866-6.326c5.434-3.711 11.092-7.524 16.034-11.877 2.75-2.422 11.371-12.63 2.21-11.649-5.641.604-11.317 5.607-16.308 7.947-3.012 1.412-6.232 2.278-9.481 2.938-1.805.366-9.018 2.494-10.672 1.187-4.338-3.428 8.383-8.45 10.065-9.442 6.486-3.828 12.507-8.414 18.543-12.902 1.816-1.35 5.018-3.22 5.24-5.853.303-3.603-5.062-2.731-7.98-3.132-3.058-.42-9.35-3.238-6.309-7.038 1.585-1.981 7.941-2.139 10.486-2.659 3.886-.795 7.774-1.586 11.662-2.366 8.016-1.606 16.276-3.841 24.432-4.456 3.792-.286 14.202-1.19 14.386 4.957.171 5.759-12.468 6.517-16.412 7.49-4.001.987-6.349.913-8.722 4.406l-5.546 8.163-1.217 1.791c-1.77 1.336-1.618 2.468.457 3.396.547.96 2.499 2.406 3.197 3.074 2.337 2.238 6.013 7.098 9.502 7.202 4.947.148 12.43-8.93 15.75-12.202 4.146-4.082 7.783-12.314 14.524-12.174 4.858.101 13.047 7.022 11.39 12.285-1.927 6.118-11.977 7.566-17.066 9.338-3.754 1.306-7.098 3.405-10.388 5.593-1.798 1.196-6.666 3.236-6.99 5.402-.547 3.652 16.142 11.758 19.174 13.618 7.052 4.326 14.029 8.247 22.026 10.538 7.306 2.094 15.276 2.127 22.417 4.615 2.05.714 7.981 2.975 6.176 6.396-1.128 2.138-7.727 3.692-9.842 4.631-6.376 2.83-13.222 5.002-20.208 3.123-7.102-1.91-13.197-7.816-18.764-12.36-6.134-5.005-12.228-9.878-18.641-14.523-1.739 6.108 3.716 2.691 0 0zm-25.337-84.815l-10.922-20.238c6.314-3.418 13.85-1.262 19.715 2.194 5.545 3.266 5.573 7.921 8.617 12.798 1.32 2.114 1.168 1.866 4.154 1.962 1.565.05 3.047-.026 4.607-.185 4.096-.415 8.192-1.132 12.264-1.737 6.702-.995 15.004-3.958 21.738-2.588 5.481 1.115 11.42 5.961 14.777 10.312 4.842 6.275 3.342 10.117-3.863 12.438-6.762 2.178-15.475 5.86-22.671 5.705-3.441-.074-4.038-1.168-3.059-4.506 1.077-3.67 3.7-7.498 5.387-10.92-8.924-2.41-18.853-.264-27.983.898-9.334 1.188-18.594 2.784-27.845 4.496-8.349 1.546-18.662 1.882-26.558 4.923-2.916 1.123-3.066 1.772-4.77 4.538a215.222 215.222 0 0 1-3.574 5.643c-2.103 3.192-4.446 8.352-8.657 9.098-8.633 1.53-9.496-7.695-7.128-13.443 1.848-4.486 4.324-8.826 6.506-13.162 1.505-2.992 3.142-8.938 5.828-10.786 2.957-2.035 4.918.686 6.884 2.717 3.15 3.253 4.918 3.258 9.386 3.21 9.152-.099 18.255-1.305 27.167-3.367-4.234-7.845-12.312 2.849 0 0zm252.307-221.189c-.278 2.717-1.77 8.732-.13 10.061 2.034 1.648 8.109-.479 10.257-.917 7.118-1.451 13.61-3.76 20.546-.3 5.339 2.663 6.698 5.906 5.178 11.559-.939 3.495-1.952 5.203 2.586 5.604 3.194.282 6.07-1.078 9.434-.415 3.604.71 13.09 4.266 12.221 9.034-1.12 6.142-15.537 3.767-19.742 3.724-2.614-.027-7.487-.463-9.681 1.386-2.043 1.721-3.837 7.736-3.794 10.303.105 6.214 4.945 12.983 9.132 17.082 16.321 15.974-22.532 12.154-18.179 20.314.744 1.395 6.245 2.685 7.378 3.131 3.443 1.357 6.929 2.614 10.334 4.066 5.812 2.477 11.042 5.751 14.287 11.362 3.042 5.261 2.612 12.546-5.072 11.309-7.586-1.222-14.658-7.501-20.541-11.91-4.771-3.577-11.926-11.565-18.356-12.062-3.643-.282-4.051 1.921-4.022 5.472.035 4.234.41 8.318-.033 12.578-.67 6.446-1.021 16.045-7.422 19.662-7.952 4.494-14.24-6.093-18.802-11.142-2.226-2.463-6.213-6.113-2.346-8.367 2.761-1.61 6.535.322 9.45-.206 7.751-1.401 4.574-14.808 3.472-20.185-10.074 5.484-17.827 14.974-26.673 22.216-4.33 3.544-8.909 5.092-14.04 2.101-2.969-1.73-9.066-6.425-6.265-10.101 2.569-3.372 11.307-5.049 15.178-6.654 3.857-1.598 8.974-2.963 12.082-5.886 2.502-2.353 2.507-3.274.266-5.668a382.493 382.493 0 0 0-5.975-6.242c-3.455-3.526-6.182-7.019-7.096-12.018 1.696-.366 4.76-.483 6.258-1.35l2.092-.451-.681-4.508c.2-2.831-.347-2.917 2.518-4.319 1.486-.728 3.102-.982 4.71-1.269 3.623-.646 23.434-1.658 18.068-9.774-3.373-5.102-17.352.666-22.074 1.062a54.827 54.827 0 0 1-6.409.16l-2.196-.119c-1.994-.924-2.944-.301-2.85 1.87-2.328 3.463-3.187 10.065-4.234 14.119-4.293 16.628-10.423 30.954-20.882 44.746-2.99 3.944-10.617 13.228-16.574 11.887-6.133-1.381 6.434-14.607 8.179-17.415 9.274-14.932 16.162-32.157 19.832-49.326 1.775-8.301 2.57-16.678 3.337-25.118.684-7.518 3.59-16.661-1.786-23.146-1.838-2.218-5.921-3.333-4.502-6.718 1.258-3.002 7.028-2.886 9.534-3.259 10.092-1.504 20.369-2.487 30.37-4.515 1.753-.355 4.586-.625 6.145-1.501 2.386-1.341 2.525-.646 1.888-3.764-.615-3.01-2.446-5.45-3.889-8.086-4.519-8.256 1.626-9.988 9.044-6.958 3.821 1.561 8.353 3.876 10.505 7.489 1.015 1.705 1.122 3.918 2.099 5.564-.071 1.91.849 2.825 2.758 2.744 1.372.333 2.762.485 4.174.458 4.739-.17 8.736-3.128 13.497-3.638 4.109-.44 9.191-1.01 13.037.746 2.576 1.175 7.657 4.253 6.368 7.718-1.286 3.461-10.095 3.201-13.116 3.564-9.49 1.139-19.808 1.104-28.852 4.216-.327 3.187 1.54-.53 0 0zm-41.561 18.333c6.327-.615 12.888-.797 19.062-2.426 3.138-.828 5.67-1.225 6.508-4.246.619-2.233-.152-6.484-1.682-8.309-3.46-4.126-13.051-.626-17.663.347-3.872.818-5.518 1.657-6.542 5.806-.713 2.886-.225 5.961.317 8.828 4.494-.436-.915-4.844 0 0zm42.162 67.895c6.04-1.246 9.082-5.362 13.104-9.995 1.97-2.268 4.011-4.601 5.363-7.309.471-.945 1.375-2.511 1.376-3.584.001-2.594.094-2.336-2.957-2.869-4.615-.806-14.284-.783-16.618 4.114-2.31 4.85-.349 14.375-.268 19.643 2.114-.436-.096-6.263 0 0zm-42.21-62.551c-2.581 3.078-6.533 10.77-1.076 13.201 2.485 1.107 6.749-.336 9.198-.753 3.975-.677 7.959-1.381 11.908-2.199 2.44-.506 5.652-.861 6.831-3.478 1.366-3.033-.82-4.83-3.573-5.421-3.21-.689-7.276.414-10.553.466-4.32.068-8.663-.248-12.735-1.816-.974 1.161 6.929 2.668 0 0zm28.254 62.65c.027-4.114.431-8.226.266-12.34-.065-1.612.071-3.81-.577-5.341-1.201-2.837-1.397-2.132-4.585-2.027-4.213.138-7.207.681-10.867 2.765 2.566 3.635 5.07 6.551 6.278 10.906.226.815.636 5.065 1.246 5.591 1.056.909 6.795.368 8.239.446.048-7.054-3.146-.171 0 0zm30.469-57.196c.688-3.606 2.53-7.763-1.682-9.226-2.257-.783-13.348.962-15.19 2.62-2.886 2.595-1.39 7.459 2.048 8.438 3.992 1.136 10.761-1.259 14.824-1.832.435-2.279-4.486.632 0 0zm-3.384 11.957c-5.718-1.463-15.666-.07-13.806 7.736 1.321 5.544 4.592 3.106 9.083 1.967 3.185-.808 2.482-.738 3.594-3.398.755-1.807.784-4.379 1.129-6.305-5.273-1.349-.599 3.342 0 0zm13.987 404.706c6.842 1.169 9.006-.79 11.089-7.162 2.298-7.031 6.24-8.179 11.207-2.012 5.014 6.225-1.677 11.562-5.35 16.551-1.514 2.058-4.715 6.328-3.306 8.083 1.736 2.162 6.982 3.284 9.402 4.842 4.906 3.156 7.692 8.55 5.559 14.35-3.062 8.329-8.646.67-13.906-.342-7.058-1.358-12.661 3.434-18.645 6.154-6.481 2.946-9.458-1.786-13.873-6.074-1.585 1.697-4.024 5.749-6.534 5.938-1.96.147-3.266-1.524-4.938-2.138-1.198-.44-4.871-1.426-5.298.773-.218 1.13 3.815 5.346 4.381 6.894 1.248 3.411.403 5.322 4.516 5.757 3.402.36 7.254-.459 10.641-.809 7.468-.77 15-1.454 22.383-2.838 6.807-1.276 13.703-3.454 20.629-1.712 3.174.798 14.204 4.775 12.854 9.705-1.437 5.245-12.071 5.076-15.887 5.113-7.951.076-15.902.15-23.853.281-7.582.125-15.329-.167-22.88.577-2.855.282-6.635.389-8.214 2.741-1.925 2.868-1.025 7.73-.931 11.006.217 7.547.262 15.097.517 22.645.222 6.585.975 14.737-3.969 20.128-3.905 4.258-8.013.227-9.894-3.814-3.299-7.086-.446-15.109.29-22.482.705-7.06.518-14.167.111-21.238-.215-3.734-.177-5.068-3.654-6.031-3.753-1.039-9.266.279-13.024.969-2.154.395-10.674 1.429-10.716 2.961-.062 2.325 2.626 2.61 4.111 3.619 6.105 4.146 3.976 10.098.318 15.182-4.267 5.934-10.691 10.613-16.902 14.327-6.346 3.794-13.012 8.25-20.498 6.358 1.962-4.83 5.863-7.586 9.586-11.228 4.222-4.131 8.319-8.402 12.05-12.988 1.75-2.152 7.969-9.406 4.784-12.733-2.797-2.92-11.626.98-14.772 1.352-4.714.557-8.974-.85-12.879-3.443-3.818-2.534-7.481-6.054-1.473-8.381 5.399-2.092 12.344-1.674 18.061-2.162 6.256-.533 12.514-1.042 18.773-1.527 5.994-.465 11.808-1.071 17.592-2.808 2.698-.81 5.786-1.058 6.599-3.898.551-1.925-.336-4.054-1.441-5.578-1.235-1.703-3.422-3.366-5.547-3.64-3.25-.419-4.182 1.974-6.844 2.909-4.523 1.59-8.113-2.869-13.231-1.441-6.957 1.941-18.554 13.485-24.324 4.412-3.404-5.354-.472-7.61 3.059-11.214 3.518-3.59 5.285-8.566 8.015-12.712-3.188-.334-5.851.226-8.981.194-2.79-.028-1.722 1.101-3.867-1.294-.948-1.058-1.832-2.734-2.374-4.018-2.748-6.504 4.626-11.006 7.962-15.998 3.807-5.697 6.497-12.055 8.503-18.586 1.539-5.01 2.843-12.413 9.845-9.586 6.806 2.747 7.812 8.624 4.288 14.06-2.182 3.366-4.542 6.625-6.845 9.908-1.425 2.032-5.622 6.143-5.871 8.643-.263 2.649 1.526 3.414 4.039 2.879 3.418-.727 5.192-3.482 6.258-6.427.984-2.719 1.047-5.8 4.57-6.102 2.833-.243 5.063 2.406 7.913 2.374.255-3.005-.197-9.149 1.846-10.832 3.28-2.703 6.407-1.207 8.895-5.442 3.883-6.61 2.89-12.888 4.468-19.902.513-2.281.143-2.35 3.122-2.578 1.672-.128 2.837-.202 4.372.503 1.994.916 5.914 3.964 6.569 6.17 1.261 4.253-5.318 12.705-7.21 16.34 5.198.885 10.516-.104 15.474 1.931 2.776 1.139 5.172 2.311 5.971 5.021.818 2.772.358 6.553.514 9.434 6.538-3.697 9.53-9.919 12.02-16.866 1.26-3.515 2.406-7.1 3.489-10.674 1.012-3.342.77-7.76 5.166-7.978 8.205-.407 9.826 9.667 7.156 15.25-3.359 7.026-9.158 12.741-11.036 20.354 5.912 1.011.331-1.342 0 0zm-45.109 7.281c3.938-.264 12.751-1.484 13.548-5.19.396-1.84-1.268-7.032-2.398-7.675-1.238-.705-4.834-.319-6.237-.163-7.414.824-6.239 7.23-4.913 13.028 1.974-.133-2.723-11.906 0 0zm40.505 8.025c-1.773-1.751-3.885-.378-5.949-.374-1.496.002-4.698-1.671-6.014-1.115-3.631 1.531-1.878 11.381-.329 14.774 6.248-2.256 10.204-7.104 12.292-13.285-2.049-2.023-2.085 6.172 0 0zm-40.165 12.224c3.274-.689 9.314-.75 12.033-3.045 2.445-2.063 2.586-6.824-.282-8.51-2.14-1.258-8.537-.718-10.633.54-3.926 2.358-1.723 7.432-1.118 11.015 4.037-.85-.48-2.843 0 0zm-14.574-18.234l-10.894 13.556 11.403 6.265c2.19-6.586 1.137-13.245-.509-19.821-4.286 5.333 1.924 7.689 0 0zm-15.945 25.617c.687-1.399 1.981-3.89-1.053-3.818-3.579.086.333 3.347 1.053 3.818.504-1.024-1.147-.75 0 0zm84.49-12.003c-3.017-1.352-2.897 1.337 0 0-.59-.264-.59.273 0 0zm-25.338 48.318c4.481-2.86 8.77-1.254 13.303.442 5.604 2.097 11.565 4.342 16.7 7.448 7.238 4.378 15.628 14.398 12.088 23.393-4.155 10.556-16.954-3.757-20.872-7.707-7.387-7.448-15.151-15.037-21.219-23.576 4.55-2.905 1.633 2.299 0 0zM694.77 471.729c1.655-3.41 4.231-4.134 7.683-3.793 4.924.486 9.182 1.438 14.19.705 2.98-.436 6.118-1.063 7.57-4.013 1.578-3.206.626-9.67-1.657-12.206-3.206-3.564-7.618-1.43-11.678-1.158-4.164.278-8.176-.746-11.631-3.118-.879-.604-3.95-2.586-4.105-3.684-.309-2.193 1.084-1.919 2.785-2.602 4.606-1.848 9.662-1.898 14.512-2.622 10.018-1.498 19.838-4.014 29.753-6.045 10.022-2.054 20.257-3.031 30.038-6.134 5.36-1.7 17.027.557 18.736 7.441.714 2.874-.103 2.89-2.823 3.688-1.856.544-3.674.902-5.584 1.21-5.09.822-10.214 1.414-15.326 2.072-4.052.521-7.06 1.17-9.008 5.062-1.639 3.274-2.913 9.666-1.105 13.024 1.298 2.412 1.847 1.942 4.524 1.249 2.151-.558 4.162-1.479 6.299-2.058 4.174-1.132 8.311-.707 12.262 1.022 3.271 1.431 7.555 3.797 9.332 7.038 2.177 3.97-.018 9.427-.458 13.65-1.162 11.149-.417 22.175.29 33.318.671 10.567.894 21.198.992 31.786.045 4.878-3.823 20.626-11.798 16.801-3.529-1.692-3.792-6.304-5.96-9.003-2.236-2.784-5.515-3.038-8.838-2.858-10.31.561-20.622 2.103-30.93 2.864-5.324.393-10.714.49-16.018 1.084-2.173.243-4.369.59-6.288 1.715-1.65.967-2.722 2.821-4.62 3.262-4.435 1.03-7.697-4.895-8.81-8.349-1.355-4.207-.743-9.779-.008-14.072 1.905-11.127 2.813-21.494 1.99-32.831-.779-10.767 1.294-22.64-4.311-32.445 2.048-4.217 4.66 8.152 0 0zm41.283 3.937c-1.795 9.632-3.482 19.159-9.598 27.15-4.9 6.402-14.259 9.363-15.48 18.01-.694 4.922-.554 10.785-.208 15.741.066.954.282 5.53.947 6.202 1.13 1.143 6.494.216 7.878.073 12.163-1.258 24.244-3.015 36.438-4.1 4.783-.426 12.816.371 17.056-2.09 1.788.081 2.486-.793 2.092-2.622.186-1.423.334-2.85.445-4.281.221-2.841.299-5.694.222-8.542-.1-3.702.325-10.415-2.787-12.278-4.29-2.568-11.39-1.626-16.198-3.02-7.438-2.157-11.515-6.975-12.457-14.604-.483-3.92 1.146-10.808-.794-14.272-1.635-2.925-4.601-1.975-7.556-1.367-.683 3.668 6.416-1.32 0 0zm20.493-2.432c-.471 4.901-3.24 13.872-.17 18.261 2.475 3.538 10.71 3.976 14.401 2.638 5.616-2.038 2.947-9.779 2.194-14.295-.65-3.898-.873-7.05-5.034-7.99-3.935-.89-7.767-.445-11.391 1.386-.428 4.442 5.009-2.531 0 0zm-43.56 7.598c-.917 6.563-2.026 12.735.697 18.96 3.435-3.454 7.269-7.482 7.776-12.574.161-1.612.155-4.365-.658-5.81-1.15-2.043-.542-1.25-3.076-1.285-1.48-.02-3.307.495-4.739.709-1.64 11.734 2.772-.414 0 0zm28.676-36.557c-2.299 2.969-10.814 19.595-2.886 20.743 7.783 1.128 3.746-17.27 2.886-20.743-4.756 6.139 1.811 7.32 0 0zm-53.86 39.223c5.053 5.595 1.731 11.813-.374 17.959-2.69 7.856-5.479 15.678-8.222 23.515-2.654 7.584-5.094 15.162-7.268 22.897-1.606 5.713-6.235 11.856-11.78 5.492-3.051-3.502-4.594-10.59-4.277-15.071.502-7.086 6.346-10.853 10.387-16.03 9.21-11.8 13.338-26.384 21.534-38.762 4.037 4.47-2.161 3.264 0 0zm.699-32.12c-7.028 3.258-11.702-.868-16.154-6.105-2.265-2.664-13.327-13.911-6.896-16.978 4.282-2.042 16.631 3.964 20.091 6.607 5.401 4.126 5.708 10.605 2.959 16.476-4.736 2.196 3.276-6.995 0 0zm-11.422 28.143c-.248 7.489-7.302 8.336-12.489 4.831-3.179-2.148-5.595-5.117-7.95-8.099-1.666-2.11-5.673-5.828-6.026-8.574-.966-7.508 12.188-2.635 15.386-1.491 6.498 2.324 11.594 5.843 11.079 13.333-.197 5.945.277-4.034 0 0zm52.613 52.144c-3.258 0-10.352 1.142-12.237-2.677-2.26-4.578 5.034-6.066 7.858-6.879 5.233-1.506 10.73-2.215 16.101-3.072 5.044-.804 10.647-2.261 15.766-2.19 2.664.037 8.649.567 9.461 3.868.968 3.932-4.751 5.197-7.318 6.033-9.577 3.118-19.536 4.964-29.631 4.917-2.44 0 10.901.051 0 0z"/></svg>