<svg xmlns="http://www.w3.org/2000/svg" viewBox="0 0 1280 400"><g fill="#6B0C22"><path d="M280.165 198.282c-.131-2.467-.004-4.95-.437-7.392-.392-2.209-.174-4.584-.881-6.726-.795-2.409-.901-5.019-1.47-7.513-.595-2.61-1.455-5.177-2.277-7.722-3.162-9.801-7.79-18.872-13.733-27.272-6.035-8.531-13.338-15.694-21.578-22.08-4.016-3.112-8.337-5.635-12.785-8.068-2.384-1.304-4.803-2.413-7.32-3.433-2.285-.926-4.477-2.089-6.837-2.822-9.835-3.053-19.968-4.84-30.268-5.209-2.693-.097-5.395-.048-8.074.251-2.44.272-5.123.266-7.468 1.015-2.251.719-4.791.79-7.122 1.337-2.485.583-4.998 1.121-7.447 1.844-19.584 5.785-36.56 18.013-49.259 33.856-6.489 8.095-11.549 17.42-15.173 27.124-1.83 4.9-3.118 9.861-4.226 14.969-.553 2.551-.722 5.117-1.121 7.688-.4 2.577-.749 4.966-.806 7.588-.06 2.781-.194 5.572-.123 8.354.062 2.431.402 4.852.5 7.285.046 1.141.183 2.241.565 3.323.383 1.082.423 2.191.603 3.334.402 2.551 1.04 5.035 1.645 7.543 1.211 5.028 3.092 9.778 4.83 14.636.833 2.328 2.291 4.592 3.442 6.794a108.652 108.652 0 0 0 3.811 6.721c5.38 8.717 12.64 16.8 20.469 23.391 3.967 3.34 8.283 6.444 12.789 9.015 4.258 2.429 8.655 4.832 13.271 6.499 2.298.83 4.5 1.891 6.833 2.626 2.462.776 4.964 1.423 7.474 2.027s5.033 1.176 7.591 1.533c1.335.186 2.666.263 4.009.358 1.098.077 2.073.533 3.178.601 10.054.625 20.072.109 29.851-2.248 4.897-1.181 9.965-2.427 14.662-4.263 2.281-.892 4.534-2.151 6.778-3.168 2.297-1.041 4.473-2.317 6.66-3.57 8.654-4.955 16.844-11.502 23.349-19.076 6.546-7.621 12.268-15.824 16.531-24.959 2.174-4.657 3.646-9.464 5.417-14.268 1.746-4.737 2.635-10.126 3.28-15.119.631-4.878.867-9.892.867-14.804-.148-2.787 0 1.05 0 0zm-148.222-60.819c12.488-10.825 29.535-16.238 45.777-17.458 4.192-.315 8.198.329 12.354.72 4.206.395 8.208 1.149 12.3 2.159 7.629 1.883 14.931 5.42 21.475 9.712a196.468 196.468 0 0 1 4.857 3.277c1.391.972 2.033 2.088 1.902 3.802-.282 3.679-1.726 7.444-3.456 10.667-3.323 6.189-8.514 10.999-14.4 14.726-13.78 8.726-31.286 10.889-47.075 7.2-8.27-1.932-16.533-5.736-22.847-11.487-3.096-2.82-5.866-6.079-7.786-9.819-1.022-1.992-1.697-4.111-2.353-6.245-.752-2.442-1.307-4.695-.748-7.254 3.405-2.951 0 0 0 0zm68.153 77.45c-.112 1.94-3.052 1.49-4.361 1.518l-7.286.16c-4.655.102-9.31.202-13.965.294-2.167.043-4.335.063-6.502.127-.913.027-1.824.082-2.729-.084-.896-.164-.78-.095-1.054-.859-.202-.562-.131-1.407-.18-2.007-.374-4.593-.217-9.272-.274-13.879-.055-4.483-.236-8.962-.3-13.443-.012-.818-.193-1.924.496-2.523.495-.431 1.422-.37 2.04-.398 2.45-.112 4.911-.109 7.363-.161a66418.746 66418.746 0 0 1 20.716-.44c1.676-.035 4.891-.929 5.503 1.156.306 1.043.093 2.379.102 3.451.01 1.221.02 2.441.032 3.662.026 2.632.061 5.263.116 7.894.107 5.145.579 10.392.283 15.532-.047.814.06-1.042 0 0zm-75.221 35.716c-1.66.282-3.398 1.199-5.015.293-1.506-.843-2.582-2.778-3.55-4.165-2.32-3.319-4.566-6.805-6.396-10.42-3.573-7.059-6.299-15.05-7.292-22.913-.533-4.216-1.33-8.434-1.271-12.699.058-4.173.448-8.505 1.01-12.64 1.107-8.142 3.803-16.489 7.565-23.784 1.799-3.49 3.818-6.947 6.06-10.172 1.044-1.501 1.908-2.429 3.771-2.316 2.013.123 4.052.345 6.01.837 7.516 1.888 14.063 7.009 18.619 13.134 9.664 12.992 12.856 30.434 10.47 46.249-1.359 9.005-4.5 17.681-9.901 25.096-4.831 6.632-11.846 12.099-20.08 13.5-.773.131 4.922-.838 0 0zm107.319 10.596c-6.105 5.238-13.014 9.66-20.484 12.673-3.852 1.553-7.694 2.731-11.67 3.919-3.723 1.112-7.713 1.346-11.565 1.758-4.294.46-8.363.666-12.671.226-3.844-.392-7.695-.596-11.477-1.439-7.935-1.768-15.797-4.786-22.814-8.89a101.195 101.195 0 0 1-5.222-3.285 120.78 120.78 0 0 1-.947-.64c-.681-.464-.818-.446-.99-1.224-.229-1.034-.09-2.322-.026-3.362.234-3.814 1.556-7.477 3.328-10.835 3.524-6.677 9.335-11.861 15.87-15.519 7.07-3.958 15.108-6.524 23.168-7.342 4.283-.435 8.616-.467 12.916-.349 1.866.051 3.74.177 5.563.597.891.205 1.749.569 2.651.722 1.071.182 2.141.189 3.206.447 4.219 1.023 8.333 2.869 12.21 4.79 3.476 1.723 6.658 3.995 9.48 6.651 2.994 2.818 5.662 5.916 7.403 9.661.906 1.948 1.73 3.939 2.33 6.005.493 1.699 1.314 4.086-.259 5.436-2.648 2.272.636-.546 0 0zm28.274-60.336c.266 4.188-.466 8.536-1.123 12.663-.628 3.945-1.686 7.807-2.948 11.592-2.48 7.439-6.117 14.202-10.347 20.78-.878 1.365-1.678 2.435-3.415 2.327a21.765 21.765 0 0 1-5.842-1.201c-3.258-1.153-6.347-2.883-9.096-4.969-5.895-4.474-10.058-10.723-13.11-17.39-3.399-7.424-5.158-15.412-5.331-23.556-.176-8.308.479-16.333 3.258-24.22 2.436-6.912 5.983-13.593 11.28-18.742 2.567-2.496 5.489-4.62 8.682-6.245 1.633-.831 3.295-1.492 5.088-1.882 1.592-.346 3.879-1.227 5.271-.116 1.575 1.258 2.641 3.323 3.75 4.966 1.256 1.86 2.495 3.732 3.637 5.665 2.2 3.723 3.935 7.699 5.409 11.76 3.201 8.813 4.272 17.704 5.068 26.986-.459.027-.257 1.178-.231 1.582.228 3.601-.033-.521 0 0zm-133.014 7.046c-.519 1.822-.156 3.625-.332 5.474-.185 1.947-.709 4.29-1.758 5.961-.813 1.295-2.028 2.854-3.708 1.962-1.605-.852-2.959-3.006-4.183-4.33.946-.403 1.228-.503 2.222-.263.65.156 1.413.473 2.057.096 1.277-.749 1.508-3.396 1.538-4.695.017-.753.168-1.525-.811-1.338-.596.114-1.374.957-1.867 1.319-1.587 1.166-3.14 2.435-4.901 3.332-1.39.708-2.875 1.205-4.369 1.641-.562.164-1.415.604-2.022.464-1.258-.29-.65-.986-.008-1.402 3.011-1.954 6.079-3.698 8.89-5.966 1.323-1.068 2.86-2.249 3.853-3.646.282-.397.709-1.1.374-1.59-.442-.646-1.374.031-1.857.421-2.668 2.152-5.626 3.914-8.909 5.006-.618.206-1.643.452-2.307.214-.868-.311-.55-.689.011-1.154.623-.517 1.639-.869 2.341-1.288.839-.5 1.66-1.031 2.466-1.582 1.358-.928 2.773-1.881 4.009-2.969.688-.606 2.843-3.158.552-2.912-1.41.151-2.829 1.402-4.077 1.987-.753.353-1.558.57-2.37.734-.451.092-2.255.623-2.668.297-1.084-.857 2.096-2.112 2.516-2.361 1.621-.957 3.127-2.103 4.636-3.226.454-.338 1.255-.805 1.31-1.463.076-.901-1.265-.683-1.995-.783-.765-.105-2.337-.81-1.577-1.759.396-.495 1.985-.535 2.621-.665.972-.199 1.943-.397 2.916-.591 2.004-.401 4.069-.96 6.108-1.114.948-.071 3.551-.297 3.596 1.239.043 1.44-3.117 1.629-4.103 1.872-1 .247-1.587.228-2.181 1.102L122.081 198l-.304.448c-.442.334-.404.617.114.849.137.24.625.602.799.769.584.56 1.503 1.774 2.376 1.801 1.237.037 3.107-2.233 3.938-3.05 1.036-1.021 1.946-3.078 3.631-3.044 1.214.025 3.262 1.756 2.847 3.071-.482 1.53-2.994 1.892-4.266 2.334-.938.327-1.774.851-2.597 1.398-.45.299-1.666.809-1.747 1.351-.137.913 4.036 2.939 4.794 3.404 1.763 1.081 3.507 2.062 5.506 2.635 1.826.523 3.819.532 5.604 1.154.512.178 1.995.744 1.544 1.599-.282.535-1.932.923-2.461 1.158-1.594.708-3.305 1.251-5.052.781-1.775-.477-3.299-1.954-4.691-3.09-1.535-1.254-3.059-2.472-4.662-3.633-.435 1.527.929.672 0 0zm-6.334-21.204l-2.731-5.06c1.579-.855 3.463-.315 4.929.549 1.386.817 1.393 1.98 2.154 3.199.33.529.292.466 1.039.49a8.53 8.53 0 0 0 1.152-.046c1.024-.104 2.048-.283 3.066-.434 1.675-.249 3.751-.99 5.435-.647 1.37.279 2.855 1.49 3.694 2.578 1.21 1.569.836 2.529-.966 3.109-1.69.545-3.869 1.465-5.668 1.426-.86-.018-1.01-.292-.765-1.126.269-.918.925-1.875 1.347-2.73-2.231-.603-4.713-.066-6.996.224-2.334.297-4.649.696-6.961 1.124-2.087.386-4.665.47-6.64 1.231-.729.281-.767.443-1.192 1.134a55.85 55.85 0 0 1-.893 1.411c-.526.798-1.112 2.088-2.164 2.275-2.158.383-2.374-1.924-1.782-3.361.462-1.122 1.081-2.206 1.626-3.291.376-.748.785-2.234 1.457-2.697.739-.509 1.229.171 1.721.679.787.813 1.23.814 2.346.802 2.288-.022 4.564-.324 6.792-.839-1.059-1.961-3.079.712 0 0zm63.076-55.297c-.07.679-.442 2.183-.032 2.515.509.412 2.027-.12 2.564-.229 1.78-.363 3.402-.94 5.137-.075 1.335.666 1.674 1.476 1.295 2.89-.235.874-.488 1.301.646 1.401.798.07 1.518-.27 2.358-.104.901.178 3.273 1.066 3.055 2.259-.28 1.536-3.884.942-4.935.931-.653-.007-1.872-.116-2.42.346-.511.43-.959 1.934-.948 2.576.026 1.553 1.236 3.246 2.283 4.27 4.08 3.994-5.633 3.038-4.545 5.079.186.349 1.561.671 1.845.783.861.339 1.732.654 2.584 1.016 1.453.619 2.761 1.438 3.572 2.841.76 1.315.653 3.137-1.268 2.827-1.896-.305-3.665-1.875-5.135-2.978-1.193-.894-2.982-2.891-4.589-3.015-.911-.07-1.013.48-1.005 1.368.009 1.058.103 2.08-.008 3.144-.168 1.612-.255 4.011-1.856 4.916-1.988 1.123-3.56-1.523-4.701-2.785-.557-.616-1.553-1.528-.587-2.092.69-.402 1.634.08 2.362-.051 1.938-.35 1.144-3.702.868-5.046-2.519 1.371-4.457 3.744-6.668 5.554-1.082.886-2.227 1.273-3.51.525-.742-.433-2.266-1.606-1.566-2.525.642-.843 2.827-1.262 3.795-1.663.964-.4 2.244-.741 3.02-1.471.625-.588.627-.819.066-1.417a95.741 95.741 0 0 0-1.494-1.56c-.864-.882-1.545-1.755-1.774-3.005.424-.092 1.19-.121 1.564-.338l.523-.113-.17-1.127c.05-.708-.087-.729.629-1.08.372-.182.775-.245 1.177-.317.906-.161 5.858-.414 4.517-2.443-.843-1.275-4.338.167-5.519.266-.533.045-1.068.058-1.602.04l-.549-.03c-.499-.231-.736-.075-.712.467-.582.866-.797 2.516-1.058 3.53-1.073 4.157-2.606 7.738-5.22 11.186-.748.986-2.654 3.307-4.143 2.972-1.533-.345 1.609-3.652 2.045-4.354 2.319-3.733 4.04-8.039 4.958-12.331.444-2.075.642-4.169.834-6.28.171-1.879.898-4.165-.446-5.786-.46-.554-1.48-.833-1.126-1.679.315-.751 1.757-.722 2.383-.815 2.523-.376 5.092-.622 7.593-1.129.438-.089 1.147-.156 1.536-.375.597-.335.631-.162.472-.941-.154-.753-.611-1.362-.972-2.022-1.13-2.064.407-2.497 2.261-1.74.955.39 2.088.969 2.626 1.872.254.426.281.979.525 1.391-.018.478.212.706.69.686.343.083.691.121 1.043.114 1.185-.042 2.184-.782 3.374-.909 1.027-.11 2.298-.252 3.259.186.644.294 1.914 1.063 1.592 1.93-.322.865-2.524.8-3.279.891-2.373.283-4.953.275-7.214 1.053-.081.796.385-.133 0 0zm-10.39 4.583c1.582-.154 3.222-.199 4.765-.607.785-.207 1.417-.306 1.627-1.061.155-.558-.038-1.621-.421-2.077-.865-1.031-3.263-.157-4.416.087-.968.204-1.38.414-1.635 1.451-.177.721-.055 1.49.08 2.207 1.124-.109-.229-1.211 0 0zm10.541 16.974c1.51-.312 2.27-1.341 3.276-2.499.492-.567 1.003-1.15 1.341-1.827.118-.236.344-.628.344-.896 0-.648.023-.584-.739-.717-1.154-.202-3.571-.196-4.154 1.029-.579 1.211-.089 3.593-.068 4.91.528-.109-.025-1.566 0 0zm-10.553-15.638c-.645.769-1.633 2.693-.269 3.3.621.277 1.687-.084 2.3-.188.994-.169 1.99-.345 2.977-.55.61-.126 1.413-.215 1.708-.87.342-.758-.205-1.208-.893-1.355-.802-.172-1.819.104-2.638.117-1.081.017-2.167-.062-3.185-.454-.243.29 1.732.667 0 0zm7.064 15.662c.007-1.028.108-2.057.067-3.085-.016-.403.018-.952-.144-1.335-.3-.709-.349-.533-1.146-.507-1.053.035-1.802.17-2.717.691.642.909 1.268 1.638 1.57 2.726.057.204.159 1.266.311 1.398.263.228 1.698.093 2.059.112.011-1.763-.787-.042 0 0zm7.617-14.299c.172-.902.633-1.941-.421-2.307-.564-.196-3.337.241-3.798.655-.722.649-.347 1.865.512 2.109.999.285 2.691-.313 3.707-.457.108-.569-1.122.158 0 0zm-.846 2.99c-1.43-.366-3.916-.018-3.451 1.934.33 1.386 1.148.776 2.271.492.796-.202.62-.185.898-.85.188-.452.195-1.095.282-1.576-1.318-.338-.15.835 0 0zm3.497 101.176c1.711.292 2.252-.198 2.772-1.79.575-1.758 1.56-2.045 2.802-.503 1.254 1.556-.419 2.89-1.338 4.138-.379.514-1.179 1.582-.826 2.021.434.54 1.745.821 2.351 1.21 1.227.789 1.923 2.137 1.39 3.588-.765 2.082-2.162.168-3.477-.085-1.764-.339-3.165.858-4.661 1.538-1.62.736-2.364-.447-3.468-1.519-.396.424-1.006 1.437-1.634 1.484-.49.037-.817-.381-1.235-.534-.3-.11-1.218-.356-1.324.193-.055.282.954 1.337 1.095 1.723.312.853.101 1.33 1.129 1.439.851.09 1.814-.115 2.66-.202 1.867-.193 3.75-.364 5.596-.71 1.702-.319 3.426-.863 5.157-.428.793.2 3.551 1.194 3.213 2.426-.359 1.311-3.018 1.269-3.972 1.278-1.988.019-3.976.038-5.963.07-1.896.031-3.832-.042-5.72.144-.714.07-1.659.097-2.054.685-.481.717-.256 1.932-.233 2.751.054 1.887.066 3.774.129 5.661.056 1.646.244 3.684-.992 5.032-.976 1.065-2.003.057-2.474-.953-.825-1.771-.111-3.777.073-5.62.176-1.765.13-3.542.028-5.31-.054-.934-.044-1.267-.914-1.508-.938-.26-2.316.07-3.256.242-.539.099-2.669.357-2.679.74-.016.581.657.653 1.028.905 1.526 1.036.994 2.524.08 3.796-1.067 1.484-2.673 2.653-4.226 3.582-1.586.949-3.253 2.062-5.125 1.589.491-1.208 1.466-1.897 2.397-2.807 1.056-1.033 2.08-2.101 3.012-3.247.438-.538 1.992-2.352 1.196-3.183-.699-.73-2.906.245-3.693.338-1.179.139-2.243-.213-3.22-.861-.955-.634-1.87-1.513-.368-2.095 1.35-.523 3.086-.419 4.515-.54 1.564-.133 3.128-.261 4.693-.382 1.498-.116 2.952-.268 4.398-.702.674-.203 1.446-.265 1.65-.974.138-.481-.084-1.014-.36-1.394-.309-.426-.856-.841-1.387-.91-.813-.105-1.046.493-1.711.727-1.131.398-2.028-.717-3.308-.36-1.739.485-4.639 3.371-6.081 1.103-.851-1.338-.118-1.903.765-2.803.88-.897 1.321-2.142 2.004-3.178-.797-.083-1.463.056-2.245.048-.697-.007-.431.275-.967-.323-.237-.265-.458-.684-.594-1.005-.687-1.626 1.157-2.752 1.991-3.999.952-1.424 1.624-3.014 2.126-4.647.385-1.253.711-3.103 2.461-2.397 1.702.687 1.953 2.156 1.072 3.515-.546.841-1.136 1.656-1.711 2.477-.356.508-1.406 1.536-1.468 2.161-.066.662.382.853 1.01.72.855-.182 1.298-.871 1.564-1.607.246-.68.262-1.45 1.143-1.525.708-.061 1.266.602 1.978.594.064-.751-.049-2.287.461-2.708.82-.676 1.602-.302 2.224-1.36.971-1.652.723-3.222 1.117-4.975.128-.57.036-.587.78-.644.418-.032.709-.05 1.093.126.499.229 1.479.991 1.642 1.543.315 1.063-1.329 3.176-1.803 4.085 1.299.221 2.629-.026 3.869.483.694.285 1.293.578 1.493 1.255.204.693.089 1.638.129 2.359 1.634-.924 2.382-2.48 3.005-4.217.315-.879.602-1.775.872-2.669.253-.836.193-1.94 1.291-1.994 2.051-.102 2.456 2.417 1.789 3.813-.837 1.754-2.287 3.183-2.756 5.086 1.477.253.082-.335 0 0zm-11.278 1.82c.985-.066 3.188-.371 3.387-1.298.099-.46-.317-1.758-.599-1.919-.31-.176-1.209-.08-1.559-.041-1.854.207-1.56 1.809-1.229 3.258.494-.033-.681-2.976 0 0zm10.126 2.007c-.443-.438-.971-.095-1.487-.094-.374.001-1.174-.418-1.504-.279-.908.383-.469 2.845-.082 3.694 1.563-.564 2.551-1.776 3.073-3.321-.512-.506-.521 1.543 0 0zm-10.041 3.056c.818-.172 2.329-.188 3.008-.761.611-.516.647-1.706-.07-2.127-.535-.315-2.134-.18-2.658.135-.982.588-.431 1.857-.28 2.753 1.01-.213-.12-.711 0 0zm-3.643-4.559l-2.724 3.389 2.851 1.566c.548-1.646.284-3.311-.127-4.955-1.072 1.333.481 1.922 0 0zm-3.986 6.404c.172-.35.495-.972-.263-.954-.895.021.082.837.263.954.125-.256-.287-.187 0 0zm21.122-3c-.754-.338-.724.334 0 0-.147-.066-.147.068 0 0zm-6.335 12.079c1.12-.715 2.193-.313 3.326.111 1.401.524 2.891 1.086 4.175 1.862 1.81 1.094 3.907 3.6 3.022 5.848-1.039 2.639-4.238-.939-5.218-1.927-1.846-1.862-3.788-3.759-5.305-5.894 1.138-.726.409.575 0 0zm42.554-67.756c.414-.852 1.058-1.033 1.921-.948 1.231.121 2.296.359 3.548.176.745-.109 1.529-.266 1.892-1.003.395-.801.156-2.417-.414-3.052-.802-.891-1.904-.357-2.919-.29a4.532 4.532 0 0 1-2.908-.78c-.22-.151-.988-.647-1.026-.921-.077-.548.271-.48.696-.65 1.152-.462 2.416-.474 3.628-.656 2.504-.375 4.96-1.003 7.438-1.511 2.505-.513 5.064-.758 7.51-1.533 1.34-.425 4.257.139 4.684 1.86.178.719-.026.722-.706.922-.464.136-.919.225-1.396.303-1.273.206-2.553.354-3.832.518-1.013.13-1.765.293-2.252 1.266-.41.819-.728 2.417-.276 3.256.325.603.462.486 1.131.312.538-.139 1.041-.37 1.575-.515 1.043-.283 2.078-.177 3.066.255.818.358 1.889.949 2.333 1.76.544.993-.004 2.357-.114 3.412-.291 2.787-.104 5.544.073 8.329.168 2.642.224 5.3.248 7.946.011 1.22-.956 5.156-2.949 4.2-.882-.423-.948-1.576-1.49-2.251-.559-.696-1.379-.76-2.21-.715-2.577.14-5.156.526-7.733.716-1.331.098-2.679.122-4.005.271-.543.061-1.092.148-1.572.429-.413.242-.68.705-1.155.815-1.109.258-1.924-1.224-2.202-2.087-.339-1.052-.186-2.445-.002-3.518.476-2.782.703-5.374.498-8.208-.198-2.689.321-5.657-1.08-8.108.511-1.055 1.165 2.038 0 0zm10.32.984c-.449 2.408-.871 4.79-2.399 6.787-1.225 1.601-3.565 2.341-3.87 4.503-.174 1.231-.139 2.696-.052 3.935.017.239.071 1.383.237 1.551.283.286 1.624.054 1.97.018 3.041-.315 6.061-.754 9.109-1.025 1.196-.106 3.204.093 4.264-.522.447.02.621-.198.523-.655a20.572 20.572 0 0 0 .167-3.206c-.025-.926.081-2.604-.697-3.069-1.073-.642-2.847-.406-4.05-.755-1.86-.539-2.879-1.744-3.114-3.651-.121-.98.286-2.702-.198-3.568-.41-.733-1.151-.495-1.89-.343-.171.917 1.604-.33 0 0zm5.123-.608c-.118 1.225-.81 3.468-.042 4.565.619.884 2.678.994 3.6.659 1.404-.51.737-2.445.548-3.574-.163-.974-.218-1.762-1.259-1.998a4.141 4.141 0 0 0-2.847.348c-.106 1.11 1.253-.633 0 0zm-10.89 1.899c-.229 1.641-.507 3.184.174 4.74.859-.864 1.817-1.87 1.944-3.143.04-.403.039-1.091-.165-1.453-.287-.511-.135-.312-.769-.321-.369-.005-.825.124-1.184.177-.409 2.934.694-.103 0 0zm7.17-9.139c-.575.742-2.704 4.899-.721 5.186 1.945.282.935-4.318.721-5.186-1.189 1.535.452 1.83 0 0zm-13.465 9.806c1.263 1.399.433 2.953-.094 4.49-.673 1.964-1.37 3.919-2.056 5.879a95.762 95.762 0 0 0-1.817 5.724c-.402 1.428-1.559 2.964-2.945 1.373-.763-.876-1.149-2.648-1.069-3.768.126-1.771 1.586-2.713 2.597-4.008 2.302-2.95 3.334-6.596 5.384-9.69 1.009 1.117-.541.816 0 0zm.174-8.03c-1.757.815-2.925-.217-4.038-1.526-.566-.666-3.332-3.478-1.724-4.245 1.071-.511 4.158.991 5.023 1.652 1.35 1.031 1.427 2.651.739 4.119-1.184.549.819-1.749 0 0zm-2.855 7.036c-.062 1.872-1.825 2.084-3.122 1.208-.795-.537-1.399-1.279-1.987-2.025-.417-.528-1.418-1.457-1.507-2.143-.242-1.877 3.047-.659 3.846-.373 1.624.58 2.898 1.46 2.77 3.333-.049 1.486.069-1.009 0 0zm13.153 13.036c-.815 0-2.588.285-3.059-.669-.565-1.145 1.258-1.517 1.964-1.72 1.308-.376 2.682-.554 4.025-.768 1.261-.201 2.662-.565 3.942-.548.666.009 2.162.142 2.365.967.242.983-1.188 1.299-1.829 1.508-2.395.78-4.884 1.241-7.408 1.23-.61 0 2.725.012 0 0zM341.393 249.658l-.655-2.926c-.233 3.179-.334 3.34-3.652 2.997-3.911-.405-7.868-.687-11.69-1.539-2.913-.65-3.783-2.85-2.542-5.647 1.199-2.703 2.668-5.303 4.211-7.831 2.25-3.687 5.709-4.003 9.686-3.577 5.273.565 10.627 1.061 15.897.754 4.684-.273 5.87-1.869 6.368-6.563.515-4.86.64-9.759 1.043-14.633.183-2.216-.712-3.77-2.361-5.093-2.301-1.847-2.799-3.102-1.005-5.286 3.594-4.375 4.464-9.313 4.362-14.728-.077-4.068.314-8.142.382-12.215.056-3.287-.585-3.727-3.826-3.886-3.874-.19-7.065.918-8.894 4.476-1.414 2.751-1.781 5.76-1.034 8.827.424 1.741 1.033 3.451 1.288 5.214.429 2.962.005 5.593-2.953 7.361-2.615 1.563-4.903 3.695-7.569 5.146-2.553 1.389-5.093.625-6.157-1.953-1.263-3.061-2.358-6.337-2.701-9.607-1.42-13.529 7.25-22.272 18.155-26.63 8.678-3.468 17.711-4.725 26.965-4.699 3.99.011 8.005.066 11.959.526 3.083.359 3.976 3.219 1.846 5.493-2.069 2.209-2.819 4.659-2.799 7.671.039 5.927-.294 11.855-.405 17.784-.06 3.229 1.017 4.315 4.227 4.247 3.843-.081 7.689-.216 11.525-.469 3.152-.208 3.984-1.007 4.34-4.058.661-5.67 1.058-11.375 1.875-17.02 1.057-7.301 4.264-13.46 10.73-17.459 5.585-3.454 11.157-6.961 16.955-10.029 5.011-2.651 10.54-2.062 15.826-.841 3.465.801 4.309 3.589 2.597 6.792a63.53 63.53 0 0 1-2.102 3.664c-1.894 3.043-4.232 3.846-7.687 2.719-1.189-.388-2.384-.771-3.595-1.082-2.172-.557-3.745-.134-5.914 1.218-3.087 1.925-2.989 4.257-3.206 6.969-.391 4.873-.93 9.735-1.243 14.613-.445 6.929-.898 13.865-1.06 20.804-.169 7.256-.049 14.52.049 21.779.038 2.795.082 5.642.629 8.364.634 3.152 7.078 4.977 9.427 2.781.593-.555.919-1.667.93-2.529.078-6.066-.076-12.136.079-18.199.123-4.815 1.523-9.365 3.543-13.74 2.308-4.999 6.26-8.425 10.979-10.803 6.834-3.444 13.688-7.043 20.903-9.484 8.265-2.797 19.099-2.403 26.322 5.514 3.305 3.622 3.344 3.419 7.834 1.731 7.837-2.946 15.698-5.839 23.628-8.519 3.863-1.306 6.74.282 7.274 4.233.483 3.57.191 7.276-.044 10.904-.263 4.05-.912 8.074-1.272 12.121-.294 3.311-.621 6.644-.53 9.957.064 2.344.52 4.771 1.311 6.979.911 2.543 3.394 3.366 5.866 2.257 1.685-.756 3.37-1.604 4.859-2.681 2.278-1.647 1.824-4.428 2.222-6.75.463-2.701.363-5.495.563-8.244.461-6.356.863-12.719 1.477-19.061.289-2.987 2.103-5.244 4.969-6.041 4.589-1.276 9.264-2.276 13.946-3.166 2.489-.473 4.069.552 4.347 3.064.334 3.019.153 6.114-.013 9.165-.39 7.183-1.05 14.355-1.293 21.541-.094 2.782.449 5.636 1.058 8.378.68 3.066 2.947 3.963 5.993 2.807 3.636-1.379 7.039-3.362 11.234-3.071 2.233.155 3.165 1.281 4.132 2.876 1.815 2.994 3.406 6.194 5.635 8.85 2.976 3.547 9.148 2.608 10.888-.416 1.576-2.74 1.452-5.528-1.429-6.799-3.961-1.748-8.127-3.117-12.314-4.249-6.657-1.799-11.054-6.018-13.019-12.377-1.552-5.023-.531-10.151 2.21-14.641 5.305-8.69 12.751-15.029 22.546-17.939 6.562-1.949 13.344-1.927 19.157 2.573 4.78 3.7 5.393 6.915 2.675 12.269-.959 1.889-2.256 3.607-3.42 5.39-1.701 2.605-5.364 3.005-7.534.4-2.478-2.975-4.886-6.27-9.017-7.204-1.428-.323-3-.582-4.398-.312-1.546.299-3.181.985-3.48 2.988-.302 2.026.406 3.714 2.147 4.63 2.05 1.079 4.224 2.036 6.454 2.636 5.201 1.398 10.486 2.578 14.982 5.709 1.844 1.284 3.343 3.055 5.05 4.546.566.494 1.294.803 1.948 1.196.302-.652.68-1.279.892-1.959 1.608-5.13 3.001-10.336 4.816-15.39 2.049-5.704 7.066-8.617 12.131-10.866 7.005-3.109 14.21-5.917 21.566-8.032 4.667-1.342 9.76-1.389 14.167 1.863 2.643 1.95 4.124 4.59 4.496 7.696 1.279 10.681-3.701 17.091-12.529 22.004-5.626 3.131-11.159 6.44-16.613 9.862-2.306 1.446-2.328 2.576-.789 4.893 1.851 2.788 4.648 4.049 7.793 4.758 6.339 1.429 12.023-.958 17.757-3.022 2.722-.98 5.36-2.236 8.137-2.999 1.099-.302 3.202.022 3.558.719.598 1.174.53 3.003.063 4.313-.441 1.236-1.577 2.442-2.72 3.173-7.918 5.062-15.915 9.999-23.89 14.97-6.508 4.057-13.452 3.704-20.538 2.052-8.6-2.005-13.438-7.777-16.007-15.86-.212-.667-.455-1.352-.833-1.932-.354-.543-.963-1.381-1.359-1.329-.605.08-1.363.701-1.641 1.289-2.187 4.626-5.776 7.892-9.886 10.765-5.144 3.596-10.44 6.85-16.579 8.444-9.22 2.395-17.541.806-24.641-5.8-3.117-2.9-3.095-2.961-6.872-.978-3.753 1.971-7.459 4.032-11.218 5.991-6.592 3.434-11.167.498-13.221-6.408-.066-.221.014-.482-.035-.711-.928-4.316-2.54-5.027-6.364-2.732-5.25 3.15-10.443 6.397-15.727 9.488-1.667.975-3.488 1.796-5.343 2.317-4.289 1.206-8.002-1.538-9.829-6.605-2.117-5.872-2.113-11.905-1.868-17.98.29-7.181.744-14.356.977-21.539.125-3.874-2.836-5.683-6.415-4.237-1.476.596-1.748 1.602-1.685 2.997.331 7.335-.449 14.573-2.413 21.634-1.595 5.734-4.447 10.906-9.341 14.407-3.473 2.484-7.438 4.313-11.286 6.229-4.143 2.064-8.318 4.119-12.635 5.768-7.944 3.035-15.889 3.456-23.343-1.491-3.292-2.185-6.701-1.326-10.053-.712-7.617 1.396-15.164 3.199-22.805 4.432-2.695.435-5.667.04-8.353-.621-2.188-.538-3.215-2.665-3.222-4.979-.029-9.364-.026-18.729.001-28.093.005-1.612.168-3.224.285-4.834.22-3.035-.496-4.456-3.328-4.563-4.877-.184-9.773.186-14.662.285-1.941.039-2.501 1.344-2.809 2.898-.578 2.922-1.08 5.86-1.693 8.775-1.508 7.166-5.838 12.172-11.773 16.278-6.137 4.247-11.776 9.208-17.863 13.534-3.302 2.346-7.374 2.784-11.148 2.921zm142.652-39.606l-.398-.082c-.202-2.438-.058-4.97-.689-7.292-.909-3.347-1.898-6.844-3.718-9.732-3.157-5.011-10.003-4.757-13.144.287-1.213 1.947-2.124 4.252-2.519 6.509-1.554 8.891-1.327 17.667 2.299 26.158 1.381 3.234 5.443 6.229 8.83 6.083 3.266-.141 6.078-2.675 6.87-6.721.986-5.039 1.66-10.138 2.469-15.21zm177.985-11.027c.359 1.24.51 3.395 1.119 3.533 1.342.305 2.947-.305 4.383-.743.877-.267 1.679-.854 2.448-1.392 3.464-2.42 5.834-5.464 5.731-9.969-.066-2.879-1.151-4.797-3.267-5.441-2.052-.625-5.535.765-6.772 2.687-2.204 3.422-3.268 7.179-3.642 11.325zM1122.203 175.031c-.488 8.505-1.188 17.007-1.344 25.518-.052 2.816-.166 6.118 2.253 8.384.679.637 2.042 1.129 2.851.886.898-.27 2.054-1.382 2.175-2.256.659-4.734.907-9.525 1.533-14.264 1.134-8.581 5.007-15.408 12.657-20.008 6.743-4.055 13.463-8.061 20.849-10.898 3.654-1.404 7.357-1.278 11.069-1.124 3.815.158 7.625.617 11.416 1.105 2.552.329 5.084.865 7.596 1.436 4.903 1.114 6.59 3.92 3.304 8.339-2.84 3.819-3.167 7.988-3.404 12.204-.556 9.865-.683 19.753-1.067 29.629-.227 5.83-.519 11.662-.952 17.48-.51 6.854-3.335 12.755-8.219 17.528a1145.858 1145.858 0 0 1-22.23 21.136c-3.906 3.617-8.969 4.818-14.038 4.664-7.586-.229-15.171-.994-22.716-1.874-3.822-.446-5.388-3.052-3.663-6.437 2.161-4.239 4.84-8.298 7.829-12.003 2.397-2.97 6.143-2.082 9.521-1.795 7.72.657 15.402 2.306 23.2 1.201 2.382-.337 4.057-1.935 4.54-4.255.811-3.898 1.567-7.838 1.897-11.797.416-4.99.43-10.017.522-15.029.06-3.251-1.05-3.906-3.838-2.143-4.175 2.641-8.09 5.723-12.388 8.133-4.234 2.375-8.544 5.41-13.886 2.588-3.098-1.636-4.865-4.41-6.458-7.288-1.034-1.868-2.176-1.938-3.855-1.052a2073.387 2073.387 0 0 1-16.677 8.677c-4.269 2.201-8.277-.327-10.236-3.362-2.881-4.462-4.276-9.308-4.145-14.546.216-8.608.651-17.21.906-25.817.108-3.66-.893-4.333-4.464-3.236-1.269.39-2.529.853-3.726 1.424-2.74 1.309-4.118 3.501-4.197 6.579-.074 2.886-.278 5.769-.467 8.65-.464 7.078-.962 14.154-1.429 21.232-.265 4.015-2.452 6.48-7.136 7.876-3.452 1.029-6.921 2-10.388 2.977-3.552 1.001-5.84-.493-5.798-4.202.074-6.587.423-13.173.715-19.756.163-3.675.538-7.343.642-11.019.115-4.091.093-8.189.01-12.282-.054-2.677-.97-3.458-3.671-3.452-.901.002-1.816.01-2.698.166-1.509.267-2.256 1.171-2.213 2.786.066 2.462.083 4.929.005 7.39-.268 8.43-2.098 16.415-6.86 23.543-2.255 3.375-5.337 5.891-8.896 7.622-7.265 3.534-14.53 7.146-22.062 10.028-6.584 2.519-13.639 2.71-19.729-1.402-4.797-3.238-9.32-1.852-14.088-.843-7.374 1.56-14.742 3.153-22.142 4.584-1.596.309-3.371.247-4.964-.099-3.381-.734-5.599-5.058-5.185-8.935.291-2.719.028-5.493.095-8.241.059-2.433.309-4.862.337-7.295.058-5.165-.015-10.331.056-15.496.024-1.712-.985-2.66-2.333-2.69-5.034-.111-10.079-.088-15.105.173-.905.047-2.232 1.311-2.514 2.264a58.603 58.603 0 0 0-1.942 9.136c-.907 7.095-5.337 11.741-10.611 15.846-4.807 3.742-9.795 7.265-14.449 11.188-4.48 3.776-9.478 5.743-15.281 5.658-4.072-.059-8.146-.189-12.208-.457-1.453-.096-2.926-.551-4.296-1.083-2.421-.939-3.532-3.115-2.41-5.534 1.372-2.957 3.159-5.739 4.943-8.481 2.405-3.696 5.894-3.545 9.818-2.935 5.046.785 10.187 1.108 15.299 1.256 3.119.091 5.717-2.173 6.069-5.452.634-5.923.853-11.897 1.042-17.855.029-.931-.83-2.105-1.605-2.806-2.562-2.316-3.099-4.374-.748-6.879 3.936-4.193 3.455-9.386 3.824-14.385.245-3.32.052-6.672.074-10.009.03-4.428-1.466-5.735-5.8-4.968-5.422.959-7.803 5.511-7.147 10.754.357 2.859 1.026 5.679 1.447 8.532.326 2.207-.647 4.142-2.25 5.418-2.765 2.202-5.662 4.311-8.746 6.021-3.73 2.068-6.106-.137-7.34-3.797-3.247-9.633-2.848-20.667 6.671-28.315 6.028-4.844 12.812-7.851 20.281-9.037 6.839-1.086 13.797-1.524 20.721-1.924 2.71-.156 5.492.451 8.202.934 2.108.375 3.241 3.484 1.586 4.8-3.739 2.973-3.322 7.077-3.595 11.003-.297 4.269-.399 8.554-.506 12.834-.033 1.321-.097 2.775.401 3.933.387.9 1.624 2.032 2.484 2.032 4.65.003 9.303-.273 13.949-.54 2.025-.116 2.762-1.645 2.975-3.376.691-5.608 1.106-11.258 1.992-16.833 1.041-6.55 3.252-12.666 9.098-16.582 5.672-3.799 11.361-7.608 17.286-10.983 5.559-3.167 11.732-2.629 17.727-1.407 2.885.588 3.765 2.938 2.464 5.702a30.584 30.584 0 0 1-3.262 5.41c-2.167 2.862-3.702 3.112-7.248 2.092-2.324-.668-4.728-1.26-7.126-1.412-2.631-.166-4.347 1.473-4.639 4.013-.547 4.758-1.137 9.519-1.427 14.296-.592 9.742-1.051 19.494-1.458 29.246-.26 6.23-.431 12.468-.432 18.703-.001 2.404.387 4.852.938 7.2.769 3.274 7.221 5.213 9.524 2.808.768-.801 1.012-2.519.848-3.729-.796-5.867-.636-11.709.127-17.543.726-5.55 1.716-11.114 5.221-15.663 1.974-2.563 4.299-5.092 6.989-6.823 7.871-5.062 16.152-9.522 25.306-11.743 7.31-1.773 14.649-1.3 21.071 3.171 2.215 1.542 3.765 4.014 5.792 5.871.625.572 2.027.979 2.729.673 4.742-2.07 9.312-4.546 14.095-6.507 4.253-1.743 8.645-3.244 13.097-4.378 3.538-.901 6.203 1.757 6.741 6.044.02.157-.003.318.008.476.403 5.645 1.008 5.791 5.964 3.182 6.509-3.426 13.173-6.582 19.906-9.548 2.864-1.262 6.147-1.488 8.588 1.11 1.079 1.148 1.869 2.826 2.169 4.383.369 1.915.088 3.955.088 5.941.055.006.115.009.175.012zm-115.245 22.198l.433.152c.222 2.11.513 4.215.652 6.331.276 4.224 1.554 8.121 3.73 11.72 2.519 4.167 7.49 5.771 10.734 3.194 1.427-1.134 2.615-2.98 3.165-4.736 2.896-9.245 3.238-18.646.447-27.961-.711-2.372-2.077-5.049-3.978-6.462-4.556-3.387-10.055-2.28-12.031 3.424-1.592 4.592-2.141 9.545-3.152 14.338zm162.458-10.15l-.144-.011c0-1.496-.177-3.019.041-4.483.332-2.235-.656-3.492-2.631-4.035-2.092-.575-4.226-1.224-6.368-1.341-3.42-.186-4.736 1.23-5.405 4.569-1.462 7.297-1.924 14.607-.963 22.013.393 3.025 2.476 6.002 4.735 6.248 3.419.373 9.169-3.32 9.604-6.761.678-5.361.783-10.795 1.131-16.199zM796.336 196.28c.058 6.975-.997 13.779-3.596 20.254-2.415 6.018-6.346 10.91-12.247 13.803-7.028 3.446-14.057 6.968-21.347 9.781-9.209 3.554-20.145 1.827-26.554-7.18-3.459-4.862-4.632-10.3-4.754-15.872-.128-5.843.296-11.81 1.425-17.537 1.101-5.582 2.947-11.259 7.91-14.873 3.733-2.717 7.646-5.258 11.728-7.404 3.932-2.067 8.118-3.71 12.31-5.211 6.589-2.359 13.337-3.12 20.21-1.093 3.563 1.051 6.419 3.203 8.753 5.942 2.62 3.076 2.85 3.287 6.6 2.165 2.158-.645 4.307-1.466 6.52-1.752 5.587-.722 4.175-1.619 4.886-6.128.785-4.982 1.19-10.083 4.173-14.288 1.851-2.609 4.145-5.102 6.737-6.95 8.419-6.001 16.99-11.892 26.772-15.471 5.11-1.87 10.601-1.845 15.948-.592 2.58.605 3.683 3.317 2.419 6.083-1.069 2.34-2.417 4.578-3.85 6.722-1.754 2.623-4.403 2.752-7.298 2.406-4.061-.486-8.151-.826-12.237-.959-2.158-.071-5.536 3.44-5.836 5.891-.584 4.769-1.027 9.556-1.454 14.342-.137 1.532.023 3.088-.067 4.626-.142 2.455 1.309 3.109 3.384 3.277 3.032.245 6.076.458 9.08.914 2.557.389 3.496 2.548 2.534 4.947-1.319 3.286-4.023 4.7-7.186 5.461-1.368.329-2.804.411-4.216.519-3.599.274-4.765 1.302-4.957 4.848-.379 6.966-.456 13.953-1.021 20.902-.883 10.882-.885 21.893-3.832 32.516-1.188 4.283-3.419 8.161-6.676 11.239-5.725 5.41-11.707 10.55-17.373 16.021-3.244 3.132-6.439 6.413-10.89 7.412-3.849.865-7.905.847-11.876 1.113-1.635.109-3.294.005-4.933-.12-2.887-.22-4.834-2.889-3.605-5.485 1.496-3.159 3.408-6.154 5.417-9.026 1.305-1.867 3.527-2.172 5.738-2.094 4.427.157 8.859.48 13.28.368 3.937-.1 7.328-4.122 7.606-8.576.661-10.602 1.263-21.208 1.928-31.81.236-3.767.714-7.522.846-11.291.162-4.618.078-9.245.096-13.868.01-2.599.156-5.209-.028-7.795-.206-2.9-1.42-3.821-4.208-3.639-1.094.071-2.192.279-3.279.227-2.313-.111-3.142.996-2.995 3.185.088 1.344.015 2.7.015 4.05zm-23.826 8.541c-.691-4.659-1.082-8.867-1.993-12.959-.748-3.36-2.599-6.549-5.823-7.868-4.961-2.029-8.991-.342-10.934 4.919-1.116 3.019-1.265 6.403-1.791 9.632-1.292 7.931-.216 15.516 3.692 22.571 1.614 2.914 4.164 4.781 7.666 4.618 3.915-.182 5.953-2.886 6.713-6.262 1.114-4.941 1.711-9.998 2.47-14.651z"/></g></svg>