<?xml version="1.0" encoding="utf-8"?>
<!-- Generator: Adobe Illustrator 20.0.0, SVG Export Plug-In . SVG Version: 6.00 Build 0)  -->
<svg version="1.1" id="Layer_1" xmlns="http://www.w3.org/2000/svg" xmlns:xlink="http://www.w3.org/1999/xlink" x="0px" y="0px"
	 viewBox="0 0 5600 1000" enable-background="new 0 0 5600 1000" xml:space="preserve">
<path d="M1000.834,491.408c-0.655-12.335-0.02-24.75-2.185-36.96c-1.96-11.045-0.87-22.92-4.405-33.63
	c-3.975-12.045-4.505-25.095-7.35-37.565c-2.975-13.05-7.275-25.885-11.385-38.61c-15.81-49.005-38.95-94.359-68.665-136.359
	c-30.175-42.655-66.69-78.47-107.889-110.399c-20.08-15.56-41.685-28.175-63.925-40.34c-11.92-6.52-24.015-12.065-36.6-17.165
	c-11.425-4.63-22.385-10.445-34.185-14.11C615.07,11.005,564.406,2.07,512.906,0.225c-13.465-0.485-26.975-0.24-40.37,1.255
	c-12.2,1.36-25.615,1.33-37.34,5.075c-11.255,3.595-23.955,3.95-35.61,6.685c-12.425,2.915-24.99,5.605-37.235,9.22
	c-97.919,28.925-182.799,90.065-246.294,169.279c-32.445,40.475-57.745,87.1-75.865,135.619c-9.15,24.5-15.59,49.305-21.13,74.845
	c-2.765,12.755-3.61,25.585-5.605,38.44c-2,12.885-3.745,24.83-4.03,37.94c-0.3,13.905-0.97,27.86-0.615,41.77
	c0.31,12.155,2.01,24.26,2.5,36.425c0.23,5.705,0.915,11.205,2.825,16.615c1.915,5.41,2.115,10.955,3.015,16.67
	c2.01,12.755,5.2,25.175,8.225,37.715c6.055,25.14,15.46,48.89,24.15,73.18c4.165,11.64,11.455,22.96,17.21,33.97
	c5.965,11.41,12.295,22.65,19.055,33.605c26.9,43.585,63.2,84,102.344,116.954c19.835,16.7,41.415,32.22,63.945,45.075
	c21.29,12.145,43.275,24.16,66.355,32.495c11.49,4.15,22.5,9.455,34.165,13.13c12.31,3.88,24.82,7.115,37.37,10.135
	c12.55,3.02,25.165,5.88,37.955,7.665c6.675,0.93,13.33,1.315,20.045,1.79c5.49,0.385,10.365,2.665,15.89,3.005
	c50.27,3.125,100.359,0.545,149.254-11.24c24.485-5.905,49.825-12.135,73.31-21.315c11.405-4.46,22.67-10.755,33.89-15.84
	c11.485-5.205,22.365-11.585,33.3-17.85c43.27-24.775,84.22-57.51,116.744-95.379c32.73-38.105,61.34-79.12,82.655-124.794
	c10.87-23.285,18.23-47.32,27.085-71.34c8.73-23.685,13.175-50.63,16.4-75.595C999.654,541.038,1000.834,515.968,1000.834,491.408
	C1000.094,477.473,1000.834,496.658,1000.834,491.408z M259.728,187.314c62.44-54.125,147.674-81.19,228.884-87.29
	c20.96-1.575,40.99,1.645,61.77,3.6c21.03,1.975,41.04,5.745,61.5,10.795c38.145,9.415,74.655,27.1,107.375,48.56
	c8.16,5.355,16.29,10.79,24.285,16.385c6.955,4.86,10.165,10.44,9.51,19.01c-1.41,18.395-8.63,37.22-17.28,53.335
	c-16.615,30.945-42.57,54.995-72,73.63c-68.9,43.63-156.429,54.445-235.374,36c-41.35-9.66-82.665-28.68-114.234-57.435
	c-15.48-14.1-29.33-30.395-38.93-49.095c-5.11-9.96-8.485-20.555-11.765-31.225C259.708,211.374,256.933,200.109,259.728,187.314
	C276.752,172.559,259.728,187.314,259.728,187.314z M600.491,574.562c-0.56,9.7-15.26,7.45-21.805,7.59
	c-12.145,0.265-24.285,0.535-36.43,0.8c-23.275,0.51-46.55,1.01-69.825,1.47c-10.835,0.215-21.675,0.315-32.51,0.635
	c-4.565,0.135-9.12,0.41-13.645-0.42c-4.48-0.82-3.9-0.475-5.27-4.295c-1.01-2.81-0.655-7.035-0.9-10.035
	c-1.87-22.965-1.085-46.36-1.37-69.395c-0.275-22.415-1.18-44.81-1.5-67.215c-0.06-4.09-0.965-9.62,2.48-12.615
	c2.475-2.155,7.11-1.85,10.2-1.99c12.25-0.56,24.555-0.545,36.815-0.805c23.52-0.505,47.035-1.005,70.555-1.505
	c11.01-0.235,22.015-0.465,33.025-0.695c8.38-0.175,24.455-4.645,27.515,5.78c1.53,5.215,0.465,11.895,0.51,17.255
	c0.05,6.105,0.1,12.205,0.16,18.31c0.13,13.16,0.305,26.315,0.58,39.47C599.611,522.628,601.971,548.862,600.491,574.562
	C600.256,578.632,600.791,569.352,600.491,574.562z M224.388,753.141c-8.3,1.41-16.99,5.995-25.075,1.465
	c-7.53-4.215-12.91-13.89-17.75-20.825c-11.6-16.595-22.83-34.025-31.98-52.1c-17.865-35.295-31.495-75.25-36.46-114.564
	c-2.665-21.08-6.65-42.17-6.355-63.495c0.29-20.865,2.24-42.525,5.05-63.2c5.535-40.71,19.015-82.445,37.825-118.919
	c8.995-17.45,19.09-34.735,30.3-50.86c5.22-7.505,9.54-12.145,18.855-11.58c10.065,0.615,20.26,1.725,30.05,4.185
	c37.58,9.44,70.315,35.045,93.095,65.67c48.32,64.96,64.28,152.169,52.35,231.244c-6.795,45.025-22.5,88.405-49.505,125.479
	C300.632,718.802,265.558,746.136,224.388,753.141C220.523,753.796,248.998,748.951,224.388,753.141z M760.98,806.121
	c-30.525,26.19-65.07,48.3-102.419,63.365c-19.26,7.765-38.47,13.655-58.35,19.595c-18.615,5.56-38.565,6.73-57.825,8.79
	c-21.47,2.3-41.815,3.33-63.355,1.13c-19.22-1.96-38.475-2.98-57.385-7.195c-39.675-8.84-78.985-23.93-114.069-44.45
	c-8.88-5.19-17.565-10.705-26.11-16.425c-1.585-1.06-3.16-2.125-4.735-3.2c-3.405-2.32-4.09-2.23-4.95-6.12
	c-1.145-5.17-0.45-11.61-0.13-16.81c1.17-19.07,7.78-37.385,16.64-54.175c17.62-33.385,46.675-59.305,79.35-77.595
	c35.35-19.79,75.54-32.62,115.839-36.71c21.415-2.175,43.08-2.335,64.58-1.745c9.33,0.255,18.7,0.885,27.815,2.985
	c4.455,1.025,8.745,2.845,13.255,3.61c5.355,0.91,10.705,0.945,16.03,2.235c21.095,5.115,41.665,14.345,61.05,23.95
	c17.38,8.615,33.29,19.975,47.4,33.255c14.97,14.09,28.31,29.58,37.015,48.305c4.53,9.74,8.65,19.695,11.65,30.025
	C764.74,787.436,768.845,799.371,760.98,806.121C747.74,817.481,764.16,803.391,760.98,806.121z M902.349,504.443
	c1.33,20.94-2.33,42.68-5.615,63.315c-3.14,19.725-8.43,39.035-14.74,57.96c-12.4,37.195-30.585,71.01-51.735,103.899
	c-4.39,6.825-8.39,12.175-17.075,11.635c-9.87-0.615-19.895-2.71-29.21-6.005c-16.29-5.765-31.735-14.415-45.48-24.845
	c-29.475-22.37-50.29-53.615-65.55-86.95c-16.995-37.12-25.79-77.06-26.655-117.779c-0.88-41.54,2.395-81.665,16.29-121.099
	c12.18-34.56,29.915-67.965,56.4-93.71c12.835-12.48,27.445-23.1,43.41-31.225c8.165-4.155,16.475-7.46,25.44-9.41
	c7.96-1.73,19.395-6.135,26.355-0.58c7.875,6.29,13.205,16.615,18.75,24.83c6.28,9.3,12.475,18.66,18.185,28.325
	c11,18.615,19.675,38.495,27.045,58.8c16.005,44.065,21.36,88.52,25.34,134.929C901.209,496.668,902.219,502.423,902.349,504.443
	C903.489,522.448,902.184,501.838,902.349,504.443z M237.283,539.673c-2.595,9.11-0.78,18.125-1.66,27.37
	c-0.925,9.735-3.545,21.45-8.79,29.805c-4.065,6.475-10.14,14.27-18.54,9.81c-8.025-4.26-14.795-15.03-20.915-21.65
	c4.73-2.015,6.14-2.515,11.11-1.315c3.25,0.78,7.065,2.365,10.285,0.48c6.385-3.745,7.54-16.98,7.69-23.475
	c0.085-3.765,0.84-7.625-4.055-6.69c-2.98,0.57-6.87,4.785-9.335,6.595c-7.935,5.83-15.7,12.175-24.505,16.66
	c-6.95,3.54-14.375,6.025-21.845,8.205c-2.81,0.82-7.075,3.02-10.11,2.32c-6.29-1.45-3.25-4.93-0.04-7.01
	c15.055-9.77,30.395-18.49,44.45-29.83c6.615-5.34,14.3-11.245,19.265-18.23c1.41-1.985,3.545-5.5,1.87-7.95
	c-2.21-3.23-6.87,0.155-9.285,2.105c-13.34,10.76-28.13,19.57-44.545,25.03c-3.09,1.03-8.215,2.26-11.535,1.07
	c-4.34-1.555-2.75-3.445,0.055-5.77c3.115-2.585,8.195-4.345,11.705-6.44c4.195-2.5,8.3-5.155,12.33-7.91
	c6.79-4.64,13.865-9.405,20.045-14.845c3.44-3.03,14.215-15.79,2.76-14.56c-7.05,0.755-14.145,7.01-20.385,9.935
	c-3.765,1.765-7.79,2.85-11.85,3.67c-2.255,0.46-11.275,3.115-13.34,1.485c-5.42-4.285,10.48-10.56,12.58-11.805
	c8.105-4.785,15.635-10.515,23.18-16.13c2.27-1.69,6.275-4.025,6.55-7.315c0.38-4.505-6.325-3.415-9.975-3.915
	c-3.825-0.525-11.685-4.05-7.885-8.795c1.98-2.475,9.925-2.675,13.105-3.325c4.86-0.995,9.715-1.985,14.58-2.955
	c10.02-2.005,20.345-4.8,30.54-5.57c4.74-0.355,17.755-1.485,17.98,6.195c0.215,7.2-15.585,8.145-20.515,9.36
	c-5,1.235-7.935,1.14-10.905,5.51c-2.31,3.4-4.62,6.805-6.93,10.205c-0.505,0.745-1.015,1.49-1.52,2.24
	c-2.21,1.67-2.02,3.085,0.57,4.245c0.685,1.2,3.125,3.01,3.995,3.845c2.92,2.8,7.515,8.87,11.88,9.005
	c6.185,0.185,15.535-11.165,19.69-15.25c5.18-5.105,9.73-15.39,18.155-15.22c6.07,0.125,16.31,8.78,14.235,15.355
	c-2.41,7.65-14.97,9.46-21.33,11.67c-4.69,1.635-8.87,4.255-12.985,6.99c-2.25,1.495-8.33,4.045-8.735,6.755
	c-0.685,4.565,20.18,14.695,23.97,17.02c8.815,5.405,17.535,10.31,27.53,13.175c9.13,2.615,19.095,2.66,28.02,5.77
	c2.56,0.89,9.975,3.72,7.72,7.995c-1.41,2.675-9.66,4.615-12.305,5.79c-7.97,3.54-16.525,6.255-25.26,3.905
	c-8.875-2.385-16.495-9.77-23.455-15.45C252.918,551.568,245.298,545.478,237.283,539.673
	C235.108,547.307,241.928,543.033,237.283,539.673z M205.613,433.653c-4.55-8.435-9.1-16.865-13.655-25.3
	c7.895-4.275,17.315-1.575,24.645,2.745c6.93,4.085,6.965,9.9,10.77,15.995c1.65,2.645,1.46,2.33,5.195,2.45
	c1.955,0.065,3.81-0.035,5.76-0.23c5.12-0.52,10.24-1.415,15.33-2.17c8.375-1.245,18.755-4.95,27.175-3.235
	c6.85,1.395,14.275,7.45,18.47,12.89c6.05,7.845,4.18,12.645-4.83,15.545c-8.45,2.725-19.345,7.325-28.34,7.13
	c-4.3-0.09-5.05-1.46-3.825-5.63c1.345-4.59,4.625-9.375,6.735-13.65c-11.155-3.015-23.565-0.33-34.98,1.12
	c-11.67,1.485-23.245,3.48-34.805,5.62c-10.435,1.93-23.325,2.35-33.2,6.155c-3.645,1.405-3.835,2.215-5.96,5.67
	c-1.46,2.37-2.935,4.73-4.465,7.055c-2.63,3.99-5.56,10.44-10.82,11.375c-10.79,1.915-11.87-9.62-8.91-16.805
	c2.31-5.61,5.405-11.03,8.13-16.455c1.88-3.74,3.925-11.17,7.285-13.485c3.695-2.545,6.145,0.855,8.605,3.395
	c3.935,4.065,6.15,4.07,11.73,4.01C183.093,437.738,194.473,436.228,205.613,433.653
	C200.318,423.848,190.218,437.213,205.613,433.653z M520.991,157.17c-0.35,3.395-2.21,10.915-0.16,12.575
	c2.545,2.06,10.135-0.6,12.82-1.145c8.9-1.815,17.01-4.7,25.685-0.375c6.675,3.33,8.37,7.38,6.475,14.45
	c-1.175,4.37-2.44,6.505,3.23,7.005c3.99,0.35,7.59-1.35,11.79-0.52c4.505,0.89,16.365,5.33,15.275,11.295
	c-1.4,7.68-19.42,4.71-24.675,4.655c-3.265-0.035-9.36-0.58-12.1,1.73c-2.555,2.15-4.795,9.67-4.74,12.88
	c0.13,7.765,6.18,16.23,11.415,21.35c20.4,19.97-28.165,15.19-22.725,25.395c0.93,1.745,7.805,3.355,9.225,3.915
	c4.305,1.695,8.66,3.27,12.92,5.08c7.265,3.095,13.805,7.19,17.86,14.205c3.8,6.575,3.265,15.685-6.34,14.135
	c-9.48-1.525-18.325-9.375-25.675-14.89c-5.965-4.47-14.91-14.455-22.945-15.075c-4.555-0.35-5.065,2.4-5.025,6.84
	c0.045,5.29,0.515,10.4-0.04,15.72c-0.84,8.06-1.275,20.055-9.28,24.58c-9.94,5.615-17.8-7.615-23.505-13.925
	c-2.785-3.08-7.765-7.64-2.935-10.46c3.45-2.01,8.17,0.4,11.81-0.255c9.69-1.75,5.72-18.51,4.34-25.23
	c-12.595,6.855-22.285,18.72-33.34,27.77c-5.41,4.43-11.135,6.365-17.55,2.625c-3.71-2.165-11.33-8.03-7.83-12.625
	c3.21-4.215,14.135-6.31,18.975-8.315c4.82-2,11.22-3.705,15.1-7.355c3.125-2.94,3.135-4.095,0.33-7.085
	c-2.465-2.63-4.95-5.23-7.47-7.8c-4.32-4.41-7.725-8.775-8.87-15.025c2.12-0.46,5.95-0.605,7.82-1.69
	c0.87-0.19,1.745-0.375,2.615-0.565c-0.285-1.88-0.565-3.755-0.85-5.635c0.25-3.54-0.435-3.645,3.145-5.4
	c1.86-0.91,3.875-1.225,5.885-1.585c4.53-0.805,29.29-2.07,22.585-12.215c-4.215-6.375-21.69,0.835-27.595,1.33
	c-2.665,0.225-5.34,0.29-8.01,0.2c-0.915-0.05-1.83-0.1-2.745-0.15c-2.495-1.155-3.68-0.375-3.56,2.335
	c-2.91,4.33-3.985,12.58-5.29,17.65c-5.365,20.785-13.03,38.69-26.1,55.93c-3.74,4.93-13.27,16.535-20.715,14.86
	c-7.665-1.725,8.045-18.26,10.225-21.77c11.595-18.665,20.2-40.195,24.79-61.655c2.22-10.375,3.21-20.845,4.17-31.4
	c0.855-9.395,4.49-20.825-2.23-28.93c-2.3-2.77-7.4-4.165-5.63-8.395c1.575-3.755,8.785-3.61,11.915-4.075
	c12.615-1.88,25.46-3.11,37.965-5.645c2.19-0.445,5.735-0.78,7.68-1.875c2.985-1.675,3.155-0.81,2.36-4.705
	c-0.77-3.765-3.055-6.81-4.86-10.11c-5.65-10.32,2.035-12.485,11.305-8.7c4.775,1.95,10.44,4.845,13.13,9.36
	c1.27,2.13,1.405,4.895,2.625,6.955c-0.09,2.39,1.06,3.53,3.45,3.43c1.715,0.415,3.455,0.605,5.215,0.57
	c5.925-0.21,10.92-3.91,16.87-4.545c5.135-0.55,11.49-1.26,16.295,0.93c3.22,1.47,9.57,5.315,7.96,9.65
	c-1.61,4.325-12.62,4-16.395,4.455C545.196,153.32,532.296,153.28,520.991,157.17C520.586,161.15,522.916,156.505,520.991,157.17z
	 M469.041,180.084c7.91-0.77,16.11-0.995,23.825-3.035c3.925-1.035,7.085-1.53,8.135-5.305c0.775-2.79-0.19-8.105-2.105-10.385
	c-4.325-5.155-16.315-0.785-22.08,0.435c-4.84,1.02-6.9,2.07-8.175,7.255C467.757,172.654,468.366,176.499,469.041,180.084
	C474.661,179.539,467.897,174.029,469.041,180.084z M521.746,264.954c7.55-1.56,11.35-6.705,16.38-12.495
	c2.46-2.835,5.015-5.75,6.705-9.135c0.59-1.18,1.72-3.14,1.72-4.48c0-3.24,0.115-2.92-3.695-3.585
	c-5.77-1.01-17.855-0.98-20.77,5.145C519.191,246.459,521.641,258.369,521.746,264.954
	C524.386,264.409,521.621,257.124,521.746,264.954z M468.981,186.764c-3.225,3.845-8.165,13.465-1.345,16.5
	c3.105,1.385,8.435-0.42,11.5-0.94c4.97-0.845,9.95-1.725,14.885-2.75c3.05-0.63,7.065-1.075,8.54-4.35
	c1.71-3.79-1.025-6.04-4.465-6.775c-4.01-0.86-9.095,0.52-13.19,0.585C479.501,189.119,474.071,188.724,468.981,186.764
	C467.767,188.214,477.641,190.099,468.981,186.764z M504.301,265.074c0.035-5.14,0.54-10.285,0.335-15.425
	c-0.08-2.015,0.09-4.76-0.72-6.675c-1.5-3.545-1.745-2.665-5.73-2.535c-5.265,0.175-9.01,0.85-13.585,3.455
	c3.21,4.545,6.34,8.19,7.85,13.63c0.285,1.02,0.795,6.33,1.555,6.99C495.321,265.654,502.496,264.979,504.301,265.074
	C504.356,256.259,500.366,264.864,504.301,265.074z M542.386,193.579c0.86-4.51,3.165-9.705-2.105-11.535
	c-2.82-0.98-16.685,1.205-18.99,3.275c-3.61,3.245-1.735,9.325,2.56,10.545C528.846,197.289,537.306,194.299,542.386,193.579
	C542.926,190.734,536.776,194.369,542.386,193.579z M538.156,208.529c-7.15-1.83-19.58-0.09-17.255,9.67
	c1.65,6.93,5.74,3.88,11.355,2.46c3.98-1.01,3.1-0.925,4.49-4.25C537.686,214.149,537.721,210.934,538.156,208.529
	C531.566,206.839,537.406,212.704,538.156,208.529z M555.641,714.407c8.555,1.46,11.26-0.99,13.86-8.95
	c2.875-8.79,7.8-10.225,14.01-2.515c6.27,7.78-2.095,14.45-6.69,20.69c-1.895,2.57-5.895,7.91-4.13,10.105
	c2.17,2.7,8.725,4.105,11.755,6.05c6.135,3.945,9.615,10.685,6.95,17.94c-3.825,10.41-10.81,0.84-17.385-0.425
	c-8.82-1.695-15.825,4.29-23.305,7.69c-8.1,3.68-11.82-2.235-17.34-7.595c-1.98,2.12-5.03,7.185-8.17,7.42
	c-2.45,0.185-4.085-1.905-6.175-2.67c-1.5-0.55-6.09-1.78-6.62,0.965c-0.275,1.41,4.77,6.685,5.475,8.615
	c1.56,4.265,0.505,6.65,5.645,7.195c4.255,0.45,9.07-0.575,13.3-1.01c9.335-0.965,18.75-1.82,27.98-3.55
	c8.51-1.595,17.13-4.315,25.785-2.14c3.965,1,17.755,5.97,16.065,12.13c-1.795,6.555-15.09,6.345-19.86,6.39
	c-9.94,0.095-19.88,0.19-29.815,0.35c-9.48,0.155-19.16-0.21-28.6,0.72c-3.57,0.35-8.295,0.485-10.27,3.425
	c-2.405,3.585-1.28,9.66-1.165,13.755c0.27,9.435,0.33,18.87,0.645,28.305c0.28,8.23,1.22,18.42-4.96,25.16
	c-4.88,5.325-10.015,0.285-12.37-4.765c-4.125-8.855-0.555-18.885,0.365-28.1c0.88-8.825,0.65-17.71,0.14-26.55
	c-0.27-4.67-0.22-6.335-4.57-7.54c-4.69-1.3-11.58,0.35-16.28,1.21c-2.695,0.495-13.345,1.785-13.395,3.7
	c-0.08,2.905,3.285,3.265,5.14,4.525c7.63,5.18,4.97,12.62,0.4,18.98c-5.335,7.42-13.365,13.265-21.13,17.91
	c-7.93,4.745-16.265,10.31-25.625,7.945c2.455-6.04,7.33-9.485,11.985-14.035c5.28-5.165,10.4-10.505,15.06-16.235
	c2.19-2.69,9.96-11.76,5.98-15.915c-3.495-3.65-14.53,1.225-18.465,1.69c-5.895,0.695-11.215-1.065-16.1-4.305
	c-4.775-3.17-9.35-7.565-1.84-10.475c6.75-2.615,15.43-2.095,22.575-2.7c7.82-0.665,15.64-1.305,23.465-1.91
	c7.49-0.58,14.76-1.34,21.99-3.51c3.37-1.015,7.23-1.325,8.25-4.87c0.69-2.405-0.42-5.07-1.8-6.97
	c-1.545-2.13-4.28-4.205-6.935-4.55c-4.065-0.525-5.23,2.465-8.555,3.635c-5.655,1.99-10.14-3.585-16.54-1.8
	c-8.695,2.425-23.195,16.855-30.405,5.515c-4.255-6.69-0.59-9.515,3.825-14.015c4.4-4.485,6.605-10.71,10.02-15.89
	c-3.985-0.415-7.315,0.28-11.225,0.24c-3.485-0.035-2.155,1.375-4.835-1.615c-1.185-1.325-2.29-3.42-2.97-5.025
	c-3.435-8.13,5.785-13.76,9.955-19.995c4.76-7.12,8.12-15.07,10.63-23.235c1.925-6.265,3.555-15.515,12.305-11.985
	c8.51,3.435,9.765,10.78,5.36,17.575c-2.73,4.205-5.68,8.28-8.555,12.385c-1.78,2.54-7.03,7.68-7.34,10.805
	c-0.33,3.31,1.91,4.265,5.05,3.6c4.275-0.91,6.49-4.355,7.82-8.035c1.23-3.4,1.31-7.25,5.715-7.625c3.54-0.305,6.33,3.01,9.89,2.97
	c0.32-3.755-0.245-11.435,2.305-13.54c4.1-3.38,8.01-1.51,11.12-6.8c4.855-8.26,3.615-16.11,5.585-24.875
	c0.64-2.85,0.18-2.935,3.9-3.22c2.09-0.16,3.545-0.25,5.465,0.63c2.495,1.145,7.395,4.955,8.21,7.715
	c1.575,5.315-6.645,15.88-9.015,20.425c6.495,1.105,13.145-0.13,19.345,2.415c3.47,1.425,6.465,2.89,7.465,6.275
	c1.02,3.465,0.445,8.19,0.645,11.795c8.17-4.62,11.91-12.4,15.025-21.085c1.575-4.395,3.01-8.875,4.36-13.345
	c1.265-4.18,0.965-9.7,6.455-9.97c10.255-0.51,12.28,12.085,8.945,19.065C565.236,697.747,557.986,704.892,555.641,714.407
	C563.026,715.672,556.051,712.732,555.641,714.407z M499.251,723.507c4.925-0.33,15.94-1.855,16.935-6.49
	c0.495-2.3-1.585-8.79-2.995-9.595c-1.55-0.88-6.045-0.4-7.795-0.205C496.126,708.252,497.596,716.262,499.251,723.507
	C501.721,723.342,495.846,708.627,499.251,723.507z M549.881,733.542c-2.215-2.19-4.855-0.475-7.435-0.47
	c-1.87,0.005-5.87-2.09-7.52-1.395c-4.54,1.915-2.345,14.225-0.41,18.47C542.331,747.326,547.271,741.267,549.881,733.542
	C547.321,731.012,547.276,741.257,549.881,733.542z M499.676,748.821c4.09-0.86,11.645-0.94,15.04-3.805
	c3.055-2.58,3.235-8.53-0.35-10.635c-2.675-1.575-10.67-0.9-13.29,0.675C496.166,737.997,498.921,744.341,499.676,748.821
	C504.726,747.756,499.076,745.267,499.676,748.821z M481.461,726.027c-4.54,5.65-9.08,11.295-13.62,16.945
	c4.75,2.61,9.5,5.22,14.255,7.83C484.836,742.572,483.516,734.247,481.461,726.027C476.101,732.692,483.866,735.637,481.461,726.027
	z M461.531,758.046c0.86-1.75,2.475-4.86-1.315-4.77C455.742,753.381,460.626,757.461,461.531,758.046
	C462.156,756.766,460.097,757.111,461.531,758.046z M567.141,743.047C563.371,741.356,563.521,744.716,567.141,743.047
	C566.406,742.716,566.406,743.386,567.141,743.047z M535.466,803.441c5.6-3.575,10.965-1.565,16.63,0.555
	c7.005,2.62,14.455,5.43,20.875,9.31c9.05,5.47,19.535,18,15.11,29.24c-5.195,13.195-21.19-4.695-26.09-9.635
	C552.761,823.601,543.051,814.116,535.466,803.441C541.156,799.811,537.511,806.316,535.466,803.441z M748.235,464.663
	c2.07-4.26,5.29-5.165,9.605-4.74c6.155,0.605,11.48,1.795,17.74,0.88c3.725-0.545,7.645-1.33,9.46-5.015
	c1.975-4.005,0.78-12.085-2.07-15.26c-4.01-4.455-9.52-1.785-14.595-1.45c-5.205,0.35-10.22-0.935-14.54-3.9
	c-1.1-0.755-4.94-3.235-5.13-4.605c-0.385-2.74,1.355-2.4,3.48-3.25c5.76-2.31,12.08-2.37,18.14-3.28
	c12.52-1.875,24.8-5.015,37.19-7.555c12.525-2.565,25.32-3.79,37.55-7.665c6.7-2.125,21.285,0.695,23.42,9.3
	c0.89,3.595-0.13,3.61-3.53,4.61c-2.32,0.68-4.595,1.125-6.98,1.515c-6.365,1.03-12.765,1.77-19.16,2.59
	c-5.065,0.65-8.825,1.465-11.26,6.33c-2.05,4.095-3.64,12.085-1.38,16.28c1.625,3.015,2.31,2.43,5.655,1.56
	c2.69-0.695,5.205-1.85,7.875-2.575c5.215-1.415,10.39-0.885,15.33,1.275c4.09,1.79,9.445,4.745,11.665,8.8
	c2.72,4.965-0.02,11.785-0.57,17.06c-1.455,13.935-0.52,27.72,0.365,41.645c0.84,13.21,1.12,26.5,1.24,39.73
	c0.055,6.1-4.78,25.78-14.745,21c-4.41-2.115-4.74-7.88-7.45-11.255c-2.795-3.48-6.895-3.8-11.05-3.575
	c-12.885,0.7-25.78,2.63-38.665,3.58c-6.655,0.49-13.395,0.61-20.025,1.355c-2.715,0.305-5.46,0.74-7.86,2.145
	c-2.065,1.21-3.4,3.525-5.775,4.075c-5.545,1.29-9.62-6.12-11.01-10.435c-1.695-5.26-0.93-12.225-0.01-17.59
	c2.38-13.91,3.515-26.87,2.49-41.04C752.645,491.758,755.24,476.918,748.235,464.663C750.79,459.388,754.06,474.853,748.235,464.663
	z M799.835,469.583c-2.245,12.04-4.355,23.95-11.995,33.935c-6.125,8.005-17.825,11.705-19.35,22.515
	c-0.87,6.155-0.695,13.48-0.26,19.675c0.085,1.195,0.355,6.915,1.185,7.755c1.415,1.43,8.12,0.27,9.85,0.09
	c15.205-1.575,30.305-3.77,45.545-5.125c5.98-0.53,16.02,0.465,21.32-2.61c2.235,0.1,3.105-0.99,2.615-3.275
	c0.23-1.78,0.42-3.56,0.555-5.35c0.275-3.55,0.375-7.12,0.28-10.68c-0.125-4.63,0.405-13.02-3.485-15.345
	c-5.365-3.21-14.235-2.03-20.25-3.775c-9.3-2.695-14.395-8.72-15.57-18.255c-0.605-4.9,1.43-13.51-0.99-17.84
	C807.235,467.633,803.53,468.823,799.835,469.583C798.98,474.168,807.855,467.933,799.835,469.583z M825.45,466.543
	c-0.59,6.125-4.05,17.34-0.21,22.825c3.095,4.42,13.39,4.97,18,3.295c7.02-2.55,3.685-12.225,2.74-17.87
	c-0.815-4.87-1.09-8.81-6.295-9.99C834.77,463.698,829.98,464.253,825.45,466.543C824.92,472.093,831.715,463.378,825.45,466.543z
	 M771,476.038c-1.145,8.205-2.535,15.92,0.87,23.7c4.295-4.32,9.085-9.35,9.72-15.715c0.2-2.015,0.195-5.455-0.825-7.265
	c-1.435-2.555-0.675-1.56-3.845-1.605C775.075,475.128,772.795,475.773,771,476.038C768.955,490.708,774.47,475.523,771,476.038z
	 M806.85,430.343c-2.875,3.71-13.52,24.495-3.605,25.93C812.97,457.683,807.92,434.683,806.85,430.343
	C800.905,438.018,809.11,439.493,806.85,430.343z M739.525,479.373c6.315,6.995,2.165,14.765-0.47,22.45
	c-3.365,9.82-6.85,19.595-10.28,29.395c-3.32,9.48-6.365,18.955-9.085,28.62c-2.01,7.14-7.795,14.82-14.725,6.865
	c-3.815-4.38-5.745-13.24-5.345-18.84c0.63-8.855,7.93-13.565,12.985-20.04C724.115,513.073,729.275,494.843,739.525,479.373
	C744.57,484.958,736.82,483.453,739.525,479.373z M740.395,439.223c-8.785,4.075-14.625-1.085-20.19-7.63
	c-2.83-3.33-16.66-17.39-8.62-21.225c5.355-2.555,20.79,4.955,25.115,8.26C743.45,423.783,743.835,431.883,740.395,439.223
	C734.475,441.968,744.49,430.478,740.395,439.223z M726.12,474.403c-0.31,9.36-9.125,10.42-15.61,6.04
	c-3.975-2.685-6.995-6.395-9.935-10.125c-2.085-2.64-7.09-7.285-7.535-10.715c-1.21-9.385,15.235-3.295,19.23-1.865
	C720.39,460.638,726.76,465.038,726.12,474.403C725.875,481.833,726.465,469.358,726.12,474.403z M791.885,539.583
	c-4.075,0-12.94,1.425-15.295-3.345c-2.825-5.725,6.29-7.585,9.82-8.6c6.54-1.88,13.41-2.77,20.125-3.84
	c6.305-1.005,13.31-2.825,19.71-2.74c3.33,0.045,10.81,0.71,11.825,4.835c1.21,4.915-5.94,6.495-9.145,7.54
	C816.95,537.333,804.505,539.638,791.885,539.583C788.835,539.583,805.51,539.643,791.885,539.583z M1306.973,748.287
	c-1.257-5.611-2.266-10.119-3.276-14.628c-1.165,15.893-1.671,16.7-18.261,14.984c-19.557-2.023-39.342-3.433-58.451-7.697
	c-14.567-3.25-18.915-14.248-12.712-28.234c5.994-13.513,13.34-26.516,21.053-39.156c11.25-18.436,28.546-20.015,48.43-17.883
	c26.364,2.827,53.134,5.306,79.487,3.769c23.42-1.366,29.352-9.347,31.841-32.815c2.576-24.298,3.199-48.796,5.214-73.162
	c0.916-11.08-3.561-18.85-11.805-25.467c-11.505-9.235-13.996-15.511-5.027-26.43c17.968-21.873,22.322-46.564,21.812-73.64
	c-0.383-20.338,1.568-40.709,1.912-61.075c0.278-16.433-2.924-18.635-19.128-19.431c-19.371-0.951-35.323,4.59-44.469,22.379
	c-7.071,13.755-8.904,28.8-5.171,44.134c2.118,8.703,5.163,17.255,6.44,26.071c2.145,14.808,0.027,27.967-14.767,36.806
	c-13.077,7.813-24.514,18.477-37.845,25.73c-12.768,6.946-25.467,3.127-30.785-9.763c-6.315-15.306-11.792-31.687-13.507-48.034
	c-7.098-67.647,36.249-111.362,90.774-133.151c43.39-17.34,88.553-23.626,134.826-23.495c19.948,0.056,40.024,0.332,59.795,2.632
	c15.417,1.793,19.882,16.093,9.232,27.464c-10.346,11.047-14.095,23.294-13.996,38.357c0.195,29.633-1.471,59.274-2.024,88.919
	c-0.301,16.147,5.084,21.575,21.135,21.235c19.217-0.408,38.446-1.08,57.622-2.346c15.76-1.04,19.919-5.033,21.699-20.291
	c3.307-28.348,5.288-56.874,9.373-85.101c5.283-36.503,21.319-67.301,53.65-87.293c27.926-17.268,55.785-34.806,84.774-50.144
	c25.056-13.256,52.702-10.312,79.131-4.205c17.323,4.003,21.544,17.943,12.987,33.959c-3.317,6.208-6.79,12.347-10.508,18.321
	c-9.47,15.215-21.162,19.231-38.434,13.593c-5.947-1.942-11.918-3.856-17.974-5.409c-10.859-2.785-18.726-0.67-29.567,6.09
	c-15.437,9.625-14.945,21.285-16.031,34.844c-1.953,24.364-4.649,48.676-6.216,73.063c-2.226,34.647-4.488,69.324-5.298,104.022
	c-0.847,36.278-0.245,72.599,0.244,108.895c0.188,13.975,0.409,28.212,3.146,41.821c3.169,15.758,35.39,24.886,47.135,13.903
	c2.966-2.774,4.596-8.336,4.652-12.645c0.39-30.328-0.379-60.679,0.394-90.992c0.613-24.076,7.613-46.826,17.713-68.7
	c11.54-24.994,31.299-42.125,54.896-54.016c34.17-17.219,68.44-35.213,104.513-47.421c41.324-13.985,95.494-12.013,131.612,27.569
	c16.525,18.11,16.722,17.094,39.168,8.656c39.183-14.731,78.489-29.195,118.14-42.596c19.314-6.528,33.698,1.411,36.372,21.165
	c2.417,17.85,0.957,36.381-0.22,54.52c-1.314,20.252-4.562,40.371-6.358,60.603c-1.469,16.556-3.105,33.221-2.652,49.783
	c0.32,11.722,2.601,23.856,6.555,34.892c4.555,12.713,16.971,16.829,29.33,11.284c8.424-3.78,16.848-8.022,24.297-13.406
	c11.39-8.233,9.121-22.14,11.113-33.751c2.315-13.503,1.816-27.473,2.814-41.22c2.306-31.781,4.314-63.595,7.386-95.304
	c1.447-14.934,10.514-26.22,24.847-30.206c22.943-6.381,46.321-11.38,69.73-15.828c12.443-2.364,20.347,2.758,21.737,15.322
	c1.67,15.094,0.764,30.571-0.064,45.825c-1.95,35.915-5.251,71.772-6.464,107.705c-0.469,13.91,2.245,28.179,5.288,41.89
	c3.402,15.332,14.735,19.812,29.967,14.037c18.179-6.893,35.197-16.808,56.168-15.354c11.165,0.774,15.826,6.407,20.66,14.381
	c9.076,14.97,17.028,30.968,28.174,44.25c14.88,17.733,45.741,13.042,54.439-2.08c7.88-13.7,7.262-27.639-7.146-33.996
	c-19.806-8.739-40.637-15.587-61.57-21.243c-33.287-8.995-55.27-30.092-65.096-61.886c-7.763-25.116-2.654-50.756,11.049-73.204
	c26.524-43.451,63.754-75.147,112.73-89.695c32.808-9.746,66.719-9.634,95.785,12.864c23.902,18.5,26.967,34.575,13.374,61.344
	c-4.795,9.443-11.281,18.036-17.099,26.948c-8.504,13.026-26.819,15.025-37.671,1.998c-12.39-14.875-24.432-31.351-45.083-36.018
	c-7.14-1.614-14.998-2.911-21.988-1.561c-7.729,1.493-15.907,4.924-17.4,14.938c-1.51,10.128,2.03,18.569,10.737,23.152
	c10.25,5.395,21.119,10.182,32.272,13.181c26.006,6.991,52.427,12.892,74.911,28.544c9.219,6.418,16.713,15.276,25.251,22.728
	c2.831,2.47,6.471,4.013,9.741,5.979c1.508-3.258,3.398-6.397,4.462-9.794c8.038-25.651,15.003-51.68,24.082-76.951
	c10.246-28.52,35.329-43.086,60.653-54.328c35.024-15.547,71.052-29.583,107.831-40.159c23.336-6.71,48.8-6.945,70.834,9.313
	c13.217,9.752,20.619,22.948,22.479,38.48c6.395,53.404-18.506,85.454-62.645,110.02c-28.128,15.656-55.795,32.201-83.066,49.307
	c-11.529,7.232-11.638,12.88-3.947,24.466c9.253,13.939,23.24,20.245,38.964,23.79c31.696,7.147,60.115-4.789,88.786-15.11
	c13.61-4.899,26.799-11.18,40.684-14.997c5.496-1.511,16.012,0.111,17.79,3.596c2.993,5.868,2.652,15.013,0.314,21.566
	c-2.204,6.178-7.886,12.211-13.601,15.864c-39.588,25.309-79.576,49.992-119.452,74.851c-32.538,20.284-67.26,18.522-102.691,10.261
	c-43.001-10.026-67.191-38.882-80.035-79.302c-1.061-3.337-2.277-6.762-4.167-9.659c-1.771-2.715-4.815-6.906-6.794-6.643
	c-3.027,0.402-6.816,3.506-8.206,6.445c-10.937,23.131-28.88,39.458-49.432,53.826c-25.718,17.98-52.199,34.249-82.896,42.222
	c-46.101,11.974-87.703,4.031-123.207-29c-15.586-14.5-15.477-14.804-34.358-4.888c-18.766,9.855-37.295,20.161-56.092,29.954
	c-32.958,17.172-55.835,2.491-66.107-32.042c-0.329-1.105,0.071-2.411-0.176-3.557c-4.638-21.581-12.702-25.134-31.822-13.661
	c-26.249,15.751-52.213,31.985-78.632,47.441c-8.333,4.875-17.441,8.978-26.713,11.585c-21.442,6.029-40.01-7.692-49.145-33.025
	c-10.587-29.359-10.565-59.526-9.338-89.902c1.45-35.906,3.721-71.781,4.884-107.694c0.627-19.371-14.177-28.414-32.075-21.184
	c-7.378,2.98-8.739,8.008-8.424,14.987c1.653,36.675-2.244,72.865-12.067,108.167c-7.977,28.67-22.237,54.532-46.705,72.034
	c-17.363,12.42-37.192,21.563-56.43,31.145c-20.717,10.318-41.589,20.592-63.175,28.839c-39.721,15.175-79.442,17.279-116.713-7.454
	c-16.46-10.923-33.503-6.632-50.264-3.561c-38.086,6.978-75.82,15.993-114.023,22.157c-13.478,2.175-28.333,0.198-41.765-3.107
	c-10.939-2.692-16.073-13.324-16.109-24.894c-0.146-46.821-0.129-93.643,0.007-140.464c0.023-8.059,0.839-16.121,1.424-24.172
	c1.101-15.176-2.481-22.279-16.639-22.813c-24.383-0.919-48.865,0.931-73.31,1.427c-9.707,0.197-12.507,6.719-14.043,14.489
	c-2.89,14.611-5.398,29.301-8.464,43.874c-7.538,35.83-29.192,60.858-58.863,81.39c-30.685,21.233-58.881,46.04-89.313,67.669
	C1346.202,745.411,1325.843,747.601,1306.973,748.287z M2020.227,550.258c-0.664-0.137-1.328-0.274-1.992-0.411
	c-1.01-12.191-0.291-24.852-3.443-36.462c-4.543-16.733-9.49-34.22-18.59-48.66c-15.787-25.053-50.015-23.784-65.722,1.435
	c-6.064,9.736-10.621,21.262-12.593,32.544c-7.77,44.454-6.633,88.336,11.493,130.79c6.905,16.172,27.215,31.144,44.15,30.415
	c16.33-0.703,30.39-13.375,34.352-33.606C2012.814,601.115,2016.183,575.621,2020.227,550.258z M2910.147,495.125
	c1.795,6.2,2.552,16.973,5.597,17.664c6.712,1.523,14.735-1.526,21.916-3.715c4.385-1.337,8.393-4.27,12.24-6.958
	c17.321-12.099,29.168-27.317,28.653-49.844c-0.329-14.395-5.756-23.984-16.337-27.206c-10.261-3.124-27.674,3.827-33.861,13.436
	C2917.337,455.612,2912.022,474.395,2910.147,495.125z M5211.002,375.156c-2.439,42.527-5.939,85.034-6.719,127.591
	c-0.258,14.08-0.832,30.59,11.263,41.921c3.397,3.182,10.211,5.643,14.253,4.429c4.491-1.35,10.268-6.91,10.876-11.278
	c3.296-23.67,4.533-47.623,7.666-71.321c5.67-42.902,25.037-77.038,63.287-100.041c33.712-20.274,67.316-40.304,104.246-54.489
	c18.271-7.018,36.782-6.389,55.343-5.621c19.075,0.79,38.124,3.084,57.081,5.525c12.758,1.643,25.419,4.323,37.978,7.177
	c24.514,5.571,32.951,19.6,16.52,41.695c-14.2,19.094-15.834,39.941-17.022,61.02c-2.78,49.324-3.413,98.766-5.333,148.144
	c-1.134,29.152-2.596,58.308-4.76,87.399c-2.549,34.267-16.674,63.774-41.097,87.637c-36.564,35.726-73.64,70.946-111.149,105.678
	c-19.529,18.083-44.843,24.087-70.188,23.322c-37.93-1.145-75.854-4.968-113.58-9.368c-19.108-2.229-26.941-15.26-18.313-32.186
	c10.803-21.194,24.198-41.488,39.147-60.013c11.982-14.849,30.716-10.412,47.606-8.975c38.603,3.285,77.008,11.528,115.998,6.004
	c11.911-1.687,20.286-9.673,22.701-21.276c4.056-19.489,7.837-39.188,9.487-58.986c2.08-24.95,2.15-50.084,2.612-75.147
	c0.3-16.256-5.249-19.53-19.188-10.714c-20.876,13.205-40.451,28.615-61.937,40.667c-21.167,11.873-42.722,27.047-69.43,12.942
	c-15.487-8.179-24.322-22.05-32.289-36.442c-5.171-9.342-10.88-9.688-19.276-5.262c-27.715,14.611-55.535,29.025-83.383,43.384
	c-21.344,11.006-41.384-1.636-51.18-16.807c-14.404-22.31-21.379-46.539-20.723-72.731c1.078-43.038,3.256-86.048,4.528-129.083
	c0.541-18.298-4.465-21.667-22.322-16.178c-6.344,1.95-12.646,4.264-18.627,7.121c-13.7,6.543-20.592,17.504-20.985,32.893
	c-0.368,14.428-1.389,28.845-2.333,43.252c-2.322,35.391-4.808,70.771-7.145,106.162c-1.326,20.076-12.261,32.401-35.68,39.381
	c-17.258,5.143-34.603,10.001-51.938,14.885c-17.761,5.004-29.201-2.467-28.992-21.009c0.373-32.937,2.116-65.864,3.574-98.782
	c0.814-18.377,2.692-36.714,3.209-55.094c0.576-20.456,0.465-40.946,0.051-61.408c-0.271-13.387-4.852-17.289-18.354-17.261
	c-4.503,0.009-9.081,0.051-13.491,0.832c-7.544,1.335-11.283,5.856-11.066,13.928c0.331,12.309,0.416,24.644,0.024,36.95
	c-1.34,42.15-10.489,82.076-34.303,117.716c-11.274,16.874-26.684,29.454-44.48,38.112c-36.323,17.672-72.651,35.729-110.312,50.139
	c-32.921,12.597-68.195,13.55-98.646-7.009c-23.984-16.192-46.602-9.261-70.44-4.217c-36.87,7.8-73.711,15.766-110.708,22.919
	c-7.98,1.543-16.854,1.235-24.822-0.495c-16.907-3.669-27.998-25.29-25.926-44.676c1.453-13.594,0.142-27.466,0.474-41.204
	c0.294-12.165,1.544-24.311,1.683-36.474c0.292-25.824-0.077-51.656,0.282-77.479c0.119-8.561-4.926-13.302-11.667-13.451
	c-25.169-0.558-50.395-0.441-75.525,0.865c-4.524,0.235-11.161,6.554-12.568,11.321c-4.398,14.895-7.738,30.266-9.709,45.681
	c-4.537,35.476-26.687,58.704-53.052,79.23c-24.035,18.711-48.977,36.326-72.244,55.938c-22.402,18.882-47.389,28.713-76.405,28.292
	c-20.358-0.296-40.732-0.946-61.042-2.283c-7.264-0.478-14.628-2.757-21.482-5.414c-12.105-4.693-17.662-15.573-12.05-27.668
	c6.859-14.783,15.794-28.694,24.716-42.406c12.026-18.482,29.471-17.726,49.091-14.674c25.228,3.925,50.937,5.539,76.492,6.282
	c15.593,0.454,28.587-10.865,30.343-27.262c3.17-29.616,4.267-59.483,5.208-89.277c0.146-4.653-4.152-10.526-8.027-14.03
	c-12.812-11.582-15.493-21.871-3.739-34.393c19.678-20.965,17.275-46.93,19.12-71.927c1.226-16.6,0.259-33.359,0.372-50.046
	c0.15-22.139-7.329-28.674-29-24.84c-27.109,4.797-39.015,27.556-35.738,53.772c1.788,14.297,5.128,28.393,7.233,42.658
	c1.628,11.037-3.236,20.71-11.248,27.092c-13.823,11.012-28.31,21.554-43.731,30.105c-18.65,10.34-30.532-0.684-36.7-18.985
	c-16.236-48.166-14.238-103.333,33.353-141.574c30.141-24.219,64.061-39.252,101.404-45.185
	c34.194-5.432,68.982-7.621,103.602-9.618c13.55-0.782,27.46,2.256,41.008,4.668c10.541,1.876,16.206,17.418,7.93,23.998
	c-18.696,14.864-16.609,35.383-17.975,55.015c-1.486,21.346-1.997,42.769-2.532,64.168c-0.165,6.605-0.485,13.875,2.004,19.663
	c1.936,4.501,8.12,10.159,12.419,10.162c23.25,0.015,46.513-1.366,69.746-2.702c10.126-0.582,13.809-8.223,14.875-16.878
	c3.455-28.041,5.528-56.287,9.958-84.165c5.205-32.751,16.261-63.332,45.488-82.91c28.358-18.997,56.804-38.037,86.431-54.917
	c27.792-15.834,58.662-13.146,88.632-7.033c14.425,2.942,18.823,14.69,12.32,28.511c-4.465,9.489-9.98,18.691-16.311,27.049
	c-10.837,14.308-18.508,15.559-36.241,10.458c-11.618-3.342-23.639-6.302-35.63-7.059c-13.153-0.831-21.735,7.364-23.195,20.066
	c-2.734,23.788-5.684,47.595-7.135,71.479c-2.958,48.712-5.254,97.469-7.29,146.229c-1.3,31.15-2.154,62.34-2.162,93.512
	c-0.003,12.018,1.933,24.26,4.689,36c3.844,16.372,36.104,26.063,47.622,14.041c3.839-4.007,5.06-12.592,4.239-18.646
	c-3.979-29.337-3.182-58.546,0.635-87.717c3.632-27.751,8.578-55.57,26.104-78.316c9.872-12.813,21.493-25.462,34.944-34.113
	c39.353-25.309,80.759-47.611,126.529-58.714c36.548-8.866,73.246-6.5,105.356,15.855c11.077,7.712,18.822,20.07,28.959,29.357
	c3.123,2.861,10.135,4.896,13.644,3.364c23.71-10.35,46.56-22.732,70.475-32.535c21.266-8.717,43.226-16.222,65.483-21.888
	c17.69-4.503,31.017,8.786,33.704,30.221c0.098,0.783-0.016,1.591,0.04,2.382c2.016,28.223,5.042,28.956,29.822,15.911
	c32.544-17.132,65.866-32.909,99.527-47.738c14.317-6.307,30.734-7.441,42.939,5.55c5.395,5.741,9.346,14.13,10.844,21.914
	c1.843,9.575,0.44,19.775,0.44,29.705C5210.402,375.124,5210.702,375.14,5211.002,375.156z M4634.781,486.147
	c0.721,0.254,1.442,0.507,2.164,0.761c1.11,10.549,2.567,21.076,3.258,31.653c1.381,21.122,7.772,40.605,18.651,58.6
	c12.597,20.835,37.45,28.855,53.669,15.968c7.134-5.668,13.075-14.898,15.826-23.68c14.481-46.226,16.189-93.228,2.236-139.802
	c-3.553-11.859-10.387-25.245-19.891-32.31c-22.781-16.934-50.275-11.399-60.157,17.119
	C4642.582,437.415,4639.838,462.182,4634.781,486.147z M5447.066,435.396c-0.239-0.018-0.479-0.037-0.718-0.055
	c0-7.481-0.883-15.094,0.206-22.413c1.662-11.174-3.283-17.461-13.155-20.175c-10.461-2.875-21.128-6.121-31.842-6.704
	c-17.099-0.929-23.682,6.148-27.027,22.846c-7.309,36.483-9.62,73.036-4.814,110.065c1.963,15.126,12.379,30.009,23.674,31.24
	c17.096,1.863,45.844-16.601,48.021-33.805C5444.801,489.586,5445.326,462.414,5447.066,435.396z M3581.675,481.402
	c0.289,34.873-4.988,68.893-17.982,101.27c-12.077,30.09-31.732,54.547-61.232,69.013c-35.139,17.231-70.287,34.838-106.734,48.905
	c-46.043,17.771-100.727,9.135-132.771-35.899c-17.297-24.309-23.16-51.501-23.771-79.359c-0.64-29.215,1.478-59.052,7.124-87.684
	c5.503-27.909,14.734-56.296,39.551-74.362c18.664-13.587,38.23-26.292,58.639-37.021c19.661-10.336,40.591-18.551,61.551-26.057
	c32.942-11.797,66.685-15.598,101.049-5.466c17.817,5.253,32.096,16.013,43.765,29.711c13.1,15.378,14.248,16.434,33.001,10.826
	c10.789-3.226,21.537-7.331,32.598-8.761c27.937-3.612,20.875-8.095,24.429-30.642c3.926-24.909,5.952-50.415,20.864-71.44
	c9.253-13.045,20.724-25.511,33.685-34.749c42.096-30.004,84.948-59.459,133.859-77.356c25.551-9.349,53.004-9.224,79.742-2.959
	c12.899,3.023,18.414,16.584,12.095,30.415c-5.347,11.702-12.085,22.891-19.252,33.609c-8.769,13.115-22.017,13.761-36.489,12.03
	c-20.304-2.429-40.755-4.129-61.187-4.797c-10.791-0.353-27.682,17.198-29.182,29.455c-2.918,23.843-5.134,47.778-7.271,71.708
	c-0.684,7.658,0.113,15.439-0.333,23.131c-0.711,12.274,6.546,15.546,16.922,16.385c15.161,1.227,30.379,2.289,45.398,4.571
	c12.786,1.943,17.481,12.74,12.667,24.734c-6.594,16.432-20.115,23.498-35.932,27.307c-6.842,1.647-14.022,2.055-21.082,2.593
	c-17.995,1.371-23.823,6.508-24.787,24.239c-1.893,34.829-2.282,69.766-5.103,104.511c-4.417,54.408-4.424,109.466-19.159,162.579
	c-5.942,21.417-17.094,40.803-33.38,56.193c-28.626,27.05-58.537,52.752-86.863,80.103c-16.219,15.661-32.196,32.064-54.449,37.062
	c-19.246,4.323-39.523,4.237-59.38,5.565c-8.175,0.547-16.47,0.025-24.665-0.599c-14.432-1.098-24.172-14.443-18.024-27.427
	c7.48-15.797,17.042-30.77,27.086-45.131c6.528-9.333,17.634-10.86,28.69-10.468c22.134,0.785,44.297,2.4,66.402,1.839
	c19.687-0.499,36.639-20.61,38.028-42.877c3.306-53.011,6.317-106.041,9.639-159.051c1.18-18.833,3.571-37.609,4.23-56.453
	c0.808-23.091,0.392-46.226,0.478-69.342c0.048-12.997,0.782-26.047-0.138-38.977c-1.032-14.498-7.1-19.102-21.038-18.195
	c-5.47,0.356-10.961,1.394-16.394,1.134c-11.563-0.553-15.711,4.978-14.977,15.924
	C3582.042,467.869,3581.675,474.648,3581.675,481.402z M3462.547,524.103c-3.453-23.296-5.41-44.334-9.967-64.793
	c-3.741-16.798-12.993-32.744-29.114-39.338c-24.806-10.146-44.952-1.709-54.672,24.596c-5.578,15.097-6.325,32.014-8.955,48.16
	c-6.459,39.657-1.08,77.577,18.461,112.855c8.071,14.57,20.821,23.907,38.332,23.092c19.574-0.912,29.764-14.432,33.566-31.31
	C3455.765,572.656,3458.751,547.368,3462.547,524.103z"/>
</svg>
